<?xml version="1.0" encoding="utf-8"?>
<!-- Generator: Adobe Illustrator 14.0.0, SVG Export Plug-In . SVG Version: 6.00 Build 43363)  -->
<!DOCTYPE svg PUBLIC "-//W3C//DTD SVG 1.1//EN" "http://www.w3.org/Graphics/SVG/1.1/DTD/svg11.dtd">
<svg version="1.1" id="Layer_1" xmlns="http://www.w3.org/2000/svg" xmlns:xlink="http://www.w3.org/1999/xlink" x="0px" y="0px"
	 width="150px" height="150px" viewBox="0 0 150 150" enable-background="new 0 0 150 150" xml:space="preserve">
<g>
	<path fill="#00B9F1" d="M145.372,93.361c-0.03-0.082-0.045-0.171-0.082-0.26c-0.052-0.187-0.126-0.357-0.193-0.528
		c-0.171-0.371-0.371-0.713-0.616-1.018c-0.156-0.224-0.364-0.432-0.565-0.595c-0.223-0.193-0.468-0.35-0.729-0.49
		c-0.26-0.135-0.527-0.238-0.803-0.306c-0.289-0.066-0.587-0.104-0.877-0.141c-0.312,0-0.602,0.037-0.892,0.074
		c-0.074,0.015-0.156,0.029-0.23,0.045c-0.037,0-0.066,0.021-0.104,0.021l-0.045,0.016l-0.052,0.015
		c-0.142,0.037-0.275,0.066-0.417,0.141c-0.542,0.187-1.032,0.461-1.479,0.825c-0.432,0.342-0.811,0.759-1.107,1.204
		c-0.29,0.424-0.521,0.914-0.669,1.39c-0.148,0.483-0.238,0.967-0.253,1.412c-0.022,0.312,0,0.603,0.03,0.877
		c-0.298-0.824-0.736-1.604-1.271-2.326c-0.632-0.854-1.404-1.612-2.304-2.215c-0.698-0.46-1.338-0.758-1.902-0.966
		c-0.572-0.201-1.063-0.305-1.554-0.356c-0.49-0.053-0.944-0.053-1.42,0c-0.468,0.029-0.966,0.118-1.501,0.26
		c-0.572,0.134-1.174,0.342-1.843,0.646c-0.342,0.156-0.685,0.35-1.063,0.572c-0.356,0.224-0.735,0.498-1.137,0.817
		c-0.379,0.327-0.751,0.714-1.13,1.16c-0.356,0.445-0.706,0.958-0.996,1.561c-0.156,0.312-0.274,0.624-0.401,0.966
		c-0.052,0.171-0.097,0.327-0.148,0.521c-0.052,0.171-0.089,0.356-0.126,0.543c-0.015,0.066-0.037,0.155-0.037,0.229
		c0,0-0.016,0.082-0.016,0.112c-0.134,0.75-0.097,1.486,0.016,2.118c0.141,0.653,0.386,1.241,0.676,1.717
		c0.275,0.482,0.617,0.877,0.951,1.188c0.342,0.312,0.685,0.551,0.981,0.722c0.282,0.192,0.558,0.312,0.788,0.386
		c0.223,0.082,0.386,0.134,0.513,0.149c0.134,0.015,0.186,0.015,0.186,0c0.022-0.016-0.029-0.053-0.148-0.097
		c-0.104-0.074-0.26-0.127-0.469-0.246c-0.2-0.104-0.445-0.245-0.706-0.431c-0.274-0.208-0.572-0.446-0.861-0.772
		c-0.268-0.312-0.558-0.691-0.788-1.152c-0.238-0.453-0.424-0.974-0.535-1.561c-0.082-0.588-0.082-1.241,0.052-1.896
		c0.037-0.156,0.074-0.327,0.127-0.483c0.044-0.171,0.118-0.342,0.186-0.513c0.134-0.342,0.305-0.691,0.513-1.018
		c0.416-0.669,0.951-1.294,1.62-1.784c0.669-0.521,1.479-0.914,2.349-1.152c0.877-0.245,1.843-0.297,2.772-0.118
		c0.245,0.029,0.482,0.081,0.729,0.148c0.097,0.029,0.215,0.066,0.342,0.104c0.134,0.037,0.237,0.104,0.364,0.142
		c0.476,0.186,0.974,0.408,1.404,0.684c0.914,0.55,1.725,1.271,2.378,2.186c0.669,0.877,1.16,1.91,1.457,3.018
		c0.275,1.107,0.342,2.281,0.156,3.471c-0.052,0.282-0.104,0.557-0.193,0.854c-0.015,0.082-0.029,0.142-0.067,0.223
		c0,0.067-0.029,0.148-0.052,0.224c-0.052,0.155-0.104,0.297-0.156,0.431c-0.2,0.602-0.476,1.167-0.787,1.702
		c-0.617,1.085-1.428,2.066-2.356,2.868c-0.937,0.796-1.977,1.45-3.077,1.889c-1.107,0.453-2.229,0.713-3.389,0.802
		c-1.138,0.082-2.252-0.021-3.33-0.267c-0.126-0.03-0.26-0.06-0.401-0.097c-0.052-0.016-0.118-0.037-0.186-0.053l-0.208-0.074
		c-0.275-0.082-0.521-0.163-0.795-0.253c-0.498-0.186-0.996-0.416-1.472-0.653c-0.053-0.022-0.127-0.074-0.179-0.104
		c0.126-0.476,0.208-0.996,0.275-1.531c0.163-1.167,0.193-2.438,0.081-3.745c-0.081-1.315-0.342-2.653-0.75-3.977
		c-0.395-1.323-0.944-2.579-1.598-3.731c-0.632-1.129-1.375-2.162-2.171-3.054c-0.788-0.915-1.612-1.673-2.46-2.327
		c-0.825-0.653-1.665-1.182-2.452-1.598c-0.78-0.431-1.517-0.735-2.186-0.966c-0.654-0.224-1.256-0.372-1.762-0.438
		c-0.081-0.022-0.2-0.037-0.289-0.037c-1.442-0.521-2.937-0.833-4.4-0.967c-1.836-0.171-3.627-0.141-5.344,0.082
		c-1.709,0.23-3.337,0.639-4.883,1.196c-1.517,0.543-2.929,1.234-4.214,2.021c-1.271,0.773-2.445,1.636-3.456,2.564
		c-0.736,0.669-1.405,1.338-2.007,2.029c-0.245-0.022-0.588-0.022-0.885,0c-0.602,0.022-1.166-0.053-1.664-0.208
		c-0.506-0.119-0.959-0.327-1.36-0.565c-0.379-0.245-0.721-0.505-1.019-0.772c-0.03-0.045-0.067-0.09-0.082-0.127
		c-0.03-0.029-0.067-0.066-0.104-0.097c-0.075-0.066-0.142-0.141-0.186-0.208c0.126-0.186,0.26-0.379,0.372-0.572
		c0.141-0.268,0.26-0.579,0.35-0.884c0.059-0.312,0.119-0.603,0.134-0.937c0.022-0.29,0-0.603-0.052-0.907
		c-0.052-0.297-0.134-0.587-0.252-0.862c-0.156-0.342-0.327-0.653-0.535-0.966c0.066-0.082,0.111-0.163,0.193-0.238
		c0.067-0.066,0.134-0.155,0.201-0.215c0.015-0.037,0.03-0.037,0.052-0.082c0.03-0.015,0.03-0.029,0.067-0.045
		c0.037-0.037,0.074-0.074,0.104-0.104c0.148-0.134,0.342-0.261,0.535-0.364c0.186-0.119,0.395-0.223,0.625-0.29
		c0.289-0.104,0.602-0.142,0.898-0.142c0.312,0.016,0.603,0.104,0.863,0.209c0.281,0.118,0.505,0.289,0.69,0.482
		c0.03,0.022,0.067,0.053,0.067,0.053c0.037,0.029,0.052,0.066,0.074,0.081c0.052,0.053,0.082,0.104,0.119,0.164
		c0.066,0.097,0.119,0.2,0.156,0.312c0.096,0.216,0.133,0.438,0.133,0.646c0,0.201-0.037,0.417-0.104,0.58
		c-0.066,0.179-0.156,0.327-0.253,0.453c-0.052,0.067-0.104,0.119-0.163,0.171c-0.03,0.008-0.053,0.008-0.053,0.008l-0.015,0.022
		l-0.015,0.022l-0.016,0.015h-0.021c0,0,0,0.022-0.016,0.037l-0.029,0.015c-0.089,0.052-0.193,0.089-0.275,0.104
		c-0.088,0.015-0.178,0.029-0.244,0.052c-0.09,0-0.149,0-0.224,0.015c-0.074,0-0.142,0.015-0.2,0.03
		c-0.053,0.021-0.119,0.021-0.216,0.059c-0.067,0.03-0.148,0.053-0.216,0.104c-0.074,0.052-0.178,0.119-0.245,0.186
		c-0.097,0.09-0.171,0.171-0.26,0.305c-0.082,0.127-0.134,0.261-0.134,0.424c0.021,0.134,0.082,0.275,0.186,0.424
		c0.111,0.119,0.275,0.26,0.482,0.356c0.238,0.111,0.498,0.164,0.789,0.164c0.312,0,0.639-0.053,0.966-0.208
		c0.171-0.067,0.327-0.156,0.483-0.283c0.156-0.097,0.274-0.237,0.408-0.371c0.037-0.037,0.066-0.074,0.104-0.104
		c0-0.029,0.03-0.044,0.03-0.044l0.044-0.06l0.016-0.037l0.015-0.016l0.022-0.037c0,0,0.029-0.029,0.045-0.066
		c0.021-0.029,0.037-0.067,0.066-0.111c0.09-0.179,0.179-0.35,0.246-0.543c0.118-0.371,0.17-0.795,0.133-1.182
		c-0.029-0.408-0.133-0.832-0.342-1.189c-0.104-0.186-0.201-0.363-0.342-0.527c-0.134-0.163-0.289-0.297-0.445-0.438
		c-0.09-0.052-0.172-0.119-0.261-0.148c-0.097-0.067-0.171-0.111-0.274-0.156c-0.172-0.104-0.357-0.171-0.551-0.223
		c-0.394-0.119-0.787-0.171-1.182-0.156c-0.416,0.015-0.811,0.097-1.174,0.237c-0.379,0.156-0.721,0.364-1.033,0.603
		c-0.089,0.066-0.156,0.141-0.238,0.208c-0.067,0.074-0.141,0.156-0.208,0.223c-0.082,0.104-0.171,0.224-0.275,0.342
		c-0.082-0.118-0.171-0.237-0.268-0.342c-0.082-0.066-0.148-0.148-0.208-0.223c-0.067-0.067-0.164-0.142-0.23-0.208
		c-0.312-0.238-0.654-0.446-1.033-0.603c-0.372-0.141-0.773-0.223-1.167-0.237c-0.394-0.015-0.803,0.037-1.189,0.156
		c-0.2,0.052-0.379,0.118-0.557,0.223c-0.097,0.045-0.178,0.089-0.26,0.156c-0.082,0.029-0.178,0.097-0.26,0.148
		c-0.156,0.142-0.312,0.275-0.446,0.438c-0.141,0.164-0.26,0.342-0.372,0.527c-0.178,0.357-0.297,0.781-0.32,1.189
		c-0.037,0.387,0.022,0.811,0.142,1.182c0.067,0.193,0.134,0.364,0.238,0.543c0.037,0.044,0.052,0.082,0.067,0.111
		c0.015,0.037,0.037,0.052,0.037,0.052l0.015,0.052h0.015l0.022,0.016l0.015,0.037l0.015,0.029c0.022,0.03,0.038,0.045,0.052,0.074
		c0.015,0.03,0.052,0.067,0.089,0.104c0.134,0.134,0.275,0.274,0.431,0.371c0.149,0.127,0.305,0.216,0.483,0.283
		c0.312,0.155,0.654,0.208,0.944,0.208c0.312,0,0.565-0.053,0.788-0.164c0.223-0.097,0.394-0.237,0.498-0.356
		c0.104-0.148,0.156-0.29,0.171-0.424c0-0.163-0.052-0.297-0.134-0.424c-0.074-0.134-0.156-0.215-0.26-0.305
		c-0.066-0.066-0.156-0.134-0.238-0.186c-0.067-0.052-0.134-0.074-0.23-0.104c-0.067-0.037-0.134-0.037-0.201-0.059
		c-0.067-0.016-0.126-0.03-0.208-0.03c-0.044-0.015-0.119-0.015-0.201-0.015c-0.074-0.022-0.156-0.037-0.26-0.052
		c-0.075-0.016-0.179-0.053-0.275-0.104l-0.03-0.015l-0.022-0.037h-0.015V90.01l-0.015-0.022h-0.03
		c-0.015-0.022-0.03-0.022-0.052-0.03c-0.045-0.052-0.097-0.104-0.149-0.171c-0.104-0.126-0.208-0.274-0.26-0.453
		c-0.067-0.163-0.097-0.379-0.112-0.58c0-0.208,0.03-0.431,0.126-0.646c0.037-0.111,0.089-0.215,0.178-0.312
		c0.037-0.06,0.067-0.111,0.104-0.164c0,0,0.03-0.052,0.067-0.066c0,0,0.045-0.045,0.067-0.067c0.208-0.193,0.438-0.364,0.691-0.482
		c0.268-0.104,0.565-0.193,0.877-0.209c0.29,0,0.602,0.038,0.892,0.142c0.238,0.067,0.454,0.171,0.632,0.29
		c0.193,0.104,0.364,0.23,0.528,0.364c0.03,0.029,0.06,0.066,0.111,0.104c0.015,0.016,0.037,0.03,0.052,0.045
		c0.015,0.045,0.03,0.045,0.052,0.082c0.089,0.06,0.156,0.148,0.223,0.215c0.067,0.075,0.126,0.156,0.178,0.238
		c-0.193,0.312-0.379,0.624-0.52,0.966c-0.119,0.275-0.208,0.565-0.275,0.862c-0.052,0.305-0.067,0.617-0.052,0.907
		c0.015,0.334,0.082,0.624,0.156,0.937c0.089,0.305,0.201,0.616,0.349,0.884c0.097,0.193,0.23,0.387,0.357,0.572
		c-0.052,0.067-0.112,0.142-0.178,0.208l-0.097,0.097c-0.037,0.037-0.067,0.082-0.104,0.127c-0.275,0.268-0.617,0.527-1.018,0.772
		c-0.394,0.238-0.84,0.446-1.338,0.565c-0.513,0.155-1.062,0.23-1.672,0.208c-0.29-0.022-0.654-0.022-0.892,0
		c-0.602-0.691-1.256-1.36-1.992-2.029c-1.026-0.929-2.17-1.791-3.456-2.564c-1.308-0.787-2.706-1.479-4.244-2.021
		c-1.517-0.558-3.151-0.966-4.876-1.196c-1.694-0.223-3.508-0.253-5.329-0.082c-1.472,0.134-2.958,0.446-4.422,0.967
		c-0.082,0-0.186,0.015-0.29,0.037c-0.483,0.066-1.063,0.215-1.754,0.438c-0.646,0.23-1.39,0.535-2.185,0.966
		c-0.78,0.416-1.627,0.944-2.46,1.598c-0.833,0.654-1.665,1.412-2.453,2.327c-0.773,0.892-1.509,1.925-2.163,3.054
		c-0.639,1.152-1.211,2.408-1.605,3.731c-0.416,1.323-0.646,2.661-0.743,3.977c-0.111,1.308-0.06,2.578,0.097,3.745
		c0.067,0.535,0.148,1.056,0.268,1.531c-0.067,0.03-0.119,0.082-0.171,0.104c-0.483,0.237-0.974,0.468-1.516,0.653
		c-0.238,0.09-0.491,0.171-0.751,0.253l-0.208,0.074c-0.067,0.016-0.134,0.037-0.208,0.053c-0.134,0.037-0.253,0.066-0.394,0.097
		c-1.063,0.245-2.2,0.349-3.322,0.267c-1.152-0.089-2.304-0.349-3.381-0.802c-1.115-0.438-2.17-1.093-3.1-1.889
		c-0.914-0.802-1.717-1.783-2.333-2.868c-0.312-0.535-0.587-1.101-0.795-1.702c-0.052-0.134-0.119-0.275-0.148-0.431
		c-0.037-0.075-0.052-0.156-0.074-0.224c-0.015-0.081-0.03-0.141-0.067-0.223c-0.075-0.298-0.119-0.572-0.171-0.854
		c-0.208-1.189-0.134-2.363,0.148-3.471c0.275-1.107,0.795-2.141,1.449-3.018c0.669-0.914,1.479-1.636,2.378-2.186
		c0.453-0.275,0.914-0.498,1.405-0.684c0.119-0.037,0.238-0.104,0.356-0.142c0.149-0.037,0.246-0.074,0.364-0.104
		c0.238-0.067,0.483-0.119,0.706-0.148c0.944-0.179,1.903-0.127,2.787,0.118c0.877,0.238,1.665,0.632,2.341,1.152
		c0.669,0.49,1.211,1.115,1.627,1.784c0.208,0.326,0.364,0.676,0.498,1.018c0.074,0.171,0.141,0.342,0.193,0.513
		c0.044,0.156,0.097,0.327,0.134,0.483c0.141,0.654,0.141,1.308,0.03,1.896c-0.082,0.587-0.268,1.107-0.513,1.561
		c-0.238,0.461-0.513,0.84-0.81,1.152c-0.29,0.326-0.557,0.564-0.832,0.772c-0.275,0.186-0.521,0.327-0.729,0.431
		c-0.186,0.119-0.364,0.172-0.461,0.246c-0.104,0.044-0.164,0.081-0.164,0.081s0.082,0.03,0.193,0.016
		c0.134-0.016,0.29-0.067,0.52-0.149c0.238-0.074,0.498-0.193,0.803-0.386c0.312-0.171,0.639-0.409,0.966-0.722
		c0.327-0.312,0.669-0.706,0.959-1.188c0.297-0.476,0.52-1.063,0.654-1.717c0.141-0.632,0.164-1.368,0.037-2.118
		c0-0.03,0-0.082-0.022-0.112c-0.015-0.074-0.015-0.163-0.03-0.229c-0.052-0.187-0.082-0.372-0.134-0.543
		c-0.03-0.193-0.082-0.35-0.142-0.521c-0.119-0.342-0.252-0.654-0.416-0.966c-0.275-0.603-0.632-1.115-0.988-1.561
		c-0.364-0.446-0.743-0.833-1.145-1.16c-0.379-0.319-0.751-0.594-1.13-0.817c-0.357-0.223-0.729-0.416-1.07-0.572
		c-0.669-0.305-1.271-0.513-1.813-0.646c-0.557-0.142-1.041-0.23-1.516-0.26c-0.483-0.053-0.929-0.053-1.412,0
		c-0.483,0.052-0.981,0.155-1.561,0.356c-0.565,0.208-1.189,0.506-1.896,0.966c-0.892,0.603-1.687,1.36-2.319,2.215
		c-0.52,0.722-0.951,1.502-1.263,2.326c0.022-0.274,0.037-0.564,0.022-0.877c-0.022-0.445-0.089-0.929-0.238-1.412
		c-0.156-0.476-0.386-0.966-0.676-1.39c-0.305-0.445-0.669-0.862-1.115-1.204c-0.424-0.364-0.929-0.639-1.479-0.825
		c-0.119-0.074-0.26-0.104-0.394-0.141l-0.052-0.015l-0.052-0.016c-0.03,0-0.089-0.021-0.126-0.021
		c-0.067-0.016-0.126-0.03-0.193-0.045c-0.297-0.037-0.587-0.074-0.899-0.074c-0.312,0.037-0.602,0.074-0.877,0.141
		c-0.275,0.067-0.55,0.171-0.811,0.306c-0.252,0.141-0.513,0.297-0.728,0.49c-0.201,0.163-0.401,0.371-0.565,0.595
		c-0.253,0.305-0.461,0.646-0.609,1.018c-0.074,0.171-0.149,0.342-0.216,0.528c-0.015,0.089-0.044,0.178-0.082,0.26
		c-0.015,0.097-0.03,0.193-0.052,0.29c-0.052,0.379-0.074,0.735,0,1.1c0.052,0.387,0.171,0.743,0.35,1.07
		c0.148,0.327,0.394,0.64,0.669,0.877c0.134,0.134,0.268,0.253,0.446,0.364c0.06,0.045,0.156,0.097,0.238,0.148
		c0.089,0.053,0.171,0.082,0.26,0.104c0.171,0.089,0.357,0.141,0.55,0.171c0.186,0.037,0.379,0.066,0.58,0.052
		c0.379-0.015,0.781-0.104,1.107-0.274c0.342-0.156,0.669-0.395,0.907-0.677c0.126-0.126,0.223-0.275,0.312-0.424
		c0.037-0.052,0.052-0.081,0.067-0.119c0.015-0.015,0.037-0.037,0.052-0.074L9.6,95.94v-0.022l0.022-0.029l0.015-0.037
		c0,0,0.015-0.045,0.015-0.067c0.015-0.029,0.037-0.089,0.052-0.119c0.074-0.171,0.089-0.349,0.126-0.527
		c0.015-0.179,0.015-0.35,0-0.521c-0.052-0.312-0.164-0.602-0.297-0.862c-0.141-0.237-0.305-0.431-0.498-0.55
		c-0.171-0.141-0.364-0.208-0.513-0.223c-0.164-0.03-0.312,0-0.438,0.052c-0.097,0.052-0.193,0.156-0.275,0.29
		c-0.052,0.119-0.104,0.245-0.119,0.35c-0.015,0.097-0.03,0.2-0.03,0.2c0,0.171,0.015,0.238,0.015,0.312
		c0.015,0.066,0.03,0.134,0.052,0.186c0.015,0.067,0.03,0.126,0.067,0.179c0.015,0.066,0.052,0.118,0.097,0.186
		c0.03,0.074,0.044,0.156,0.082,0.223c0.015,0.082,0.03,0.179,0.03,0.275v0.052v0.015l-0.015,0.016h0.015H7.987v0.037l-0.015,0.074
		c0,0.066-0.015,0.134-0.052,0.186c-0.06,0.156-0.141,0.305-0.246,0.431c-0.096,0.134-0.26,0.253-0.409,0.364
		c-0.178,0.082-0.386,0.164-0.587,0.179c-0.119,0.022-0.223,0.022-0.342,0.022c-0.052,0-0.112-0.022-0.171-0.022
		c-0.038-0.015-0.075-0.015-0.089-0.015c-0.03-0.015-0.067-0.015-0.104-0.03C5.735,96.476,5.49,96.371,5.267,96.2
		c-0.201-0.156-0.409-0.364-0.542-0.609c-0.179-0.237-0.275-0.49-0.327-0.78c-0.06-0.216-0.06-0.438-0.06-0.639
		c0-0.209,0.015-0.417,0.06-0.603c0.015-0.037,0.015-0.089,0.03-0.142l0.022-0.066l0.015-0.066c0.015-0.09,0.052-0.193,0.082-0.275
		c0.067-0.193,0.134-0.364,0.23-0.543c0.082-0.163,0.179-0.319,0.305-0.49c0.104-0.179,0.216-0.327,0.379-0.483
		c0.134-0.148,0.312-0.312,0.491-0.445c0.178-0.127,0.401-0.261,0.609-0.357c0.238-0.111,0.498-0.208,0.773-0.282
		c0.29-0.066,0.602-0.097,0.929-0.082c0.171,0,0.342,0,0.513,0.03c0.089,0.022,0.178,0.022,0.26,0.037
		c0.044,0.015,0.082,0.015,0.156,0.037c0.037,0.015,0.089,0.03,0.119,0.052c0.357,0.082,0.736,0.238,1.093,0.438
		c0.372,0.208,0.743,0.483,1.092,0.825c0.357,0.35,0.669,0.758,0.944,1.264c0.26,0.498,0.461,1.062,0.572,1.68
		c0.045,0.312,0.067,0.654,0.067,0.996c0,0.312-0.037,0.639-0.104,0.974c-0.327,1.025-0.483,2.104-0.468,3.195
		c0,1.101,0.193,2.215,0.535,3.278c0.104,0.26,0.186,0.535,0.312,0.787c0.104,0.245,0.216,0.521,0.342,0.766
		c0.275,0.49,0.55,0.996,0.862,1.457c0.654,0.943,1.419,1.843,2.319,2.631c0.803,0.721,1.732,1.375,2.772,1.933
		c0.527,0.305,1.078,0.579,1.65,0.803c1.204,0.482,2.46,0.772,3.701,0.862c1.241,0.066,2.467-0.053,3.62-0.327
		c0.29-0.067,0.587-0.156,0.862-0.245c0.275-0.097,0.565-0.201,0.818-0.312c0.557-0.201,1.092-0.424,1.59-0.699
		c0.082,0.306,0.186,0.603,0.29,0.893c0.379,0.996,0.84,1.895,1.323,2.66c0.483,0.766,0.996,1.397,1.494,1.896
		c0.505,0.535,0.966,0.929,1.36,1.204c0.074,0.052,0.141,0.119,0.208,0.179c0.461,0.46,0.966,0.884,1.464,1.285
		c1.523,1.204,3.248,2.081,5.017,2.609c1.769,0.542,3.597,0.743,5.344,0.639c0.216-0.015,0.438-0.045,0.639-0.066
		c0.23-0.016,0.431-0.03,0.654-0.075c0.431-0.066,0.862-0.148,1.271-0.252c0.825-0.224,1.612-0.535,2.341-0.893
		c1.494-0.75,2.765-1.775,3.768-2.92c1.011-1.146,1.754-2.431,2.237-3.754c0.491-1.308,0.736-2.639,0.766-3.88
		c0.022-0.52,0-1.04-0.045-1.553c0.03-0.09,0.082-0.193,0.097-0.327c0.112-0.416,0.141-1.033,0.037-1.806
		c-0.104-0.736-0.379-1.65-0.854-2.558c-0.468-0.914-1.174-1.828-2.088-2.615c-0.892-0.781-1.925-1.346-2.884-1.695
		c-0.959-0.326-1.888-0.461-2.661-0.461c-0.766,0-1.368,0.135-1.776,0.298c-0.394,0.148-0.602,0.342-0.587,0.513
		c0.015,0.156,0.246,0.275,0.625,0.416c0.372,0.134,0.907,0.275,1.509,0.461c0.609,0.193,1.308,0.469,2.029,0.825
		c0.743,0.379,1.479,0.854,2.185,1.457c0.699,0.624,1.286,1.278,1.754,1.954c0.46,0.669,0.825,1.323,1.115,1.881
		c0.275,0.587,0.49,1.092,0.669,1.434c0.037,0.053,0.059,0.082,0.074,0.119c0.037,0.513,0.052,1.07,0.022,1.636
		c-0.059,1.151-0.312,2.386-0.795,3.589c-0.476,1.212-1.211,2.371-2.155,3.427c-0.929,1.048-2.111,1.977-3.493,2.631
		c-0.03,0.015-0.082,0.03-0.112,0.052c0.223-0.118,0.438-0.274,0.706-0.46c0.32-0.23,0.632-0.506,0.944-0.833
		c0.327-0.327,0.632-0.684,0.929-1.093c0.275-0.423,0.55-0.884,0.773-1.382c0.223-0.513,0.416-1.048,0.535-1.635
		c0.119-0.588,0.186-1.189,0.186-1.821c0-0.327-0.03-0.654-0.067-0.981c-0.015-0.156-0.03-0.327-0.089-0.498
		c-0.022-0.141-0.052-0.305-0.097-0.468c-0.156-0.654-0.416-1.286-0.795-1.873c-0.379-0.602-0.84-1.145-1.39-1.612
		c-0.26-0.23-0.535-0.417-0.847-0.588c-0.513-0.364-1.1-0.653-1.672-0.869c-0.632-0.23-1.249-0.372-1.903-0.453
		c-0.312-0.037-0.624-0.037-0.951-0.037c-0.148,0-0.305,0.021-0.453,0.037c-0.164,0-0.312,0.015-0.476,0.066
		c-0.631,0.089-1.219,0.29-1.761,0.587c-0.55,0.275-1.055,0.654-1.464,1.101c-0.431,0.431-0.788,0.929-1.033,1.479
		c-0.275,0.535-0.431,1.115-0.498,1.725c-0.052,0.453-0.037,0.848,0.03,1.174c0.052,0.335,0.126,0.625,0.223,0.862
		c0.104,0.261,0.23,0.491,0.364,0.706c0.141,0.224,0.327,0.453,0.535,0.691c0.208,0.223,0.461,0.483,0.803,0.729
		c0.178,0.126,0.342,0.237,0.558,0.371c0.208,0.119,0.446,0.246,0.698,0.342c0.26,0.104,0.55,0.193,0.877,0.246
		c0.312,0.066,0.654,0.104,1.033,0.081c0.193,0,0.387-0.015,0.565-0.044c0.104-0.022,0.215-0.037,0.312-0.053
		c0.104-0.037,0.193-0.074,0.312-0.089c0.037-0.015,0.067-0.037,0.119-0.052l0.052-0.022c0.416-0.134,0.758-0.342,1.048-0.558
		c0.275-0.245,0.505-0.521,0.654-0.795c0.179-0.261,0.275-0.535,0.342-0.773c0.067-0.26,0.104-0.482,0.104-0.669
		c0.015-0.208,0-0.364-0.015-0.498c-0.022-0.141-0.052-0.229-0.074-0.297c-0.015-0.066-0.03-0.104-0.044-0.104
		c0,0-0.022,0.053,0,0.127v0.29c0,0.134,0,0.274-0.037,0.461c-0.015,0.171-0.06,0.401-0.156,0.616
		c-0.067,0.224-0.186,0.453-0.357,0.714c-0.156,0.216-0.364,0.461-0.639,0.669c-0.26,0.2-0.565,0.356-0.929,0.461
		c-0.082,0.029-0.186,0.044-0.275,0.066c-0.104,0.022-0.201,0.037-0.312,0.06c-0.201,0.015-0.431,0.015-0.639,0.015
		c-0.423-0.037-0.87-0.141-1.301-0.342c-0.431-0.208-0.84-0.49-1.182-0.862c-0.342-0.364-0.617-0.832-0.795-1.33
		c-0.038-0.134-0.082-0.253-0.097-0.394c-0.022-0.067-0.037-0.134-0.037-0.201c-0.015-0.066-0.038-0.148-0.052-0.208
		c-0.037-0.297-0.037-0.587-0.015-0.885c0.029-0.572,0.163-1.182,0.423-1.746c0.283-0.55,0.654-1.062,1.115-1.517
		c0.468-0.408,1.056-0.766,1.672-0.98c0.171-0.045,0.327-0.097,0.476-0.134c0.037-0.015,0.067-0.015,0.149-0.037
		c0.03,0,0.067-0.015,0.111-0.015c0.067-0.022,0.156-0.038,0.26-0.038c0.327-0.052,0.691-0.066,1.033-0.066
		c0.706,0.029,1.39,0.179,2.021,0.409c0.639,0.237,1.241,0.602,1.761,1.018c0.491,0.432,0.929,0.922,1.271,1.457
		s0.602,1.13,0.75,1.725c0.022,0.074,0.037,0.134,0.06,0.2c0.022,0.052,0.022,0.067,0.037,0.126l0.015,0.119
		c0.022,0.148,0.052,0.298,0.067,0.446c0.037,0.312,0.067,0.602,0.082,0.914c0.022,0.58-0.044,1.167-0.148,1.725
		c-0.112,0.542-0.26,1.062-0.468,1.546c-0.201,0.476-0.438,0.929-0.721,1.322c-0.238,0.395-0.535,0.773-0.825,1.078
		c-0.29,0.312-0.602,0.602-0.892,0.847c-0.602,0.461-1.182,0.803-1.672,1.026c-0.476,0.245-0.892,0.379-1.167,0.468h-0.015
		c-0.275,0.074-0.55,0.142-0.84,0.171c-0.215,0.037-0.394,0.052-0.609,0.067c-0.193,0.015-0.386,0.015-0.602,0.037
		c-1.613,0.089-3.292-0.119-4.935-0.64c-1.635-0.498-3.233-1.322-4.623-2.452c-0.587-0.454-1.123-0.967-1.635-1.517
		c-0.483-0.78-1.115-1.828-1.687-3.144c-0.312-0.706-0.58-1.517-0.803-2.394c-0.141-0.542-0.23-1.137-0.312-1.739
		c0.104-0.066,0.186-0.126,0.297-0.223c0.818-0.684,1.517-1.42,2.133-2.2c0.595-0.772,1.092-1.583,1.509-2.386
		c0.416-0.817,0.743-1.598,0.974-2.378c0.245-0.773,0.401-1.509,0.505-2.237c0.208-1.404,0.178-2.646,0.067-3.604
		c-0.104-0.929-0.275-1.635-0.409-2.118c0.847-0.899,1.68-1.65,2.49-2.274c1.182-0.922,2.267-1.561,3.025-2.036
		c1.501-0.572,3.032-0.914,4.541-1.093c1.739-0.163,3.441-0.148,5.091,0.037c1.635,0.208,3.196,0.587,4.675,1.085
		c1.464,0.498,2.824,1.152,4.073,1.858c1.241,0.743,2.378,1.546,3.389,2.423c1.003,0.862,1.88,1.754,2.646,2.668
		c0.654,0.811,1.241,1.598,1.746,2.371c-0.542,0.521-1.033,1.107-1.516,1.754c-0.505,0.721-0.951,1.494-1.323,2.356
		c-0.148,0.356-0.275,0.721-0.394,1.077c-0.386,0.097-0.743,0.216-1.078,0.335c-0.453,0.186-0.862,0.408-1.249,0.653
		c-0.379,0.253-0.684,0.498-0.981,0.751c-0.275,0.245-0.535,0.506-0.736,0.758c-0.438,0.483-0.766,0.93-1.018,1.36
		c-0.253,0.431-0.446,0.811-0.602,1.204c-0.171,0.394-0.275,0.772-0.357,1.196c-0.074,0.424-0.104,0.87-0.089,1.383
		c0.015,0.527,0.104,1.151,0.342,1.836c0.26,0.892,0.706,1.776,1.271,2.512c0.55,0.758,1.256,1.435,2.029,1.977
		c0.795,0.535,1.672,0.944,2.616,1.22c0.929,0.282,1.91,0.401,2.884,0.371c0.252,0,0.505-0.029,0.75-0.06
		c0.238-0.015,0.491-0.052,0.736-0.104c0.476-0.082,0.958-0.208,1.442-0.342c0.208-0.067,0.416-0.142,0.602-0.208
		c0.059,0.052,0.126,0.104,0.193,0.178c-0.104,0.097-0.215,0.201-0.297,0.327c-0.327,0.424-0.587,0.907-0.75,1.42
		c-0.037,0.141-0.074,0.26-0.111,0.401l-0.015,0.052v0.045c-0.015,0.037-0.015,0.066-0.037,0.104c0,0.067-0.015,0.164-0.03,0.208
		c0,0.067,0,0.119-0.015,0.171c-0.037-0.134-0.082-0.268-0.193-0.431c-0.119-0.164-0.29-0.342-0.513-0.476
		c-0.223-0.142-0.498-0.261-0.825-0.29c-0.134-0.022-0.312-0.037-0.483-0.022c-0.171,0-0.342,0.037-0.513,0.089
		c-0.037,0.016-0.067,0.016-0.104,0.053c-0.03,0-0.052,0.015-0.075,0.015l-0.037,0.015h-0.029v0.015h-0.015l-0.037,0.022
		c-0.015,0-0.037,0.015-0.044,0.03c-0.037,0.015-0.089,0.037-0.119,0.052c-0.164,0.089-0.297,0.171-0.438,0.29
		c-0.275,0.223-0.513,0.521-0.669,0.847c-0.164,0.327-0.275,0.691-0.29,1.063c-0.022,0.193,0,0.371,0.015,0.55
		c0.037,0.179,0.067,0.364,0.141,0.535c0.03,0.089,0.082,0.171,0.119,0.245c0.029,0.082,0.082,0.171,0.119,0.238
		c0.104,0.155,0.208,0.305,0.327,0.453c0.238,0.253,0.513,0.476,0.84,0.669c0.297,0.163,0.639,0.274,0.996,0.342
		c0.126,0.037,0.283,0.052,0.394,0.052l-0.015,0.03c-0.067,0.111-0.134,0.245-0.171,0.379c-0.045,0.141-0.097,0.289-0.126,0.445
		c-0.015,0.171-0.015,0.312,0,0.469c0,0.156,0.044,0.29,0.082,0.416c0.045,0.134,0.097,0.253,0.164,0.356
		c0.067,0.104,0.126,0.201,0.193,0.282c0.082,0.06,0.148,0.142,0.223,0.179c0.052,0.052,0.119,0.082,0.171,0.111
		c0,0.015,0.015,0.015,0.015,0.015c0.074,0.038,0.141,0.09,0.193,0.104c0.186,0.111,0.409,0.163,0.625,0.208
		c0.2,0.015,0.409,0.015,0.617-0.045c0.015,0,0.037-0.015,0.067-0.015c0.015,0,0.03-0.022,0.067-0.022
		c0.052-0.015,0.082-0.029,0.141-0.059c0.082-0.037,0.164-0.082,0.23-0.134c0.148-0.112,0.268-0.246,0.349-0.38
		c0.104,0.134,0.208,0.268,0.357,0.38c0.074,0.052,0.164,0.097,0.245,0.134c0.03,0.029,0.082,0.044,0.142,0.059
		c0,0,0.052,0.022,0.066,0.022c0,0,0.052,0.015,0.067,0.015c0.193,0.06,0.394,0.06,0.602,0.045c0.223-0.045,0.432-0.097,0.617-0.208
		c0.074-0.015,0.141-0.066,0.193-0.104c0,0,0.021,0,0.037-0.015c0.045-0.029,0.097-0.06,0.163-0.111
		c0.075-0.037,0.149-0.119,0.216-0.179c0.06-0.081,0.127-0.178,0.208-0.282c0.044-0.104,0.097-0.223,0.148-0.356
		c0.03-0.126,0.067-0.26,0.082-0.416c0-0.156,0-0.298-0.015-0.469c-0.022-0.156-0.053-0.305-0.104-0.445
		c-0.044-0.134-0.097-0.268-0.171-0.379l-0.021-0.016c0.125-0.015,0.26-0.029,0.408-0.066c0.342-0.067,0.684-0.179,0.988-0.342
		c0.312-0.193,0.588-0.416,0.825-0.669c0.126-0.148,0.245-0.298,0.327-0.453c0.059-0.067,0.089-0.156,0.141-0.238
		c0.03-0.074,0.067-0.156,0.104-0.245c0.081-0.171,0.111-0.356,0.155-0.535c0.016-0.179,0.03-0.356,0.016-0.55
		c-0.016-0.372-0.141-0.736-0.29-1.063c-0.179-0.326-0.423-0.624-0.69-0.847c-0.119-0.119-0.261-0.201-0.432-0.29
		c-0.037-0.015-0.066-0.037-0.104-0.052c-0.016-0.016-0.03-0.03-0.067-0.03l-0.015-0.022H78.92v-0.015h-0.044l-0.03-0.015
		c-0.015,0-0.037-0.015-0.066-0.015c-0.053-0.037-0.082-0.037-0.119-0.053c-0.178-0.052-0.342-0.089-0.506-0.089
		c-0.163-0.015-0.342,0-0.49,0.022c-0.312,0.029-0.587,0.148-0.811,0.29c-0.244,0.134-0.416,0.312-0.534,0.476
		c-0.104,0.163-0.156,0.297-0.187,0.431v-0.171c-0.021-0.044-0.021-0.141-0.037-0.208c-0.015-0.037-0.015-0.066-0.015-0.066
		l-0.015-0.082l-0.022-0.052c-0.037-0.142-0.067-0.261-0.104-0.401c-0.186-0.513-0.431-0.996-0.75-1.42
		c-0.097-0.126-0.216-0.23-0.297-0.327c0.052-0.074,0.119-0.126,0.186-0.178c0.193,0.066,0.401,0.141,0.602,0.208
		c0.469,0.134,0.967,0.26,1.428,0.342c0.268,0.052,0.512,0.089,0.735,0.104c0.268,0.03,0.505,0.06,0.743,0.06
		c0.988,0.03,1.984-0.089,2.913-0.371c0.93-0.275,1.799-0.685,2.594-1.22c0.788-0.542,1.479-1.219,2.044-1.977
		c0.565-0.735,0.996-1.62,1.271-2.512c0.223-0.685,0.327-1.309,0.327-1.836c0.037-0.513,0-0.959-0.09-1.383
		c-0.066-0.424-0.186-0.803-0.342-1.196s-0.342-0.773-0.602-1.204c-0.275-0.431-0.587-0.877-1.011-1.36
		c-0.208-0.252-0.469-0.513-0.759-0.758c-0.274-0.253-0.594-0.498-0.966-0.751c-0.371-0.245-0.788-0.468-1.249-0.653
		c-0.349-0.119-0.713-0.238-1.085-0.335c-0.119-0.356-0.245-0.735-0.394-1.077c-0.379-0.862-0.833-1.636-1.323-2.356
		c-0.468-0.646-0.966-1.233-1.501-1.754c0.505-0.773,1.062-1.561,1.739-2.371c0.773-0.914,1.649-1.806,2.646-2.668
		c1.019-0.877,2.133-1.68,3.382-2.423c1.241-0.706,2.623-1.36,4.08-1.858c1.465-0.498,3.032-0.877,4.675-1.085
		c1.636-0.186,3.345-0.2,5.076-0.037c1.517,0.179,3.062,0.521,4.534,1.093c0.78,0.476,1.865,1.114,3.055,2.036
		c0.81,0.624,1.643,1.375,2.489,2.274c-0.156,0.498-0.312,1.189-0.408,2.118c-0.127,0.959-0.164,2.2,0.052,3.604
		c0.111,0.729,0.275,1.464,0.506,2.237c0.229,0.78,0.55,1.561,0.966,2.378c0.416,0.803,0.914,1.613,1.531,2.386
		c0.602,0.78,1.308,1.517,2.133,2.2c0.082,0.097,0.171,0.156,0.274,0.223c-0.066,0.603-0.178,1.197-0.305,1.739
		c-0.215,0.877-0.505,1.688-0.795,2.394c-0.572,1.315-1.227,2.363-1.688,3.144c-0.513,0.55-1.062,1.062-1.627,1.517
		c-1.42,1.13-3.003,1.954-4.631,2.452c-1.635,0.521-3.314,0.729-4.935,0.64c-0.208-0.022-0.416-0.022-0.617-0.037
		c-0.208-0.016-0.394-0.03-0.587-0.067c-0.29-0.029-0.587-0.097-0.862-0.171h-0.015c-0.26-0.089-0.654-0.223-1.167-0.468
		c-0.483-0.224-1.07-0.565-1.672-1.026c-0.275-0.245-0.587-0.535-0.877-0.847c-0.282-0.305-0.58-0.684-0.84-1.078
		c-0.261-0.394-0.498-0.847-0.706-1.322c-0.201-0.483-0.364-1.004-0.476-1.546c-0.104-0.558-0.156-1.145-0.142-1.725
		c0.022-0.312,0.037-0.603,0.074-0.914c0.015-0.148,0.045-0.298,0.067-0.446l0.044-0.119c0-0.059,0-0.074,0.016-0.126
		c0.021-0.066,0.037-0.126,0.052-0.2c0.163-0.595,0.401-1.189,0.743-1.725s0.772-1.025,1.293-1.457
		c0.513-0.416,1.093-0.78,1.731-1.018c0.64-0.23,1.323-0.38,2.037-0.409c0.342,0,0.698,0.015,1.04,0.066
		c0.089,0,0.164,0.016,0.26,0.038c0.053,0,0.09,0.015,0.119,0.015c0.053,0.022,0.082,0.022,0.127,0.037
		c0.171,0.037,0.326,0.089,0.476,0.134c0.639,0.215,1.204,0.572,1.687,0.98c0.461,0.454,0.825,0.967,1.101,1.517
		c0.26,0.564,0.416,1.174,0.445,1.746c0.016,0.298,0,0.588-0.029,0.885c-0.022,0.06-0.022,0.142-0.037,0.208
		c0,0.067-0.015,0.134-0.03,0.201c-0.037,0.141-0.074,0.26-0.104,0.394c-0.179,0.498-0.453,0.966-0.795,1.33
		c-0.343,0.372-0.751,0.654-1.189,0.862c-0.424,0.201-0.87,0.305-1.309,0.342c-0.215,0-0.423,0-0.653-0.015
		c-0.082-0.022-0.179-0.037-0.29-0.06c-0.104-0.022-0.186-0.037-0.275-0.066c-0.356-0.104-0.691-0.261-0.943-0.461
		c-0.253-0.208-0.461-0.453-0.64-0.669c-0.148-0.261-0.268-0.49-0.356-0.714c-0.067-0.215-0.119-0.445-0.142-0.616
		c-0.029-0.187-0.029-0.327-0.029-0.461v-0.29v-0.127c-0.015,0-0.037,0.038-0.052,0.104c-0.016,0.067-0.06,0.156-0.075,0.297
		c-0.029,0.134-0.029,0.29-0.029,0.498c0,0.187,0.045,0.409,0.104,0.669c0.066,0.238,0.186,0.513,0.356,0.773
		c0.156,0.274,0.364,0.55,0.661,0.795c0.29,0.216,0.632,0.424,1.025,0.558c0.03,0,0.053,0.022,0.053,0.022
		c0.044,0.015,0.111,0.037,0.141,0.052c0.097,0.015,0.201,0.052,0.312,0.089c0.097,0.016,0.179,0.03,0.305,0.053
		c0.186,0.029,0.379,0.044,0.564,0.044c0.357,0.022,0.729-0.015,1.033-0.081c0.312-0.053,0.603-0.142,0.877-0.246
		c0.238-0.096,0.483-0.223,0.691-0.342c0.201-0.134,0.409-0.245,0.543-0.371c0.342-0.245,0.616-0.506,0.832-0.729
		c0.208-0.238,0.356-0.468,0.521-0.691c0.148-0.215,0.268-0.445,0.371-0.706c0.082-0.237,0.171-0.527,0.224-0.862
		c0.06-0.326,0.066-0.721,0.037-1.174c-0.074-0.609-0.245-1.189-0.498-1.725c-0.261-0.55-0.603-1.048-1.033-1.479
		c-0.416-0.446-0.929-0.825-1.464-1.101c-0.551-0.297-1.16-0.498-1.776-0.587c-0.164-0.052-0.312-0.066-0.461-0.066
		c-0.148-0.016-0.319-0.037-0.461-0.037c-0.327,0-0.632,0-0.959,0.037c-0.639,0.081-1.271,0.223-1.895,0.453
		c-0.588,0.216-1.138,0.505-1.688,0.869c-0.297,0.171-0.572,0.357-0.817,0.588c-0.572,0.468-1.041,1.011-1.42,1.612
		c-0.356,0.587-0.624,1.219-0.788,1.873c-0.052,0.163-0.074,0.327-0.111,0.468c-0.029,0.171-0.044,0.342-0.06,0.498
		c-0.052,0.327-0.066,0.654-0.066,0.981c0,0.632,0.045,1.233,0.163,1.821c0.142,0.587,0.335,1.122,0.551,1.635
		c0.229,0.498,0.49,0.959,0.765,1.382c0.305,0.409,0.617,0.766,0.93,1.093c0.312,0.327,0.653,0.603,0.966,0.833
		c0.23,0.186,0.461,0.319,0.699,0.46c-0.053-0.021-0.104-0.037-0.142-0.052c-1.36-0.654-2.542-1.583-3.493-2.631
		c-0.944-1.056-1.65-2.215-2.126-3.427c-0.482-1.203-0.743-2.438-0.81-3.589c-0.016-0.565,0-1.123,0.029-1.636
		c0.022-0.037,0.037-0.066,0.067-0.119c0.178-0.342,0.386-0.847,0.676-1.434c0.275-0.558,0.64-1.212,1.101-1.881
		c0.49-0.676,1.062-1.33,1.775-1.954c0.699-0.603,1.442-1.078,2.163-1.457c0.743-0.356,1.427-0.632,2.044-0.825
		c0.609-0.186,1.115-0.327,1.501-0.461c0.38-0.141,0.617-0.26,0.64-0.416c0-0.171-0.193-0.364-0.602-0.513
		c-0.424-0.163-1.004-0.298-1.776-0.298c-0.773,0-1.68,0.135-2.669,0.461c-0.958,0.35-1.977,0.914-2.868,1.695
		c-0.914,0.787-1.613,1.701-2.081,2.615c-0.476,0.907-0.751,1.821-0.862,2.558c-0.104,0.772-0.067,1.39,0.029,1.806
		c0.03,0.134,0.06,0.237,0.112,0.327c-0.053,0.513-0.067,1.033-0.053,1.553c0.037,1.241,0.268,2.572,0.773,3.88
		c0.468,1.323,1.219,2.608,2.229,3.754c1.003,1.145,2.274,2.17,3.753,2.92c0.736,0.357,1.531,0.669,2.356,0.893
		c0.416,0.104,0.825,0.186,1.248,0.252c0.23,0.045,0.438,0.06,0.654,0.075c0.23,0.021,0.438,0.052,0.654,0.066
		c1.746,0.104,3.582-0.097,5.351-0.639c1.776-0.528,3.493-1.405,5.002-2.609c0.521-0.401,1.004-0.825,1.465-1.285
		c0.089-0.06,0.141-0.127,0.223-0.179c0.401-0.275,0.862-0.669,1.36-1.204c0.476-0.498,0.996-1.13,1.493-1.896
		c0.483-0.766,0.93-1.664,1.316-2.66c0.096-0.29,0.2-0.587,0.305-0.893c0.498,0.275,1.018,0.498,1.561,0.699
		c0.274,0.111,0.55,0.216,0.825,0.312c0.297,0.089,0.587,0.178,0.861,0.245c1.167,0.274,2.386,0.394,3.627,0.327
		c1.257-0.09,2.513-0.38,3.717-0.862c0.572-0.224,1.114-0.498,1.635-0.803c1.033-0.558,1.977-1.212,2.787-1.933
		c0.892-0.788,1.665-1.688,2.304-2.631c0.32-0.461,0.595-0.967,0.862-1.457c0.134-0.245,0.238-0.521,0.356-0.766
		c0.097-0.252,0.209-0.527,0.298-0.787c0.356-1.063,0.55-2.178,0.55-3.278c0.015-1.092-0.148-2.133-0.476-3.166
		c-0.067-0.327-0.097-0.669-0.097-1.003c0-0.342,0.022-0.684,0.066-0.996c0.104-0.617,0.312-1.182,0.573-1.68
		c0.252-0.506,0.579-0.914,0.929-1.264c0.342-0.342,0.721-0.617,1.077-0.825c0.38-0.2,0.759-0.356,1.123-0.438
		c0.029-0.021,0.081-0.037,0.118-0.052c0.045-0.022,0.082-0.022,0.142-0.037c0.082-0.015,0.171-0.015,0.268-0.037
		c0.156-0.03,0.35-0.03,0.498-0.03c0.35-0.015,0.654,0.016,0.929,0.082c0.298,0.074,0.543,0.171,0.773,0.282
		c0.223,0.097,0.438,0.23,0.616,0.357c0.193,0.134,0.35,0.297,0.506,0.445c0.134,0.156,0.274,0.305,0.379,0.483
		c0.111,0.171,0.208,0.327,0.29,0.49c0.082,0.179,0.178,0.35,0.245,0.543c0.015,0.082,0.045,0.186,0.067,0.275l0.015,0.052
		c0.015,0.052,0.037,0.066,0.037,0.066c0,0.067,0,0.119,0.029,0.156c0.037,0.186,0.052,0.394,0.052,0.603
		c0,0.2-0.015,0.423-0.052,0.639c-0.066,0.29-0.171,0.543-0.327,0.78c-0.148,0.245-0.342,0.453-0.572,0.609
		c-0.215,0.171-0.453,0.275-0.698,0.342c-0.015,0.016-0.052,0.016-0.089,0.03c-0.03,0-0.06,0-0.074,0.015
		c-0.082,0-0.135,0.022-0.179,0.022c-0.119,0-0.245,0-0.35-0.022c-0.2-0.015-0.408-0.097-0.564-0.179
		c-0.187-0.111-0.327-0.23-0.432-0.364c-0.111-0.126-0.186-0.274-0.237-0.431c-0.015-0.052-0.053-0.119-0.053-0.186
		c-0.015-0.015-0.015-0.037-0.015-0.037v-0.037l-0.015-0.037v-0.016v-0.015v-0.052c0-0.097,0.015-0.193,0.029-0.275
		c0.038-0.066,0.053-0.148,0.082-0.223c0.022-0.067,0.053-0.119,0.097-0.186c0.03-0.053,0.03-0.111,0.067-0.179
		c0.015-0.052,0.029-0.119,0.044-0.186c0-0.074,0.022-0.142,0.022-0.238c0,0-0.022-0.178-0.052-0.274c0-0.104-0.052-0.23-0.126-0.35
		c-0.067-0.134-0.149-0.238-0.268-0.29c-0.127-0.052-0.261-0.082-0.417-0.052c-0.171,0.015-0.356,0.082-0.527,0.223
		c-0.179,0.119-0.372,0.312-0.506,0.55c-0.134,0.261-0.223,0.551-0.274,0.862c0,0.171-0.037,0.342,0,0.521
		c0.015,0.179,0.066,0.356,0.119,0.527c0.021,0.03,0.021,0.09,0.037,0.119c0.021,0.022,0.021,0.052,0.021,0.052l0.03,0.053
		l0.022,0.029v0.022l0.015,0.029c0.015,0.037,0.015,0.06,0.029,0.074c0.022,0.038,0.053,0.067,0.067,0.119
		c0.104,0.148,0.193,0.298,0.327,0.424c0.245,0.282,0.535,0.521,0.899,0.677c0.342,0.171,0.735,0.26,1.122,0.274
		c0.179,0.015,0.394-0.015,0.572-0.052c0.193-0.03,0.371-0.082,0.558-0.171c0.081-0.022,0.171-0.052,0.26-0.104
		c0.082-0.052,0.171-0.104,0.238-0.148c0.155-0.111,0.312-0.23,0.445-0.364c0.275-0.237,0.498-0.55,0.669-0.877
		c0.156-0.327,0.275-0.684,0.342-1.07c0.053-0.364,0.037-0.721-0.015-1.1C145.409,93.555,145.395,93.458,145.372,93.361
		 M39.418,96.163c0.037,0.981,0,2.155-0.238,3.508c-0.141,0.669-0.312,1.375-0.572,2.118c-0.252,0.722-0.58,1.472-0.996,2.237
		c-0.416,0.736-0.914,1.486-1.494,2.215c-0.55,0.669-1.189,1.309-1.888,1.91v-0.066c-0.074-1.041-0.045-2.104,0.082-3.211
		c0.119-1.107,0.342-2.229,0.706-3.359c0.327-1.122,0.758-2.186,1.286-3.166c0.506-0.981,1.093-1.888,1.709-2.706
		c0.394-0.505,0.788-0.974,1.197-1.404C39.284,94.722,39.366,95.354,39.418,96.163 M74.208,92.038
		c-0.097-0.297-0.142-0.602-0.164-0.862c-0.015-0.274-0.015-0.527,0.022-0.787c0.03-0.245,0.067-0.469,0.142-0.691
		c0.067-0.223,0.148-0.416,0.23-0.617c0.097-0.171,0.193-0.349,0.297-0.513c0.126,0.164,0.208,0.342,0.305,0.513
		c0.097,0.201,0.179,0.395,0.23,0.617c0.067,0.223,0.119,0.446,0.149,0.691c0.037,0.26,0.037,0.513,0,0.787
		c0,0.261-0.067,0.565-0.149,0.862c-0.082,0.29-0.215,0.603-0.394,0.914c-0.037,0.067-0.096,0.112-0.141,0.179
		c-0.037-0.066-0.082-0.111-0.134-0.179C74.424,92.641,74.29,92.328,74.208,92.038 M72.536,95.22c0.565-0.23,1.1-0.535,1.561-0.914
		c0.126-0.119,0.223-0.209,0.342-0.327l0.045-0.053l0.03-0.015c0.037-0.037,0.052-0.066,0.089-0.111
		c0.052-0.045,0.097-0.097,0.134-0.148c0.045,0.052,0.104,0.104,0.141,0.148c0.03,0.045,0.052,0.074,0.082,0.111l0.052,0.015
		l0.03,0.053c0.112,0.118,0.23,0.208,0.327,0.327c0.491,0.379,1.026,0.684,1.568,0.914c0.387,0.134,0.758,0.223,1.138,0.312
		c-0.142,0.016-0.245,0.03-0.38,0.045c-0.824,0.163-1.857,0.431-2.958,0.951c-1.1-0.521-2.111-0.788-2.958-0.951
		c-0.134-0.015-0.245-0.029-0.356-0.045C71.8,95.442,72.172,95.354,72.536,95.22 M74.736,97.093
		c0.483,0.274,0.974,0.572,1.479,0.929c0.446,0.327,0.893,0.706,1.338,1.114c-1.078,1.873-1.731,3.635-2.133,5.069
		c-0.409,1.486-0.58,2.66-0.669,3.448c0,0.074,0,0.156-0.015,0.238c0-0.082,0-0.164-0.022-0.238c-0.06-0.788-0.23-1.962-0.647-3.448
		c-0.416-1.435-1.07-3.196-2.14-5.069c0.453-0.408,0.884-0.787,1.338-1.114C73.77,97.665,74.26,97.367,74.736,97.093 M69.935,96.2
		c-0.163-0.23-0.372-0.445-0.564-0.669c0.104,0.016,0.238,0.03,0.401,0.045h0.029c0.067,0,0.134,0.015,0.186,0.037
		c0.454,0.052,1.018,0.142,1.724,0.305c0.706,0.193,1.554,0.476,2.445,0.899c-0.401,0.208-0.81,0.446-1.226,0.721
		c-0.446,0.312-0.892,0.654-1.331,1.056C71.131,97.799,70.574,97.011,69.935,96.2 M68.961,103.469
		c0.342-0.81,0.736-1.546,1.204-2.229c0.372-0.587,0.825-1.107,1.271-1.583c1.033,1.717,1.717,3.33,2.17,4.697
		c0.29,0.907,0.49,1.665,0.654,2.312c-0.178-0.305-0.394-0.646-0.706-0.974c-0.327-0.364-0.766-0.706-1.256-0.981
		c-0.521-0.289-1.123-0.482-1.776-0.572c-0.037-0.015-0.082-0.015-0.111-0.015c-0.052-0.015-0.134-0.015-0.201-0.029
		c-0.149-0.016-0.327-0.016-0.498-0.037h-0.461c-0.193,0.021-0.342,0.037-0.52,0.052C68.805,103.9,68.872,103.678,68.961,103.469
		 M72.313,118.036c-0.126,0.015-0.275,0.015-0.401,0.015h-0.201h-0.193c-0.275,0-0.527-0.029-0.78-0.081
		c-1.041-0.127-2.021-0.483-2.876-0.996c-0.862-0.521-1.598-1.204-2.17-1.984c-0.565-0.788-0.981-1.65-1.219-2.542
		c-0.119-0.446-0.193-0.899-0.223-1.353c0-0.104-0.022-0.23-0.022-0.35v-0.327c0-0.208,0.022-0.423,0.038-0.639
		c0.126-0.825,0.416-1.613,0.825-2.282c0.417-0.669,0.944-1.233,1.554-1.687c0.29-0.208,0.602-0.395,0.906-0.535
		c-0.074,0.223-0.126,0.445-0.156,0.676c-0.082,0.476-0.149,0.974-0.186,1.494c-0.015,0.253-0.037,0.513-0.037,0.773v0.772
		c0.074,1.056,0.275,2.104,0.654,3.129c0.379,1.011,0.921,2.015,1.65,2.898c0.349,0.401,0.706,0.796,1.1,1.175
		c0.684,0.691,1.449,1.293,2.237,1.791C72.64,117.999,72.469,118.021,72.313,118.036 M71.473,125.981
		c-0.26-0.052-0.52-0.179-0.736-0.327c-0.215-0.163-0.423-0.342-0.557-0.55c-0.134-0.23-0.26-0.461-0.312-0.706
		c-0.015-0.022-0.015-0.052-0.015-0.052s-0.015-0.067-0.015-0.119c-0.015-0.052-0.015-0.104-0.015-0.156
		c0-0.104,0-0.208,0.015-0.327c0.03-0.208,0.097-0.394,0.208-0.55c0.097-0.156,0.215-0.29,0.364-0.379
		c0.126-0.119,0.275-0.179,0.386-0.224c0.082-0.021,0.156-0.052,0.208-0.066h0.052h0.022h0.03h0.022h0.015h0.015
		c0.097,0,0.208,0.015,0.29,0.045c0.066,0.021,0.134,0.052,0.193,0.066c0.067,0.045,0.134,0.074,0.186,0.097
		c0.044,0.03,0.097,0.067,0.156,0.082c0.052,0.022,0.134,0.037,0.186,0.052h0.223c0.089,0.015,0.171,0,0.282,0
		c0.097-0.029,0.201-0.052,0.342-0.119c0.119-0.066,0.208-0.141,0.275-0.26c0,0,0.015-0.052,0.03-0.082v0.29
		c0.037,0.268,0.067,0.564,0.156,0.825c0.089,0.274,0.193,0.535,0.327,0.78c0.126,0.23,0.29,0.453,0.468,0.669
		c0.067,0.066,0.148,0.148,0.223,0.216c-0.06,0.06-0.126,0.111-0.193,0.141c-0.111,0-0.275-0.015-0.409-0.015
		c-0.208,0.015-0.401,0.045-0.602,0.097c-0.156,0.037-0.312,0.126-0.483,0.193l-0.037,0.015c-0.03,0.022-0.097,0.037-0.164,0.082
		c-0.074,0.037-0.164,0.089-0.23,0.148c-0.082,0.066-0.156,0.134-0.223,0.2c0,0-0.037,0.016-0.067,0.016
		C71.875,126.048,71.681,126.033,71.473,125.981 M74.156,125.424c-0.141,0.111-0.275,0.193-0.453,0.268
		c-0.149,0.082-0.327,0.127-0.491,0.186c-0.111,0.053-0.193,0.067-0.282,0.09c-0.03,0-0.052,0.015-0.052,0.015
		c-0.052,0-0.067,0-0.089,0.015c-0.044,0-0.082,0.015-0.134,0.015c-0.03,0-0.067,0-0.104,0.022c0.126-0.119,0.223-0.23,0.29-0.297
		c0.156-0.082,0.327-0.148,0.483-0.186c0.193-0.075,0.379-0.104,0.572-0.104C73.978,125.424,74.082,125.424,74.156,125.424
		 M74.736,128.479c-0.037-0.104-0.074-0.193-0.082-0.297c-0.037-0.119-0.052-0.275-0.022-0.409c0-0.06,0.022-0.126,0.03-0.179
		v-0.015c0.037-0.037,0.052-0.066,0.074-0.104c0.03,0.037,0.045,0.066,0.075,0.104l0.015,0.015c0.015,0.053,0.037,0.119,0.037,0.179
		c0.015,0.134,0.015,0.29-0.022,0.409C74.825,128.285,74.781,128.375,74.736,128.479 M77.471,128.025
		c-0.015,0.104-0.052,0.208-0.096,0.29c-0.037,0.111-0.074,0.193-0.127,0.26c-0.089,0.142-0.186,0.245-0.26,0.327
		c-0.067,0.029-0.135,0.082-0.201,0.141c-0.193,0.09-0.379,0.149-0.587,0.172c-0.193,0.029-0.379,0.029-0.55-0.022
		c-0.038-0.015-0.052-0.015-0.052-0.015c-0.037-0.016-0.067-0.016-0.067-0.016c-0.052-0.015-0.111-0.029-0.164-0.052
		c-0.067-0.029-0.148-0.067-0.215-0.142c-0.142-0.089-0.246-0.215-0.327-0.364l-0.015-0.015c0.052-0.111,0.096-0.26,0.119-0.379
		c0.03-0.148,0.03-0.305,0.015-0.453c0-0.06-0.015-0.111-0.038-0.164v-0.052c0,0,0-0.111-0.015-0.208l-0.015-0.015
		c0.015-0.03,0.03-0.052,0.067-0.082c0.066-0.052,0.134-0.148,0.223-0.179c0.104-0.044,0.186-0.096,0.275-0.133
		c0.089-0.016,0.171-0.038,0.238-0.038c0.075-0.015,0.142-0.015,0.193-0.029c0.03,0,0.067-0.015,0.067-0.015
		c0.015-0.037,0-0.06-0.052-0.097c-0.052-0.015-0.119-0.045-0.193-0.06c-0.082-0.022-0.186-0.022-0.305,0
		c-0.119,0.015-0.238,0.06-0.35,0.134c-0.134,0.066-0.215,0.156-0.29,0.26h-0.015c-0.074-0.104-0.171-0.193-0.297-0.26
		c-0.096-0.074-0.215-0.119-0.342-0.134c-0.119-0.022-0.215-0.022-0.327,0c-0.067,0.015-0.134,0.045-0.164,0.06
		c-0.052,0.037-0.067,0.06-0.067,0.06s0.03,0.052,0.082,0.052c0.03,0.015,0.097,0.015,0.164,0.029c0.097,0,0.164,0.022,0.245,0.038
		c0.082,0.037,0.193,0.089,0.275,0.133c0.104,0.03,0.179,0.127,0.246,0.179c0.015,0.03,0.052,0.052,0.052,0.082v0.015
		c-0.037,0.097-0.037,0.156-0.037,0.156v0.104c-0.015,0.053-0.015,0.104-0.03,0.164c-0.022,0.148-0.022,0.305,0.015,0.453
		c0.015,0.119,0.082,0.268,0.134,0.364l-0.022,0.029c-0.074,0.149-0.193,0.275-0.342,0.364c-0.06,0.074-0.126,0.112-0.223,0.142
		c-0.03,0.022-0.082,0.037-0.119,0.052c-0.03,0-0.044,0-0.06,0.016c0,0-0.052,0-0.074,0.015c-0.193,0.052-0.379,0.052-0.572,0.022
		c-0.186-0.022-0.394-0.082-0.565-0.172c-0.067-0.059-0.141-0.111-0.223-0.141c-0.067-0.082-0.156-0.186-0.245-0.327
		c-0.052-0.066-0.082-0.148-0.134-0.26c-0.052-0.082-0.082-0.187-0.104-0.29c-0.03-0.119-0.044-0.238-0.044-0.364
		c0-0.134,0-0.26,0.015-0.394c0-0.134,0.03-0.253,0.067-0.38c0.052-0.118,0.104-0.237,0.148-0.342
		c0.037-0.066,0.075-0.141,0.112-0.186c0.097,0,0.186,0,0.29-0.015c0.089-0.022,0.171-0.037,0.253-0.052
		c0.089-0.037,0.178-0.053,0.26-0.075c0.171-0.044,0.364-0.104,0.52-0.171c0.186-0.066,0.357-0.171,0.535-0.274
		c0.134-0.052,0.253-0.119,0.394-0.171c0.052-0.03,0.134-0.052,0.186-0.067c0.075,0.016,0.141,0.037,0.208,0.067
		c0.134,0.052,0.26,0.119,0.379,0.186c0.171,0.089,0.356,0.193,0.55,0.26c0.148,0.067,0.327,0.127,0.521,0.171
		c0.06,0.022,0.148,0.038,0.253,0.075c0.089,0.015,0.17,0.029,0.26,0.052c0.082,0.015,0.171,0.015,0.268,0.015
		c0.052,0.045,0.089,0.119,0.127,0.186c0.051,0.104,0.104,0.224,0.141,0.342c0.029,0.127,0.045,0.246,0.082,0.38v0.394
		C77.523,127.787,77.486,127.906,77.471,128.025 M74.699,125.409c0.015,0,0.037-0.015,0.037-0.015c0.015,0,0.03,0.015,0.03,0.015
		s-0.015,0.015-0.03,0.015C74.736,125.424,74.714,125.409,74.699,125.409 M75.323,125.424c0.082,0,0.171,0,0.26,0.022
		c0.186,0,0.372,0.029,0.565,0.104c0.171,0.037,0.342,0.104,0.476,0.186c0.097,0.066,0.192,0.178,0.297,0.297
		c-0.015-0.022-0.067-0.022-0.067-0.022c-0.066,0-0.104-0.015-0.155-0.015c-0.037-0.015-0.052-0.015-0.052-0.015
		c-0.053,0-0.067-0.015-0.067-0.015c-0.126-0.022-0.186-0.037-0.298-0.09c-0.17-0.059-0.341-0.104-0.512-0.186
		C75.613,125.617,75.479,125.535,75.323,125.424 M76.007,123.521c0.089-0.261,0.126-0.558,0.142-0.825
		c0.015-0.089,0.015-0.186,0.015-0.29v0.067c0.089,0.134,0.186,0.208,0.312,0.274c0.119,0.067,0.246,0.09,0.342,0.119
		c0.09,0,0.193,0.015,0.261,0h0.245c0.053-0.015,0.119-0.029,0.164-0.052c0.066-0.015,0.119-0.052,0.178-0.082
		c0.053-0.022,0.097-0.052,0.164-0.097c0.052-0.015,0.148-0.045,0.215-0.066c0.067-0.03,0.164-0.045,0.253-0.045h0.052h0.037H78.4
		h0.015h0.015h0.053c0.051,0.015,0.126,0.045,0.193,0.066c0.133,0.045,0.274,0.104,0.408,0.224c0.141,0.089,0.26,0.223,0.35,0.379
		c0.104,0.156,0.186,0.342,0.223,0.55c0.015,0.119,0.015,0.223,0.015,0.327c0,0.052-0.015,0.104-0.015,0.156
		s-0.016,0.074-0.016,0.104c0,0-0.021,0.045-0.021,0.067c-0.066,0.245-0.171,0.476-0.305,0.706c-0.164,0.208-0.35,0.387-0.551,0.55
		c-0.23,0.148-0.49,0.275-0.758,0.327c-0.208,0.052-0.416,0.066-0.602,0.082c-0.029,0-0.053-0.016-0.082-0.016
		c-0.074-0.066-0.148-0.134-0.215-0.2c-0.082-0.06-0.156-0.111-0.224-0.148c-0.067-0.045-0.134-0.06-0.186-0.082l-0.037-0.015
		c-0.156-0.067-0.312-0.156-0.483-0.193c-0.186-0.052-0.394-0.082-0.58-0.097c-0.141,0-0.297,0.015-0.431,0.015
		c-0.052-0.029-0.126-0.081-0.193-0.141c0.082-0.067,0.179-0.149,0.246-0.216c0.171-0.216,0.327-0.438,0.46-0.669
		C75.821,124.057,75.925,123.796,76.007,123.521 M75.368,120.34c0.193,0.357,0.312,0.722,0.401,1.086
		c0,0.037,0.015,0.066,0.015,0.118c0.022,0.03,0.037,0.082,0.037,0.082c0.015,0.142,0.015,0.208,0.052,0.298
		c0.015,0.171,0.015,0.342,0.015,0.497c0,0.312-0.052,0.617-0.119,0.87c-0.089,0.268-0.171,0.505-0.275,0.729
		c-0.126,0.223-0.26,0.408-0.379,0.587c-0.119,0.134-0.238,0.268-0.379,0.379c-0.134-0.111-0.238-0.245-0.364-0.379
		c-0.112-0.179-0.26-0.364-0.372-0.587c-0.104-0.224-0.215-0.461-0.282-0.729c-0.067-0.253-0.111-0.558-0.111-0.87
		c0-0.155,0-0.326,0.015-0.497c0.015-0.09,0.015-0.156,0.03-0.261c0.022-0.037,0.022-0.089,0.037-0.119
		c0-0.052,0.015-0.081,0.015-0.118c0.104-0.364,0.23-0.729,0.409-1.086c0.164-0.312,0.372-0.602,0.624-0.898
		C74.996,119.738,75.219,120.028,75.368,120.34 M74.662,119.003c0.022-0.022,0.052-0.022,0.074-0.037
		c0.03,0.015,0.075,0.015,0.089,0.037c-0.044,0.029-0.06,0.066-0.089,0.097C74.714,119.069,74.684,119.032,74.662,119.003
		 M81.648,112.12c0.379-1.025,0.602-2.073,0.653-3.129c0.015-0.253,0.015-0.513,0.015-0.772c0-0.261-0.015-0.521-0.029-0.773
		c-0.037-0.521-0.104-1.019-0.186-1.494c-0.06-0.245-0.127-0.453-0.179-0.69c0.312,0.155,0.64,0.342,0.914,0.55
		c0.617,0.453,1.145,1.018,1.561,1.687c0.417,0.669,0.706,1.457,0.811,2.282c0.037,0.216,0.052,0.431,0.052,0.639v0.327
		c0,0.119-0.015,0.245-0.015,0.35c-0.06,0.453-0.104,0.906-0.223,1.353c-0.245,0.892-0.654,1.754-1.241,2.542
		c-0.565,0.78-1.309,1.464-2.163,1.984c-0.862,0.513-1.843,0.869-2.854,0.996c-0.268,0.052-0.542,0.081-0.772,0.081h-0.208h-0.215
		c-0.127,0-0.268,0-0.395-0.015c-0.164-0.015-0.342-0.037-0.49-0.052c0.787-0.498,1.538-1.1,2.236-1.791
		c0.395-0.379,0.751-0.773,1.078-1.175C80.719,114.135,81.27,113.131,81.648,112.12 M81.009,104.934
		c0.104,0.379,0.208,0.758,0.261,1.151c0.104,0.469,0.155,0.922,0.17,1.412c0.022,0.23,0.037,0.498,0.037,0.722v0.192v0.164
		c0,0.119-0.015,0.245-0.015,0.364c-0.074,0.959-0.274,1.925-0.632,2.869c-0.356,0.929-0.885,1.82-1.516,2.652
		c-0.669,0.788-1.472,1.509-2.379,2.097c-0.684,0.431-1.404,0.78-2.2,1.025c-0.773-0.245-1.509-0.595-2.185-1.025
		c-0.921-0.588-1.702-1.309-2.371-2.097c-0.654-0.832-1.167-1.724-1.531-2.652c-0.357-0.944-0.572-1.91-0.617-2.869
		c0-0.119-0.022-0.245-0.022-0.364v-0.164v-0.192c0-0.224,0-0.491,0.022-0.722c0.03-0.49,0.089-0.943,0.171-1.412
		c0.052-0.394,0.171-0.772,0.26-1.151c0.03,0,0.067-0.016,0.082-0.037c0.327-0.082,0.669-0.134,0.981-0.171
		c0.171,0,0.327-0.016,0.498-0.016c0.141,0,0.29,0,0.454,0.016c0.564,0.037,1.092,0.208,1.561,0.431
		c0.483,0.223,0.877,0.535,1.204,0.84c0.327,0.312,0.587,0.64,0.773,0.966c0.178,0.327,0.305,0.64,0.409,0.915
		c0.089,0.26,0.141,0.49,0.178,0.698c0.052,0.193,0.082,0.35,0.097,0.446c0.015,0.104,0.015,0.155,0.015,0.155
		c0.037,0,0.052-0.052,0.067-0.155c0.03-0.097,0.059-0.253,0.096-0.446c0.03-0.208,0.082-0.438,0.179-0.698
		c0.097-0.275,0.23-0.588,0.438-0.915c0.171-0.326,0.431-0.653,0.736-0.966c0.326-0.305,0.742-0.617,1.211-0.84
		c0.453-0.223,0.988-0.394,1.576-0.431c0.133-0.016,0.297-0.016,0.445-0.016c0.178,0,0.327,0.016,0.482,0.016
		c0.328,0.037,0.654,0.089,0.982,0.171C80.965,104.918,80.994,104.934,81.009,104.934 M79.329,101.239
		c0.461,0.684,0.862,1.42,1.204,2.229c0.082,0.209,0.148,0.432,0.223,0.64c-0.171-0.015-0.35-0.03-0.513-0.052H79.76
		c-0.17,0.021-0.326,0.021-0.482,0.037c-0.074,0.015-0.142,0.015-0.209,0.029c-0.029,0-0.066,0-0.118,0.015
		c-0.654,0.09-1.233,0.283-1.754,0.572c-0.498,0.275-0.944,0.617-1.271,0.981c-0.297,0.327-0.505,0.646-0.691,0.974
		c0.134-0.646,0.349-1.42,0.654-2.312c0.446-1.367,1.137-2.98,2.17-4.697C78.496,100.132,78.936,100.652,79.329,101.239
		 M79.537,96.2c-0.646,0.811-1.189,1.599-1.657,2.394c-0.438-0.401-0.87-0.743-1.323-1.056c-0.424-0.274-0.825-0.513-1.233-0.721
		c0.892-0.424,1.739-0.706,2.46-0.899c0.684-0.163,1.271-0.253,1.694-0.305c0.075-0.022,0.142-0.037,0.193-0.037h0.037
		c0.171-0.015,0.29-0.029,0.394-0.045C79.916,95.755,79.723,95.97,79.537,96.2 M115.264,108.085l-0.015,0.029
		c-0.706-0.564-1.33-1.204-1.896-1.873c-0.564-0.729-1.062-1.479-1.472-2.215c-0.416-0.766-0.75-1.516-1.003-2.237
		c-0.26-0.743-0.446-1.449-0.564-2.118c-0.261-1.353-0.29-2.526-0.224-3.508c0.03-0.81,0.119-1.441,0.187-1.925
		c0.4,0.431,0.81,0.899,1.188,1.404c0.617,0.818,1.204,1.725,1.717,2.706c0.513,0.98,0.951,2.044,1.294,3.166
		c0.363,1.13,0.564,2.252,0.706,3.359C115.301,105.981,115.316,107.044,115.264,108.085"/>
	<polygon fill="#00B9F1" points="79.121,90.01 79.136,89.994 79.121,89.994 	"/>
	<path fill="#00B9F1" d="M41.172,59.195l61.457,8.681c2.268-17.592-3.82-34.232-14.99-46.354
		c16.536,9.231,26.666,27.789,24.14,47.648l8.732,1.219c3.523-25.054-13.378-48.28-38.038-52.858l0.016-0.134l0.431-3.01
		c0.966,0.119,1.917,0.268,2.876,0.394c1.286,0.149,2.074-0.669,1.732-1.806c-0.327-1.174-1.286-2.549-2.186-2.943
		c-2.4-0.974-5.017-1.353-7.604-1.085c-0.973,0.141-2.281,1.204-2.92,2.222c-0.632,1.018-0.112,2.014,1.174,2.229
		c0.959,0.141,1.91,0.26,2.876,0.401l-0.446,3.151c-24.957-2.445-47.64,15.214-51.178,40.283L41.172,59.195z"/>
	<path fill="#00B9F1" d="M123.625,73.658H40.377H23.32c-1.13,0-2.044,0.907-2.044,2.059c0,1.101,0.914,2.052,2.044,2.052h17.354
		h82.951c1.13,0,2.044-0.951,2.044-2.052C125.669,74.565,124.755,73.658,123.625,73.658"/>
</g>
</svg>
