<?xml version="1.0" encoding="utf-8"?>
<!-- Generator: Adobe Illustrator 16.0.0, SVG Export Plug-In . SVG Version: 6.00 Build 0)  -->
<!DOCTYPE svg PUBLIC "-//W3C//DTD SVG 1.1//EN" "http://www.w3.org/Graphics/SVG/1.1/DTD/svg11.dtd">
<svg version="1.1" id="Layer_1" xmlns="http://www.w3.org/2000/svg" xmlns:xlink="http://www.w3.org/1999/xlink" x="0px" y="0px"
	 width="100px" height="100px" viewBox="0 0 100 100" enable-background="new 0 0 100 100" xml:space="preserve">
<g>
	<g>
		<g>
			<radialGradient id="SVGID_1_" cx="54.6533" cy="-29.96" r="341.1534" gradientUnits="userSpaceOnUse">
				<stop  offset="0.0061" style="stop-color:#5F0707"/>
				<stop  offset="1" style="stop-color:#311413"/>
			</radialGradient>
			<path fill="url(#SVGID_1_)" d="M92.56,60.309L5.75,60.79l0.121,3.709l86.457-3.376c0,0,0.907-0.172,0.917-0.422
				C93.254,60.508,92.56,60.309,92.56,60.309z"/>
			<radialGradient id="SVGID_2_" cx="54.6523" cy="-29.9287" r="341.0508" gradientUnits="userSpaceOnUse">
				<stop  offset="0.0061" style="stop-color:#5F0707"/>
				<stop  offset="1" style="stop-color:#311413"/>
			</radialGradient>
			<path fill="url(#SVGID_2_)" d="M92.614,58.522L5.829,56.21l-0.004,3.709l86.531-0.592c0,0,0.907-0.143,0.917-0.388
				C93.291,58.744,92.614,58.522,92.614,58.522z"/>
			<radialGradient id="SVGID_3_" cx="54.6582" cy="-29.9595" r="341.1526" gradientUnits="userSpaceOnUse">
				<stop  offset="0.0061" style="stop-color:#5F0707"/>
				<stop  offset="1" style="stop-color:#311413"/>
			</radialGradient>
			<path fill="url(#SVGID_3_)" d="M20.064,62.987c0,0,4.423,21.059,32.469,20.827c0,0,21.53-1.629,25.953-22.691h5.357
				c0,0,0.573,24.203-31.431,27.813c0,0-32.581,4.071-37.118-25.598"/>
		</g>
		<g>
			<radialGradient id="SVGID_4_" cx="54.6563" cy="-29.9585" r="341.1465" gradientUnits="userSpaceOnUse">
				<stop  offset="0.0061" style="stop-color:#5F0707"/>
				<stop  offset="1" style="stop-color:#311413"/>
			</radialGradient>
			<path fill="url(#SVGID_4_)" d="M46.695,22.951c0,0,2.285,7.518-2.776,12.505c0,0-5.317,4.982,2.119,7.924
				c0,0,9.076,3.924-2.692,12.26c0,0-0.972-1.13,3.1-4.825c0.694-0.629,2.258-2.586-0.944-3.627
				c-2.165-0.704-7.622-1.458-4.935-7.657c0.669-1.545,1.446-2.642,3.556-5.708c1.119-1.615,1.813-3.965,0.509-7.823L46.695,22.951z
				"/>
			<radialGradient id="SVGID_5_" cx="54.6553" cy="-29.9609" r="341.159" gradientUnits="userSpaceOnUse">
				<stop  offset="0.0061" style="stop-color:#5F0707"/>
				<stop  offset="1" style="stop-color:#311413"/>
			</radialGradient>
			<path fill="url(#SVGID_5_)" d="M50.47,22.327c0,0,2.775,5.39-0.379,9.868c0,0-3.35,4.515,2.701,5.722c0,0,7.421,1.726-0.36,9.674
				c0,0-0.889-0.727,1.693-4.095c0.435-0.569,1.351-2.271-1.212-2.618c-1.749-0.236-5.997-0.06-4.803-5.13
				c0.297-1.263,0.731-2.197,1.916-4.821c0.619-1.374,0.823-3.257-0.704-6.004L50.47,22.327z"/>
		</g>
		<g>
			<radialGradient id="SVGID_6_" cx="54.6523" cy="-29.9658" r="341.1685" gradientUnits="userSpaceOnUse">
				<stop  offset="0.0061" style="stop-color:#5F0707"/>
				<stop  offset="1" style="stop-color:#311413"/>
			</radialGradient>
			<path fill-rule="evenodd" clip-rule="evenodd" fill="url(#SVGID_6_)" d="M32.555,27.651c-1.536-1.485-3.886-1.439-4.834-3.992
				c3.142-4.756,6.352-0.181,11.566-0.759c6.826-0.754,9.148-7.102,13.729-8.665c8.854-3.021,12.935,8.285,8.66,13.726
				c3.284-0.865,3.433-3.502,4.154-5.787c0.805-8.753-6.394-12.283-12.028-11.353c-6.319,1.054-8.919,7.855-14.015,9.21
				c-3.123,0.828-14.536-4.607-14.772,2.17C24.866,26.546,30.598,27.596,32.555,27.651z"/>
			<radialGradient id="SVGID_7_" cx="54.6563" cy="-29.9619" r="341.1613" gradientUnits="userSpaceOnUse">
				<stop  offset="0.0061" style="stop-color:#5F0707"/>
				<stop  offset="1" style="stop-color:#311413"/>
			</radialGradient>
			<path fill-rule="evenodd" clip-rule="evenodd" fill="url(#SVGID_7_)" d="M33.744,26.43c0,0,3.9,2.452,3.576,9.97
				C37.353,36.173,41.132,29.521,33.744,26.43z"/>
			<radialGradient id="SVGID_8_" cx="54.6553" cy="-29.98" r="341.2685" gradientUnits="userSpaceOnUse">
				<stop  offset="0.0061" style="stop-color:#5F0707"/>
				<stop  offset="1" style="stop-color:#311413"/>
			</radialGradient>
			<path fill-rule="evenodd" clip-rule="evenodd" fill="url(#SVGID_8_)" d="M61.359,26.624c0,0-4.977,2.601-4.626,9.235
				C56.733,35.859,52.765,28.526,61.359,26.624z"/>
		</g>
	</g>
</g>
</svg>
