<?xml version="1.0" encoding="utf-8"?>
<!-- Generator: Adobe Illustrator 16.0.0, SVG Export Plug-In . SVG Version: 6.00 Build 0)  -->
<!DOCTYPE svg PUBLIC "-//W3C//DTD SVG 1.1//EN" "http://www.w3.org/Graphics/SVG/1.1/DTD/svg11.dtd">
<svg version="1.1" id="Layer_1" xmlns="http://www.w3.org/2000/svg" xmlns:xlink="http://www.w3.org/1999/xlink" x="0px" y="0px"
	 width="100px" height="100px" viewBox="0 0 100 100" enable-background="new 0 0 100 100" xml:space="preserve">
<g>
	<path fill-rule="evenodd" clip-rule="evenodd" fill="#57632C" d="M32.797,72.708c-0.87-1.879-1.178-3.829-1.197-5.838
		c-0.008-0.708,0.472-0.825,1.025-0.954c5.904-1.376,11.266-3.932,16.215-7.414c0.768-0.541,0.987-1.049,0.839-1.996
		c-1.354-8.646-3.604-17.03-7.784-24.751c-2.415-4.458-5.261-8.685-7.932-13.001c-1.295-2.09-2.637-4.157-3.95-6.235
		c-0.109-0.168-0.188-0.355-0.117-0.64c0.792,0.983,1.607,1.946,2.363,2.957c3.623,4.839,7.433,9.554,10.794,14.569
		c5,7.46,7.683,15.879,9.25,24.672c0.219,1.226,0.395,2.458,0.507,3.19c0.995-3.517,1.966-7.519,3.253-11.41
		c1.926-5.818,5.167-10.954,8.836-15.817c2.461-3.256,5.007-6.445,7.519-9.659c0.141-0.184,0.32-0.343,0.554-0.464
		C65.082,31.759,57.996,43.953,55.578,58.19c1.455-0.839,2.914-1.681,4.372-2.523C58.309,60.405,41.025,71.106,32.797,72.708z"/>
	<path fill-rule="evenodd" clip-rule="evenodd" fill="#DF2727" d="M33.876,74.729c1.229-0.296,2.422-0.573,3.608-0.877
		c10.809-2.762,19.432-8.7,25.815-17.857c0.519-0.744,1.123-0.869,1.829-0.647c1.295,0.407,2.554,0.925,3.837,1.389
		c0.683,0.246,0.675,0.641,0.366,1.217c-1.828,3.408-4.195,6.399-7.038,9.005c-6.751,6.191-14.776,10.131-23.328,13.119
		c-0.272,0.096-0.764,0.096-0.913-0.075c-1.388-1.583-2.726-3.213-4.067-4.836C33.92,75.084,33.928,74.939,33.876,74.729z"/>
	<path fill-rule="evenodd" clip-rule="evenodd" fill="#89A33C" d="M71.298,58.568c0.994,0.877,1.704,1.919,2.168,3.108
		c0.105,0.266-0.062,0.663-0.167,0.982c-1.755,5.242-4.922,9.535-8.915,13.274c-5.167,4.832-11.208,8.256-17.669,11.001
		c-0.3,0.13-0.847,0.099-1.073-0.098c-1.715-1.489-3.385-3.038-5.062-4.57c-0.063-0.059-0.085-0.155-0.148-0.276
		C54.146,78.746,64.836,71.527,71.298,58.568z"/>
	<path fill-rule="evenodd" clip-rule="evenodd" fill="#8BC53F" d="M45.802,30.171c-1.096-1.025-2.227-1.942-3.194-3.002
		c-4.02-4.426-5.139-9.757-4.671-15.541c0.226-2.807,0.733-5.557,1.739-8.197c0.121-0.312,0.257-0.62,0.386-0.936
		C46.161,5.756,49.737,22.708,45.802,30.171z"/>
	<path fill-rule="evenodd" clip-rule="evenodd" fill="#8BC53F" d="M37.41,41.582c-3.042,0.031-5.393-1.342-7.413-3.354
		c-1.935-1.93-3.42-4.181-4.504-6.7c-0.277-0.639-0.152-0.904,0.507-1.15c5.51-2.05,11.079-0.495,15.139,4.353
		c1.01,1.208,1.825,2.585,2.73,3.888c0.324,0.464,0.312,0.808-0.258,1.116C41.649,40.798,39.629,41.625,37.41,41.582z"/>
	<path fill-rule="evenodd" clip-rule="evenodd" fill="#F49293" d="M74.484,64.438c0.495,2.134,0.455,4.234-0.184,6.322
		c-1.182,3.871-3.614,6.926-6.485,9.646c-3.097,2.934-6.349,5.702-9.382,8.696c-1.74,1.716-3.19,3.725-4.738,5.635
		c-0.581,0.719-0.574,0.706-1.15-0.05c-1.018-1.334-2.11-2.609-3.174-3.907c-0.332-0.402-0.675-0.795-1.104-1.307
		C60.531,84.72,70.104,77.299,74.484,64.438z"/>
	<path fill-rule="evenodd" clip-rule="evenodd" fill="#8BC53F" d="M64.485,29.563c-5.413-2.886-7.417-13.485-3.72-19.397
		C65.004,12.377,67.195,23.686,64.485,29.563z"/>
	<path fill-rule="evenodd" clip-rule="evenodd" fill="#8BC53F" d="M50.119,42.318c-2.293-6.895,1.1-13.836,7.081-16.542
		C59.428,29.953,54.596,41.242,50.119,42.318z"/>
	<path fill-rule="evenodd" clip-rule="evenodd" fill="#8BC53F" d="M65.055,36.141c1.931-5.806,10.743-9.702,16.27-7.253
		C79.779,33.509,70.413,37.705,65.055,36.141z"/>
	<path fill-rule="evenodd" clip-rule="evenodd" fill="#F49293" d="M32.29,63.326c0.772-3.311,2.843-5.49,5.803-6.95
		c3.186-1.566,6.224-1.528,8.634-0.299C42.226,59.224,37.355,61.427,32.29,63.326z"/>
	<path fill-rule="evenodd" clip-rule="evenodd" fill="#8BC53F" d="M60.465,45.36c1.571-4.344,7.382-6.921,11.695-5.245
		C71.45,43.41,64.298,46.639,60.465,45.36z"/>
	<path fill-rule="evenodd" clip-rule="evenodd" fill="#8BC53F" d="M46.898,50.801c-4.571,1.188-9.874-1.908-11.09-6.427
		C38.736,42.931,45.568,46.854,46.898,50.801z"/>
</g>
</svg>
