<?xml version="1.0" encoding="utf-8"?>
<!-- Generator: Adobe Illustrator 18.1.0, SVG Export Plug-In . SVG Version: 6.00 Build 0)  -->
<svg version="1.1" id="Layer_1" xmlns="http://www.w3.org/2000/svg" xmlns:xlink="http://www.w3.org/1999/xlink" x="0px" y="0px"
	 viewBox="0 0 300 300" enable-background="new 0 0 300 300" xml:space="preserve">
<g>
	<path fill="none" d="M181.7,122.3c-9.9-5.4-22-4.6-31,2.3c-3.1,2.4-5.7,5.4-7.7,8.9c-7.6,13.7-2.6,31.1,11.2,38.7
		c9.9,5.4,22,4.6,31-2.3c3.1-2.4,5.7-5.4,7.7-8.9c3.7-6.7,4.5-14.3,2.4-21.7C193.2,132,188.3,125.9,181.7,122.3z M171.9,165.6
		c-7.6-2.4-13.1-8.1-15.4-14.8c-1.6,0.1-3.2-1.8-3.6-3.8c0,0,0.1,0,0.1,0s0,0.1,0,0.1c0,0,0,0,0,0c0,0-0.1,0-0.1,0
		c-0.7-4.2,0.6-10.3,1-10.1c0.1,0.1-1,6.1,0,10.1c0.2,0,0.4,0,0.6,0c-0.7-3.8,0.3-9.4,0.7-9.3c0.1,0.1-0.7,5.7,0.4,9.3
		c0.2,0,0.4,0,0.6,0c-0.8-3.4,0-8.6,0.4-8.5c0.1,0.1-0.4,5.3,0.7,8.5c0.2,0,0.4,0,0.6,0c-0.8-3-0.3-7.8,0.1-7.7
		c0.1,0.2-0.2,4.6,1,7.6c0,0,0,0,0,0c0,0,0,0,0,0c0,0,0,0,0,0h0c0.3,1-0.1,2.8-1.4,3.6c2.7,6,7.9,10.5,14.2,11.9
		c0.5,0.1,1.3,1,1.4,1.9C173.3,165.3,172.6,165.8,171.9,165.6z M183.4,158.4c-2.1-1.3-3.3-5.5-3.9-7.6c-0.5-2.1,0.4-4.1,2.4-5.2
		c-2.7-6.5-8.3-11.4-15.2-12.9c-0.5-0.1-1.3-0.9-1.4-1.7c-0.1-0.8,0.8-1.3,1.5-1.1c7.9,2.4,13.7,8.4,16.1,15.4
		c2.3-0.4,5,2.3,5.1,5.9C188.2,155.1,185.6,159.6,183.4,158.4z"/>
	<path fill="#E46D25" d="M96.3,147.5c-11.2,35.3-72.2,36.9-72.2,36.9c16.6,6.6,58.6-5.9,58.6-5.9c16.7-4.7,31.9-9.7,45.8-14.8
		c-2.1-5-3.2-10.5-3.2-16.3c0-23.4,19-42.3,42.3-42.3c16.3,0,30.4,9.2,37.5,22.7c18.7-11,28.1-18.7,28.1-18.7
		c-48.5,1.8-32.6-35.9-32.6-35.9c-1.7-1.7-12.6-6.7-12.6-6.7c-7.7,14.2-23.5,15.9-23.5,15.9c-21,0.1-24.2-22.5-24.2-22.5
		c-9.2-0.3-20.4,5.5-20.4,5.5c9.4,19.6-4.1,31.6-4.1,31.6C101.1,111.2,81,94.6,81,94.6c-5.5,6.5-11.3,20.7-11.3,20.7
		C97.6,125.9,96.3,147.5,96.3,147.5z"/>
	<path fill="#E46D25" d="M206.6,69.2l0.8,5.3c109.3-22.8,36.4,35.3,36.4,35.3c-11.9,9.1-23.9,17.3-35.8,24.5
		c1.3,4.1,2.1,8.5,2.1,13.1c0,23.4-19,42.3-42.3,42.3c-14.9,0-27.9-7.6-35.5-19.2c-52.6,19.1-91.9,22.3-91.9,22.3
		c-16.8,0-23.8-3.8-24.6-8.8c0,0,0,0,0.1,0c-2.7-18,58-54.6,58-54.6l-2.3-2.8C31.6,147.9,11.8,175,11.8,175c-1.8,3.2-3.1,6-3.9,9
		c0,0,0,0-0.1,0c-13.2,41,80.6,13.7,80.6,13.7c20.5-6.1,30.8,1.4,30.8,1.4c22.8,14.4,9.4,45.9,9.4,45.9l24,5.3
		c15.6-59.6,51.3-17.5,51.3-17.5l14-11.8c-19.4-44.4,23.5-40.6,23.5-40.6l3-13.7c-26.6-10.6-19.4-31.1-19.4-31.1
		c30.8-19.4,42.4-32.3,42.4-32.3C315.7,44.1,206.6,69.2,206.6,69.2z"/>
	<path fill="#E46D25" d="M182.8,145.3c-2.4-7-8.2-13-16.1-15.4c-0.7-0.2-1.5,0.2-1.5,1.1c0,0.8,0.8,1.6,1.4,1.7
		c6.9,1.6,12.5,6.4,15.2,12.9c-2,1.1-2.9,3.1-2.4,5.2c0.7,2.1,1.8,6.3,3.9,7.6c2.3,1.2,4.9-3.3,4.6-7.2
		C187.8,147.6,185.1,144.9,182.8,145.3z"/>
	<path fill="#E46D25" d="M171.8,162.5c-6.3-1.4-11.6-5.9-14.2-11.9c1.3-0.8,1.7-2.6,1.4-3.6h0c0,0,0,0,0,0c0,0,0,0,0,0c0,0,0,0,0,0
		c-1.1-3-0.9-7.5-1-7.6c-0.3-0.1-0.9,4.7-0.1,7.7c-0.2,0-0.4,0-0.6,0c-1.1-3.1-0.6-8.3-0.7-8.5c-0.3-0.1-1.2,5.1-0.4,8.5
		c-0.2,0-0.4,0-0.6,0c-1.1-3.5-0.3-9.1-0.4-9.3c-0.3-0.2-1.4,5.5-0.7,9.3c-0.2,0-0.4,0-0.6,0c-1.1-3.9,0-10-0.1-10.1
		c-0.3-0.2-1.7,5.9-0.9,10.1c0,0,0.1,0,0.1,0c0,0,0,0,0,0c0,0,0-0.1,0-0.1s-0.1,0-0.1,0c0.5,2,2,3.9,3.6,3.8
		c2.3,6.6,7.8,12.4,15.4,14.7c0.6,0.2,1.4-0.3,1.3-1.2C173.1,163.4,172.3,162.6,171.8,162.5z"/>
	<path fill="#8E4A20" d="M186.1,114.3c-13.4-7.4-29.4-5.7-40.9,3c-4,3.1-7.5,7-10.1,11.7c-10,18.2-3.4,41,14.7,51
		c13.4,7.4,29.4,5.7,40.9-3c4-3.1,7.5-7,10.1-11.7C210.8,147.2,204.2,124.3,186.1,114.3z M192.8,160.9c-1.9,3.5-4.5,6.5-7.7,8.9
		c-9,6.8-21.1,7.7-31,2.3c-13.7-7.6-18.8-24.9-11.2-38.7c1.9-3.5,4.5-6.5,7.7-8.9c9-6.8,21.2-7.7,31-2.3c6.7,3.7,11.5,9.7,13.6,17
		C197.4,146.6,196.5,154.3,192.8,160.9z"/>
</g>
</svg>
