<?xml version="1.0" encoding="utf-8"?>
<!-- Generator: Adobe Illustrator 16.0.0, SVG Export Plug-In . SVG Version: 6.00 Build 0)  -->
<!DOCTYPE svg PUBLIC "-//W3C//DTD SVG 1.1//EN" "http://www.w3.org/Graphics/SVG/1.1/DTD/svg11.dtd">
<svg version="1.1" id="Layer_1" xmlns="http://www.w3.org/2000/svg" xmlns:xlink="http://www.w3.org/1999/xlink" x="0px" y="0px"
	 width="100px" height="100px" viewBox="0 0 100 100" enable-background="new 0 0 100 100" xml:space="preserve">
<g>
	<radialGradient id="SVGID_1_" cx="51.2725" cy="30.144" r="63.1286" gradientUnits="userSpaceOnUse">
		<stop  offset="0" style="stop-color:#FFFFFF"/>
		<stop  offset="0.02" style="stop-color:#FCD7D8"/>
		<stop  offset="0.0454" style="stop-color:#F8ABAE"/>
		<stop  offset="0.0728" style="stop-color:#F58589"/>
		<stop  offset="0.1017" style="stop-color:#F2646A"/>
		<stop  offset="0.1328" style="stop-color:#F04A50"/>
		<stop  offset="0.1667" style="stop-color:#EE353C"/>
		<stop  offset="0.205" style="stop-color:#ED272F"/>
		<stop  offset="0.2512" style="stop-color:#EC1F26"/>
		<stop  offset="0.3273" style="stop-color:#EC1C24"/>
		<stop  offset="0.355" style="stop-color:#E31B23"/>
		<stop  offset="0.5078" style="stop-color:#B81620"/>
		<stop  offset="0.6269" style="stop-color:#9D121E"/>
		<stop  offset="0.697" style="stop-color:#93111D"/>
		<stop  offset="0.9818" style="stop-color:#6E0008"/>
	</radialGradient>
	<path fill-rule="evenodd" clip-rule="evenodd" fill="url(#SVGID_1_)" d="M78.043,26.104c-3.679,3.142-7.073,6.118-10.553,8.994
		c-3.068,2.543-5.154,5.359-3.631,9.628c0.139,0.387-0.175,1.137-0.518,1.463c-4.568,4.278-9.181,8.514-13.911,12.874
		c-4.512-4.196-8.921-8.287-13.32-12.375c3.154-6.782,1.041-12.071-7.086-16.367c-2.157-1.142-4.561-1.814-7.571-2.977
		c2.898-0.985,5.389-2.347,7.983-2.586c3.397-0.308,6.912,0.031,10.3,0.561c2.586,0.403,4.809,1.58,5.954,4.495
		c0.751,1.905,2.469,3.48,3.948,5.021c0.417,0.433,1.853,0.585,2.234,0.229c2.946-2.708,5.649-5.679,8.644-8.326
		c1.089-0.959,2.721-1.472,4.191-1.801C69.121,23.951,73.486,24.086,78.043,26.104z"/>
	<radialGradient id="SVGID_2_" cx="51.2744" cy="30.144" r="63.1253" gradientUnits="userSpaceOnUse">
		<stop  offset="0" style="stop-color:#FFFFFF"/>
		<stop  offset="0.02" style="stop-color:#FCD7D8"/>
		<stop  offset="0.0454" style="stop-color:#F8ABAE"/>
		<stop  offset="0.0728" style="stop-color:#F58589"/>
		<stop  offset="0.1017" style="stop-color:#F2646A"/>
		<stop  offset="0.1328" style="stop-color:#F04A50"/>
		<stop  offset="0.1667" style="stop-color:#EE353C"/>
		<stop  offset="0.205" style="stop-color:#ED272F"/>
		<stop  offset="0.2512" style="stop-color:#EC1F26"/>
		<stop  offset="0.3273" style="stop-color:#EC1C24"/>
		<stop  offset="0.355" style="stop-color:#E31B23"/>
		<stop  offset="0.5078" style="stop-color:#B81620"/>
		<stop  offset="0.6269" style="stop-color:#9D121E"/>
		<stop  offset="0.697" style="stop-color:#93111D"/>
		<stop  offset="0.9818" style="stop-color:#6E0008"/>
	</radialGradient>
	<path fill-rule="evenodd" clip-rule="evenodd" fill="url(#SVGID_2_)" d="M85.826,31.965c5.442,9.268,5.06,17.954,0.036,26.519
		c-4.313,7.343-10.892,12.54-17.562,18.133c-5.375-4.994-10.678-9.924-16.179-15.035c4.547-4.906,8.973-9.679,13.537-14.595
		c4.886,2.265,8.104-0.313,11.03-4.031C79.531,39.346,82.559,35.875,85.826,31.965z"/>
	<radialGradient id="SVGID_3_" cx="51.2715" cy="30.145" r="63.1257" gradientUnits="userSpaceOnUse">
		<stop  offset="0" style="stop-color:#FFFFFF"/>
		<stop  offset="0.02" style="stop-color:#FCD7D8"/>
		<stop  offset="0.0454" style="stop-color:#F8ABAE"/>
		<stop  offset="0.0728" style="stop-color:#F58589"/>
		<stop  offset="0.1017" style="stop-color:#F2646A"/>
		<stop  offset="0.1328" style="stop-color:#F04A50"/>
		<stop  offset="0.1667" style="stop-color:#EE353C"/>
		<stop  offset="0.205" style="stop-color:#ED272F"/>
		<stop  offset="0.2512" style="stop-color:#EC1F26"/>
		<stop  offset="0.3273" style="stop-color:#EC1C24"/>
		<stop  offset="0.355" style="stop-color:#E31B23"/>
		<stop  offset="0.5078" style="stop-color:#B81620"/>
		<stop  offset="0.6269" style="stop-color:#9D121E"/>
		<stop  offset="0.697" style="stop-color:#93111D"/>
		<stop  offset="0.9818" style="stop-color:#6E0008"/>
	</radialGradient>
	<path fill-rule="evenodd" clip-rule="evenodd" fill="url(#SVGID_3_)" d="M34.523,47.972c4.196,4.513,8.287,8.913,12.504,13.446
		c-5.197,4.795-10.157,9.372-15.217,14.041c-8.387-7.281-16.778-14.313-18.913-25.913c-0.854-4.629-0.634-9.203,1.289-13.581
		c0.316-0.72,0.776-1.376,1.019-1.792c1.762,3.497,3.276,7.085,5.298,10.366C23.055,48.675,28.448,51.291,34.523,47.972z"/>
	<radialGradient id="SVGID_4_" cx="51.2734" cy="30.1484" r="63.1238" gradientUnits="userSpaceOnUse">
		<stop  offset="0" style="stop-color:#FFFFFF"/>
		<stop  offset="0.02" style="stop-color:#FCD7D8"/>
		<stop  offset="0.0454" style="stop-color:#F8ABAE"/>
		<stop  offset="0.0728" style="stop-color:#F58589"/>
		<stop  offset="0.1017" style="stop-color:#F2646A"/>
		<stop  offset="0.1328" style="stop-color:#F04A50"/>
		<stop  offset="0.1667" style="stop-color:#EE353C"/>
		<stop  offset="0.205" style="stop-color:#ED272F"/>
		<stop  offset="0.2512" style="stop-color:#EC1F26"/>
		<stop  offset="0.3273" style="stop-color:#EC1C24"/>
		<stop  offset="0.355" style="stop-color:#E31B23"/>
		<stop  offset="0.5078" style="stop-color:#B81620"/>
		<stop  offset="0.6269" style="stop-color:#9D121E"/>
		<stop  offset="0.697" style="stop-color:#93111D"/>
		<stop  offset="0.9818" style="stop-color:#6E0008"/>
	</radialGradient>
	<path fill-rule="evenodd" clip-rule="evenodd" fill="url(#SVGID_4_)" d="M63.88,79.521c-4.417,5.024-8.678,9.871-12.604,14.34
		c-4.764-4.751-9.871-9.846-15.143-15.095c4.374-4.722,8.899-9.598,13.507-14.562C54.547,69.484,59.312,74.608,63.88,79.521z"/>
	<radialGradient id="SVGID_5_" cx="62.0127" cy="12.5869" r="21.4569" gradientUnits="userSpaceOnUse">
		<stop  offset="0.1212" style="stop-color:#D6DE23"/>
		<stop  offset="0.4545" style="stop-color:#8BC53F"/>
		<stop  offset="0.7455" style="stop-color:#009345"/>
		<stop  offset="1" style="stop-color:#00411D"/>
	</radialGradient>
	<path fill-rule="evenodd" clip-rule="evenodd" fill="url(#SVGID_5_)" d="M56.057,5.914c0.165,0.704,0.534,2.113,0.842,3.537
		c0.894,4.083,1.688,8.192,2.673,12.253c0.777,3.203-0.347,5.702-2.625,7.746c-1.896,1.696-3.987,3.18-5.975,4.742
		c-9.068-7.419-5.35-15.42-0.247-21.191C52.742,10.722,54.404,8.136,56.057,5.914z M54.551,18.258
		c-0.741,0.256-1.392,0.477-2.434,0.833c1.067-1.914,1.857-3.336,2.647-4.755c-0.261-0.113-0.517-0.222-0.777-0.338
		c-0.902,1.701-1.806,3.402-2.855,5.375c-0.234-0.75-0.325-1.037-0.398-1.271c-0.391,2.664-0.946,5.28-1.098,7.918
		c-0.101,1.74,0.377,3.51,0.607,5.363c1.498-1.08,2.517-1.818,3.537-2.556c-0.061-0.108-0.126-0.221-0.191-0.333
		c-0.933,0.525-1.865,1.045-2.851,1.597c-0.842-3.645-0.43-6.669,3.181-8.553c-0.933,0.486-1.866,0.968-2.799,1.454
		c-0.178-0.2-0.352-0.404-0.529-0.607C51.888,21.031,53.188,19.682,54.551,18.258z"/>
	<path fill-rule="evenodd" clip-rule="evenodd" fill="#6D6E70" d="M28.105,48.762c-6.739-2.435-9.315-7.42-11.013-13.104
		c-0.551-1.848-0.863-3.641,0.89-5.233c2.478-2.248,4.07-2.477,7.368-0.88c-1.267,0.815-3.385,1.44-4,2.763
		c-0.703,1.511-0.381,3.719,0.061,5.485c0.49,1.956,1.449,3.857,2.509,5.597C24.981,45.129,26.422,46.64,28.105,48.762z"/>
	<path fill-rule="evenodd" clip-rule="evenodd" fill="#6D6E70" d="M84.403,31.041c-0.018,0.625,0.069,1.228-0.304,1.601
		c-3.371,3.372-6.868,6.617-10.617,10.188c0.188-0.725,0.168-1.453,0.521-1.861c3.166-3.662,6.399-7.271,9.614-10.89
		C83.957,30.143,84.408,30.859,84.403,31.041z"/>
	<path fill-rule="evenodd" clip-rule="evenodd" fill="#6D6E70" d="M81.448,28.064c0.604,0.46,1.11,0.851,1.81,1.388
		c-3.904,3.723-7.719,7.359-11.533,10.996c-0.238-0.113-0.477-0.222-0.72-0.335c0.243-0.603,0.343-1.34,0.755-1.783
		C74.892,34.938,78.095,31.601,81.448,28.064z"/>
	<path fill-rule="evenodd" clip-rule="evenodd" fill="#6D6E70" d="M68.61,37.381c3.262-3.438,6.451-6.869,9.757-10.188
		c0.355-0.36,1.386-0.048,2.475-0.048C77.384,31.522,69.703,37.745,68.61,37.381z"/>
	<path fill-rule="evenodd" clip-rule="evenodd" fill="#6D6E70" d="M33.985,77.017c4.808-4.539,9.615-9.082,14.427-13.62
		c0.126,0.126,0.251,0.248,0.377,0.369c-3.25,3.519-6.5,7.041-9.75,10.556c-1.007,1.086-1.966,2.231-3.077,3.198
		c-0.398,0.352-1.176,0.27-1.778,0.383C34.12,77.606,34.05,77.312,33.985,77.017z"/>
	<path fill-rule="evenodd" clip-rule="evenodd" fill="#6D6E70" d="M67.16,77.797c-0.59-0.081-1.414,0.057-1.74-0.281
		c-4.395-4.538-8.721-9.146-12.66-14.153c4.859,4.521,9.724,9.042,14.583,13.563C67.282,77.216,67.222,77.508,67.16,77.797z"/>
	<path fill-rule="evenodd" clip-rule="evenodd" fill="#6D6E70" d="M66.357,46.028c-3.067-2.504-2.78-6.296,1.037-8.964
		c-0.169,0.547-0.369,1.089-0.508,1.649c-0.398,1.614-0.872,3.215-1.102,4.855C65.686,44.275,66.114,45.056,66.357,46.028z"/>
</g>
</svg>
