<?xml version="1.0" encoding="utf-8"?>
<!-- Generator: Adobe Illustrator 16.0.0, SVG Export Plug-In . SVG Version: 6.00 Build 0)  -->
<!DOCTYPE svg PUBLIC "-//W3C//DTD SVG 1.1//EN" "http://www.w3.org/Graphics/SVG/1.1/DTD/svg11.dtd">
<svg version="1.1" id="Layer_1" xmlns="http://www.w3.org/2000/svg" xmlns:xlink="http://www.w3.org/1999/xlink" x="0px" y="0px"
	 width="100px" height="100px" viewBox="0 0 100 100" enable-background="new 0 0 100 100" xml:space="preserve">
<g>
	<g>
		<g>
			<path fill-rule="evenodd" clip-rule="evenodd" fill="#F3E600" d="M34.086,37.268l0.61,1.808
				c-4.198-1.043-0.941,1.628-5.802,0.887c-3.579-0.541-6.874,2.35-8.566,5.159c-1.697,2.803-1.297,4.007-2.34,4.373
				c-1.039,0.371-2.121-2.15-1.346-5.041c1.628-6.041,11.286-11.813,14.836-6.977C31.82,37.939,34.086,37.268,34.086,37.268
				L34.086,37.268z"/>
			<path fill-rule="evenodd" clip-rule="evenodd" fill="#E7D01B" d="M33.692,35.673l0.175,1.731c-3.9-1.853-1.355,1.395-5.958-0.278
				c-3.398-1.229-7.157,0.98-9.351,3.418c-2.184,2.438-2.028,3.7-3.116,3.861c-1.082,0.161-1.663-2.536-0.355-5.236
				c2.74-5.641,13.266-9.454,15.816-3.993c0.083,0.185,0.39,0.604,0.804,0.644C32.463,35.897,33.692,35.673,33.692,35.673
				L33.692,35.673z"/>
			<path fill-rule="evenodd" clip-rule="evenodd" fill="#F7EE61" d="M33.731,36.087l0.253,1.901
				c-3.905-1.852-1.229,1.419-5.831-0.253c-3.398-1.229-7.162,0.98-9.351,3.418c-2.189,2.438-2.028,3.7-3.111,3.861
				c-1.092,0.161-1.667-2.535-0.36-5.236c2.74-5.641,13.266-9.454,15.816-3.998C31.391,36.307,33.731,36.087,33.731,36.087
				L33.731,36.087z"/>
		</g>
		<path fill-rule="evenodd" clip-rule="evenodd" fill="#F9EC2F" d="M31.283,39.183c0,0-2.023-0.941-5.051-0.497
			c-1.643,0.244-5.139,1.16-7.61,6.606c-1.512,3.33-0.941,4.081-0.644,4.007c0.297-0.068,1.355-4.5,4.066-7.01
			c1.804-1.672,4.217-2.813,6.002-2.594C29.835,39.919,31.566,39.865,31.283,39.183z"/>
	</g>
	<g>
		<path fill-rule="evenodd" clip-rule="evenodd" fill="#F58A1F" d="M35.598,75.179c-1,1.146-0.854,2.861,0.322,3.827
			c0.365,0.303,1.536,1.106,3.007,2.048l1.697-1.283l-0.985,1.73c3.208,2,7.357,4.305,7.996,3.57
			c0.468-0.542-1.024-2.609-2.867-4.76l-1.268,0.897l-0.157-0.166l0.995-1.223c-1.219-1.391-2.531-2.766-3.496-3.73l-0.907,0.453
			l0.571-0.784c-0.444-0.438-0.79-0.761-0.971-0.912C38.363,73.881,36.598,74.027,35.598,75.179L35.598,75.179z"/>
		<path fill-rule="evenodd" clip-rule="evenodd" fill="#098844" d="M36.485,74.131c-0.98-1.195-2.93-3.896-3.057-3.984
			c0,0-1.033,0.678-0.77,1.21c0.263,0.536,1.355,1.643,1.355,1.643l-0.526,0.39c0,0-3.047-4.047-3.633-3.579
			c-0.58,0.47-1.053,1.595-1.053,1.595l2.891,1.901c0,0-1.389,0.834-0.57,1.175c0.585,0.245,2.496,1.204,3.559,1.746
			c0.083-0.463,0.288-0.906,0.62-1.293C35.627,74.555,36.042,74.286,36.485,74.131L36.485,74.131z"/>
	</g>
	<g>
		<path fill-rule="evenodd" clip-rule="evenodd" fill="#098844" d="M37.924,47.769c2.9-3.817,7.04-5.475,9.239-3.706
			c0.234,0.186,0.434,0.4,0.604,0.644c-1.945,0.424-4.68,2.541-7.041,5.641c-0.853,1.126-1.828,3.315-2.549,5.096
			c-0.395,0.974-0.527,1.94-1.107,2.11c-0.063,0.015-0.132,0.029-0.209,0.029l0.195,1.287l-0.571-0.034l0.044-1.302
			c-0.424-0.156-0.907-0.668-1.131-1.999C35.038,53.366,35.925,50.396,37.924,47.769L37.924,47.769z"/>
		<g>
			<path fill-rule="evenodd" clip-rule="evenodd" fill="#98C93C" d="M36.198,53.838c0.356-0.462,1.009-0.545,1.462-0.181
				c0.449,0.361,0.531,1.035,0.176,1.497c-0.351,0.469-1.004,0.547-1.458,0.186C35.925,54.974,35.847,54.307,36.198,53.838
				L36.198,53.838z"/>
			<path fill-rule="evenodd" clip-rule="evenodd" fill="#98C93C" d="M37.042,50.65c0.399-0.526,1.136-0.62,1.648-0.206
				c0.507,0.411,0.599,1.166,0.2,1.692c-0.399,0.522-1.136,0.615-1.648,0.204C36.734,51.933,36.641,51.177,37.042,50.65
				L37.042,50.65z"/>
			<path fill-rule="evenodd" clip-rule="evenodd" fill="#98C93C" d="M38.806,47.729c0.395-0.526,1.136-0.619,1.643-0.209
				c0.512,0.41,0.604,1.17,0.205,1.697c-0.399,0.521-1.136,0.614-1.648,0.205C38.499,49.012,38.407,48.256,38.806,47.729
				L38.806,47.729z"/>
			<path fill-rule="evenodd" clip-rule="evenodd" fill="#98C93C" d="M40.961,45.545c0.399-0.527,1.136-0.619,1.643-0.205
				c0.512,0.404,0.604,1.166,0.205,1.692c-0.4,0.521-1.136,0.614-1.648,0.205S40.561,46.067,40.961,45.545L40.961,45.545z"/>
			<path fill-rule="evenodd" clip-rule="evenodd" fill="#98C93C" d="M43.774,44.443c0.283-0.375,0.81-0.444,1.175-0.151
				c0.366,0.292,0.424,0.838,0.141,1.209c-0.283,0.375-0.809,0.444-1.175,0.151C43.55,45.36,43.486,44.819,43.774,44.443
				L43.774,44.443z"/>
		</g>
	</g>
	<g>
		<path fill-rule="evenodd" clip-rule="evenodd" fill="#EC2224" d="M60.911,45.511c-0.59,0.02-1.015,0.352-1.482,0.458
			c0.02,0.405-0.18,1.721-0.355,1.555c-0.258-0.122-0.409-1.213-0.366-1.599c-0.38-0.117-0.794-0.313-1.213-0.298
			c-0.532,0.021-1.02,0.22-1.429,0.552c-0.771,0.624-1.259,1.706-1.214,2.92c0.087,2.32,2.599,3.726,4.895,3.516
			c2.014-0.186,3.861-1.697,3.783-3.813c-0.044-1.2-0.541-2.238-1.258-2.813C61.871,45.672,61.403,45.492,60.911,45.511
			L60.911,45.511z"/>
		<path fill-rule="evenodd" clip-rule="evenodd" fill="#F9BFBD" d="M57.996,46.862c-0.404-0.195-0.814-0.39-1.224-0.58
			c-1.692,1.233-1.683,3.676,0.136,4.919C55.685,49.875,55.753,47.291,57.996,46.862L57.996,46.862z"/>
		<path fill-rule="evenodd" clip-rule="evenodd" fill="#098844" d="M59.347,45.239c0.395-0.117,0.896-0.049,1.36-0.01
			c-0.42,0.322-0.966,0.531-1.458,0.605c0.067,0.039-0.024,1.174-0.195,1.438c-0.146-0.176-0.253-1.506-0.234-1.506
			c-0.629-0.117-1.033-0.259-1.369-0.517c0.531,0.049,1.082-0.043,1.613,0l0.151-1.726l0.132-0.292
			C59.347,43.897,59.347,44.57,59.347,45.239L59.347,45.239z"/>
	</g>
	<g>
		<path fill-rule="evenodd" clip-rule="evenodd" fill="#FCB814" d="M47.362,49.855c0,0,0.541-1.087,1.405,0.121
			c0.867,1.205,1.16-0.185,1.886,1.293c0.727,1.482-4.519,6.017-5.163,6.28c-0.649,0.263-0.415-0.932-0.771-1.186
			c-0.351-0.258-0.785,0.535-1.385,0.156c-0.595-0.385-0.39-1.254-0.794-1.146c-0.405,0.106-0.692,0.53-0.976-0.21
			c-0.287-0.736,0.731-6.377,1.794-7.299c1.063-0.922,1.507-0.088,1.78,0.575c0.269,0.663,0.868-0.278,1.371,0.337
			c0.185,0.219,0.122,0.57,0.2,0.804c0.541-0.853,0.584-1.848-0.98-2.077c0.219-0.195,0.444-0.39,0.663-0.585
			c1.672,0.278,1.316,1.843,0.814,2.964C47.294,49.88,47.357,49.86,47.362,49.855L47.362,49.855z"/>
		<path fill-rule="evenodd" clip-rule="evenodd" fill="#FFF5A8" d="M45.096,49.422c0,0-0.512-0.771-1.117,0.058
			c-0.595,0.825-1.619,3.911-1.619,3.911s0.595-3.671,1.009-4.447C43.784,48.164,44.506,48.1,45.096,49.422L45.096,49.422z"/>
	</g>
	<g>
		<path fill-rule="evenodd" clip-rule="evenodd" fill="#338540" d="M57.728,56.749c0,0,0.448-1.189,1.512-0.083
			c1.063,1.112,1.214-0.351,2.154,1.053c0.946,1.41-4.134,6.792-4.787,7.153c-0.663,0.36-0.551-0.893-0.955-1.103
			c-0.405-0.209-0.775,0.664-1.458,0.36c-0.683-0.306-0.561-1.223-0.98-1.057c-0.42,0.165-0.678,0.643-1.063-0.068
			c-0.391-0.718,0.049-6.626,1.082-7.713c1.029-1.097,1.595-0.308,1.96,0.331c0.365,0.64,0.893-0.41,1.502,0.146
			c0.219,0.2,0.195,0.57,0.302,0.789c0.483-0.945,0.415-1.97-1.282-1.979c0.215-0.23,0.43-0.459,0.645-0.688
			c1.817,0.043,1.613,1.69,1.204,2.91C57.66,56.783,57.723,56.754,57.728,56.749L57.728,56.749z"/>
		<path fill-rule="evenodd" clip-rule="evenodd" fill="#6EBD44" d="M55.256,56.633c0,0-0.629-0.718-1.18,0.214
			c-0.547,0.932-1.283,4.222-1.283,4.222s0.22-3.826,0.571-4.685C53.715,55.535,54.476,55.364,55.256,56.633L55.256,56.633z"/>
	</g>
	<g>
		<g>
			<path fill-rule="evenodd" clip-rule="evenodd" fill="#4A317C" d="M65.996,70.546c-0.497,3.023-2.915,5.174-5.401,4.808
				c-2.486-0.365-4.096-3.12-3.599-6.143c0.492-2.984,1.726-2.224,2.291-5.676c0.167-0.989,0.722-1.822,1.473-2.344l-0.019,0.033
				c0,0,0.292-0.098,0.95-0.077c0.663,0.015,0.999-0.488,0.999-0.488s-0.093,0.22-0.243,0.668c-0.146,0.453,0.277,1.443,0.277,1.443
				s0.244-0.283,0.508-0.517c0.263-0.234,0.507-1.116,0.507-1.116s0.151,0.146,0.409,0.424s1.097,0.668,1.097,0.668L65.24,62.2
				c0.376,0.653,0.531,1.453,0.396,2.281C65.07,67.929,66.489,67.563,65.996,70.546L65.996,70.546z"/>
			<path fill-rule="evenodd" clip-rule="evenodd" fill="#897DB9" d="M58.937,72.727c-0.652-0.966-0.951-2.331-0.712-3.77
				c0.415-2.529,1.39-1.896,1.873-4.821c0.16-0.961,0.721-1.751,1.457-2.169c-0.268,0.385-0.517,0.813-0.712,1.485
				c-0.131,0.283-0.229,0.591-0.288,0.917c-0.506,3.086-1.54,2.419-1.979,5.091C58.381,70.653,58.527,71.795,58.937,72.727
				L58.937,72.727z"/>
		</g>
		<path fill-rule="evenodd" clip-rule="evenodd" fill="#098844" d="M63.773,59.991c0.857,0.663,1.219,0.883,1.325,1.97
			c0,0-0.76-0.355-0.999-0.609s-0.414-0.585-0.414-0.585s-0.181,1.005-0.42,1.215c-0.238,0.214-0.463,0.472-0.463,0.472
			s-0.336-0.74-0.121-1.312c0.219-0.57,0.189-0.77,0.189-0.77s-0.404,0.618-1.009,0.599c-0.601-0.014-0.868,0.073-0.868,0.073
			c0.761-1.082,1.106-1.175,2.369-1.204l0.073-2.082l0.59,0.133L63.773,59.991L63.773,59.991z"/>
	</g>
	<g>
		<path fill-rule="evenodd" clip-rule="evenodd" fill="#E1C59C" d="M23.482,49.48l-1.604,1.736c-0.229,0.249-0.654,0.316-0.99,0.116
			l-0.624-0.385c-0.332-0.199-0.4-0.57-0.219-0.853l0.877-1.39c0.229,0.195,0.501,0.39,0.78,0.571
			c0.112,0.073,0.639-0.375,0.756-0.308C22.8,49.168,23.151,49.344,23.482,49.48L23.482,49.48z"/>
		<path fill-rule="evenodd" clip-rule="evenodd" fill="#FBE5AB" d="M24.253,46.014c1.341,0.901,1.688,2.667,0.78,3.944
			c-0.829,1.17-5.636-2.16-4.846-3.267C21.094,45.414,22.913,45.112,24.253,46.014L24.253,46.014z"/>
		<path fill-rule="evenodd" clip-rule="evenodd" fill="#FFFFFF" d="M20.518,46.911c0.966-1.234,2.399-1.292,3.325-0.78
			c-0.57-0.059-1.93-0.083-2.593,1.433C20.957,47.325,20.811,47.15,20.518,46.911L20.518,46.911z"/>
	</g>
	<g>
		<path fill-rule="evenodd" clip-rule="evenodd" fill="#89C540" d="M49.81,58.018c0,0-1.638,1.745-1.75,2.686
			c-0.112,0.936,0,1.447,0,1.447s0.487-0.142,0.711,0.293c0.219,0.435,0.098,0.605,0.098,0.605s0.522,0.122,0.58,0.735
			c0.053,0.62-0.273,0.718-0.273,0.718s0.327-0.098,0.21,0.526c-0.122,0.624-1.077,0.403-1.077,0.403s0.205,0.664-0.361,0.697
			c-0.571,0.03-0.605-0.233-0.605-0.233s-0.639,0.961-1.189,0.755c-0.551-0.199-0.512-0.663-0.512-0.663s-0.405,0.571-0.805,0.278
			c-0.399-0.293-0.38-0.521-0.38-0.521s-0.429,0.488-0.6,0.22c-0.17-0.264-0.126-0.551-0.126-0.551s-0.614,0.453-0.892,0.127
			c-0.278-0.327-0.176-0.858-0.176-0.858s-0.692,0.205-0.941-0.313c-0.244-0.518,0.098-0.707,0.098-0.707s-0.717,0.118-0.834-0.395
			c-0.107-0.512,0.161-0.635,0.161-0.635s-0.634-0.038-0.746-0.55c-0.112-0.513,0.321-0.546,0.321-0.546s-0.673-0.165-0.731-0.649
			c-0.059-0.482,0.268-0.574,0.268-0.574s-0.497-0.176-0.541-0.751s0.317-0.409,0.317-0.409s-0.527-0.707-0.317-1.039
			c0.21-0.336,0.439-0.313,0.439-0.313s-0.297-0.092,0.043-0.418c0.346-0.327,0.532-0.156,0.532-0.156s0.063-0.518,0.429-0.488
			c0.361,0.029,0.546,0.337,0.546,0.337s0.049-0.283,0.327-0.094c0.283,0.191,0.141,0.459,0.141,0.459s0.341-0.332,0.542-0.116
			c0.2,0.214-0.024,0.506-0.024,0.506s0.263-0.171,0.487-0.005c0.229,0.161,0.195,0.487,0.195,0.487l0.556-0.21l0.2,0.216
			c0,0,1.361-0.352,1.75-0.518c0.395-0.16,1.053-0.624,1.053-0.624s-0.375-0.068,0.239-0.385c0.609-0.312,0.863-0.799,0.863-0.799
			S49.288,57.037,49.81,58.018L49.81,58.018z"/>
		<path fill-rule="evenodd" clip-rule="evenodd" fill="#66B645" d="M47.572,61.639c0,0,0.57-0.35-0.361-0.584
			c-0.937-0.239-0.882,0.673-0.848,0.336c0.034-0.332-0.146-0.326-0.571-0.663c-0.419-0.341-0.829-0.039-0.829-0.039
			s-0.244-0.063-0.083-0.435c0.155-0.37-0.132-0.423-0.473-0.512c-0.346-0.083-0.58-0.106-0.58-0.106s-0.015-0.044,0.351-0.337
			c0.366-0.287-0.039-0.726-0.039-0.726l-0.332-0.181l1.004,0.312l0.229-0.438c0,0,0.244-0.536,0.352,0.264
			c0.107,0.805,0.17,1.433,0.76,1.443c0.595,0.015,1.087,0.146,1.092,0.468c0.01,0.321,0.146,0.326,0.146,0.326
			s-0.083-0.717,0.361-1.492c0.439-0.774,1.043-1.545,1.092-1.614c0.04-0.068,0.22-0.374,0.308-0.512c0,0,0.385,0.313,0.561,0.707
			c-0.102,0.405-1.94,1.644-1.838,2.263c0.098,0.618,0.244,2.423,0.04,2.487c-0.21,0.063-0.225,0.154-0.225,0.154
			S48.157,61.932,47.572,61.639L47.572,61.639z"/>
	</g>
	<g>
		<path fill-rule="evenodd" clip-rule="evenodd" fill="#EAE02A" d="M44.14,68.455c1.574-0.049,2.93,0.785,3.359,1.964
			c0.088,0.234,0.493,0.435,0.502,0.688c0.005,0.243-0.38,0.526-0.443,0.755c-0.341,1.22-1.648,2.15-3.237,2.199
			c-1.887,0.059-3.276-1.193-3.33-2.74C40.942,69.771,42.253,68.514,44.14,68.455L44.14,68.455z"/>
		<path fill-rule="evenodd" clip-rule="evenodd" fill="#EFE93B" d="M44.467,68.62c1.077-0.033,2.638,0.902,2.662,1.672
			c0.005,0.172-0.205,0.376-0.253,0.538c-0.254,0.861-1.219,1.525-2.399,1.56c-1.395,0.044-2.423-0.844-2.457-1.936
			C41.98,69.352,43.067,68.665,44.467,68.62L44.467,68.62z"/>
		<path fill-rule="evenodd" clip-rule="evenodd" fill="#FFFFFF" d="M44.311,68.938c0.327-0.01,0.595,0.19,0.604,0.449
			c0.01,0.258-0.249,0.473-0.575,0.482c-0.327,0.009-0.6-0.19-0.609-0.448C43.726,69.162,43.979,68.948,44.311,68.938L44.311,68.938
			z"/>
	</g>
	<g>
		<g>
			<path fill-rule="evenodd" clip-rule="evenodd" fill="#45A748" d="M50.609,46.828c-1.511-1.433-3.656-3.676-6.123-4.334
				c-2.687-0.722-5.705,0.278-7.519,2.423c2.501-3.998,9-5.407,11.994,0.102c-0.829-2.408-3.993-7.469-7.572-4.851
				C43.94,34.278,48.933,42.186,50.609,46.828L50.609,46.828z"/>
			<path fill-rule="evenodd" clip-rule="evenodd" fill="#84C341" d="M50.366,46.608c-1.571-3.73-3.472-11.13,0.321-10.399
				c-3.262-1.37-4.373,1.326-2.165,7.479c-1.395-1.886-5.285-7.576-3.471-8.419C40.123,33.615,47.05,43.532,50.366,46.608
				L50.366,46.608z"/>
		</g>
		<g>
			<path fill-rule="evenodd" clip-rule="evenodd" fill="#6AAD45" d="M50.385,47.52c0,0-0.322-1.867-1.692-2.062
				c-1.365-0.195-2.638,0.122-2.638,0.122s1.96,1.872,2.95,1.921C50,47.549,50.385,47.52,50.385,47.52L50.385,47.52z"/>
			<path fill-rule="evenodd" clip-rule="evenodd" fill="#689D41" d="M50.366,47.53c0,0,1.13-1.73,1.989-1.292
				c0.857,0.439,2.262,1.35,2.262,1.35s-2.9,0.976-3.477,0.561C50.566,47.74,50.366,47.53,50.366,47.53L50.366,47.53z"/>
			<g>
				<path fill-rule="evenodd" clip-rule="evenodd" fill="#84BF41" d="M50.444,47.237c0,0,1.438-1.18,1.081-2.521
					c-0.35-1.34-1.106-2.345-1.106-2.345s-0.814,2.676-0.478,3.602C50.278,46.901,50.444,47.237,50.444,47.237L50.444,47.237z"/>
				<path fill-rule="evenodd" clip-rule="evenodd" fill="#98C93C" d="M50.234,47.428c0.463-1.76,2.092-2.384,4.115-2.029
					C54.35,45.399,53.74,47.417,50.234,47.428L50.234,47.428z"/>
			</g>
		</g>
	</g>
	<path fill-rule="evenodd" clip-rule="evenodd" fill="#77BF43" d="M19.271,50.991c0.604,0.16,0.956,0.77,0.785,1.355
		c-0.166,0.585-0.79,0.926-1.389,0.766c-0.605-0.166-0.956-0.771-0.785-1.355C18.046,51.172,18.67,50.825,19.271,50.991
		L19.271,50.991z"/>
	<g>
		<path fill-rule="evenodd" clip-rule="evenodd" fill="#6E7052" d="M50.722,68.635c-0.039-0.048-0.155,0.05-0.175,0.03
			c-0.635-0.873-0.996-2.048-1.137-2.599c-0.048-0.195-0.22-0.36-0.22-0.36s0.308-0.035,0.332,0.053
			c0.01,0.054,0.01,0.176,0.035,0.273c0.194-0.015,1.551-0.078,2.838,0.39c0.029,0.01-0.039,0.142,0.02,0.166
			c-1.132-0.429-2.37-0.429-2.785-0.414c-0.015,0-0.024-0.006-0.034-0.01C49.771,66.777,50.146,67.875,50.722,68.635L50.722,68.635z
			"/>
		<g>
			<path fill-rule="evenodd" clip-rule="evenodd" fill="#411313" d="M53.891,69.801c-1.18-1.233-2.666-1.745-3.335-1.146
				c-0.663,0.599-0.249,2.086,0.927,3.319c1.18,1.229,2.672,1.746,3.334,1.146C55.479,72.521,55.065,71.034,53.891,69.801
				L53.891,69.801z"/>
			<path fill-rule="evenodd" clip-rule="evenodd" fill="#170C18" d="M50.658,68.728c-0.473,0.668-0.059,2.009,1.01,3.126
				c0.994,1.044,2.228,1.55,2.979,1.281c-0.727-0.297-1.564-0.887-2.336-1.691C51.419,70.513,50.834,69.508,50.658,68.728
				L50.658,68.728z"/>
			<path fill-rule="evenodd" clip-rule="evenodd" fill="#92786B" d="M52.063,69.064c0.313-0.142,1.189,0.41,1.833,1.088
				c0.034,0.102,0,0.092,0.034,0.204c0.034,0.107-0.029,0.175-0.005,0.287c-0.112-0.131-0.229-0.263-0.356-0.394
				C53.027,69.683,52.477,69.26,52.063,69.064L52.063,69.064z M54.203,70.552c0.307,0.438,0.453,0.843,0.389,1.071
				c-0.087-0.169-0.199-0.36-0.346-0.56C54.252,70.907,54.236,70.736,54.203,70.552L54.203,70.552z"/>
		</g>
		<g>
			<path fill-rule="evenodd" clip-rule="evenodd" fill="#411313" d="M55.178,66.212c-1.219-0.585-2.481-0.517-2.818,0.142
				c-0.336,0.669,0.381,1.682,1.604,2.263c1.219,0.584,2.481,0.521,2.817-0.142C57.118,67.812,56.401,66.798,55.178,66.212
				L55.178,66.212z"/>
			<path fill-rule="evenodd" clip-rule="evenodd" fill="#170C18" d="M52.452,66.383c-0.171,0.654,0.507,1.555,1.614,2.087
				c1.033,0.493,2.102,0.502,2.589,0.068c-0.624-0.005-1.419-0.199-2.214-0.58C53.516,67.514,52.799,66.925,52.452,66.383
				L52.452,66.383z"/>
			<path fill-rule="evenodd" clip-rule="evenodd" fill="#92786B" d="M53.604,66.207c0.199-0.199,1.004-0.048,1.677,0.273
				c0.054,0.068,0.024,0.068,0.078,0.146c0.058,0.073,0.029,0.146,0.078,0.225c-0.117-0.068-0.244-0.137-0.376-0.195
				C54.5,66.388,53.969,66.227,53.604,66.207L53.604,66.207z M55.621,66.694c0.347,0.245,0.571,0.508,0.585,0.703
				c-0.111-0.108-0.248-0.215-0.414-0.327C55.753,66.954,55.694,66.821,55.621,66.694L55.621,66.694z"/>
		</g>
	</g>
	<g>
		<g>
			<g>
				<path fill-rule="evenodd" clip-rule="evenodd" fill="#EC2224" d="M66.688,56.583c0,0-0.609-0.74-1.448-0.331
					c-0.843,0.414-0.765,2.55,0.565,3.043c1.336,0.497,2.472-0.664,2.55-1.707C68.435,56.544,67.63,56.192,66.688,56.583
					L66.688,56.583z"/>
				<path fill-rule="evenodd" clip-rule="evenodd" fill="#FFFFFF" d="M65.66,56.662c0.194-0.015,0.365,0.102,0.375,0.268
					c0.015,0.165-0.132,0.313-0.327,0.327c-0.194,0.015-0.365-0.108-0.38-0.274C65.313,56.822,65.465,56.677,65.66,56.662
					L65.66,56.662z"/>
			</g>
			<g>
				<path fill-rule="evenodd" clip-rule="evenodd" fill="#EC2224" d="M70.238,56.413c0,0-0.722-0.635-1.482-0.103
					c-0.766,0.541-0.341,2.633,1.058,2.92c1.399,0.278,2.331-1.038,2.238-2.082C71.958,56.106,71.105,55.887,70.238,56.413
					L70.238,56.413z"/>
				<path fill-rule="evenodd" clip-rule="evenodd" fill="#FFFFFF" d="M69.238,56.651c0.19-0.048,0.376,0.05,0.415,0.21
					c0.038,0.156-0.078,0.327-0.269,0.37c-0.195,0.044-0.38-0.048-0.419-0.209C68.921,56.861,69.048,56.695,69.238,56.651
					L69.238,56.651z"/>
			</g>
		</g>
		<path fill-rule="evenodd" clip-rule="evenodd" fill="#BF3726" d="M68.449,53.896c0.633-1.346,0.453-3.08,0.365-3.646
			c0-0.011,0-0.015,0-0.025c-0.005-0.024-0.015-0.048-0.02-0.059c-0.024-0.058,0.054-0.102,0.126-0.146
			c0.078-0.049,0.176-0.063,0.152,0.092l0.009,0.225c0.006,0.015,0.011,0.029,0.015,0.044c0.347,0.464,1.59,2.209,1.678,3.554
			c0.077,1.2-0.258,2.126-0.424,2.502c-0.05,0.116-0.269,0.01-0.274,0.01c0,0,0.562-0.985,0.464-2.555
			c-0.073-1.156-1.004-2.608-1.487-3.291v0.005c0.078,0.74,0.137,2.179-0.409,3.34c-0.585,1.248-1.419,2.208-1.784,2.598
			c-0.117,0.122-0.269,0.015-0.269,0.015S67.674,55.53,68.449,53.896z"/>
	</g>
	<path fill-rule="evenodd" clip-rule="evenodd" fill="#97C93C" d="M14.347,47.871c2.822,0.946,3.695,3.627,2.929,6.822
		C17.276,54.692,14.035,53.482,14.347,47.871L14.347,47.871z"/>
	<g>
		<g>
			<polygon fill-rule="evenodd" clip-rule="evenodd" fill="#628139" points="20.353,53.532 19.631,53.532 19.87,56.691 
				20.353,56.691 20.353,53.532 			"/>
			<path fill-rule="evenodd" clip-rule="evenodd" fill="#89C540" d="M20.353,54.76c0,0,1.019-1.414,2.326-1.082
				c1.306,0.326,2.808,0.707,2.808,0.707s-1.696,1.269-2.954,1.316C21.274,55.745,20.353,54.76,20.353,54.76L20.353,54.76z"/>
		</g>
		<g>
			<path fill-rule="evenodd" clip-rule="evenodd" fill="#DE1F26" d="M19.919,56.218c-0.395,0.045-0.907-0.171-1.429-0.283
				c-0.858-0.194-1.682-0.044-2.125,0.303c-1.468,1.146-1.029,6.406,1.862,7.605c0.517,0.215,1.141-0.185,1.741-0.185
				c0.663,0,1.243,0.374,1.799,0.116c2.657-1.229,3.529-6.114,2.116-7.474c-0.639-0.609-1.585-0.639-2.462-0.482
				C20.875,55.915,20.353,56.174,19.919,56.218L19.919,56.218z"/>
			<path fill-rule="evenodd" clip-rule="evenodd" fill="#FBC9AA" d="M22.722,56.633c0.843,0.16,0.941,2.964,0.083,5.363
				c0.264-1.239,0.337-4.896-1.047-5.057C22.079,56.837,22.401,56.734,22.722,56.633L22.722,56.633z"/>
		</g>
	</g>
	<g>
		<g>
			<path fill-rule="evenodd" clip-rule="evenodd" fill="#098844" d="M64.733,32.996c0,0-1.955,0.546-2.511,0.887
				c-0.556,0.342,0.068,0.088,0.068,0.088s1.618-0.688,2.097-0.736C64.865,33.182,64.733,32.996,64.733,32.996L64.733,32.996z"/>
			<path fill-rule="evenodd" clip-rule="evenodd" fill="#45A046" d="M64.202,32.938c0,0,0.399-3.378,7.527-1.989
				c4.296,0.834,7.606,3.783,8.834,7.489c0.897,2.695,0.532,5.143,0.181,6.026c-0.888,2.232-1.905,0.024-3.286-2.94
				c-0.287-0.625-0.735-1.546-1.453-2.413c-2.412-2.936-7.492-4.564-8.414-4.651C66.304,34.337,63.427,34.298,64.202,32.938
				L64.202,32.938z"/>
			<path fill-rule="evenodd" clip-rule="evenodd" fill="#84C052" d="M64.144,33.113c0.166-0.389,1.194-2.925,7.23-1.808
				c4.311,0.794,7.64,3.715,8.897,7.401c0.916,2.677,0.564,5.119,0.215,6.006c-0.112,0.288-0.337,0.565-0.337,0.565
				s0.103-0.166,0.16-0.312c0.352-0.882,0.698-3.32-0.219-5.997c-1.262-3.686-4.598-6.597-8.911-7.387
				C66.201,30.675,64.65,32.528,64.144,33.113L64.144,33.113z"/>
			<path fill-rule="evenodd" clip-rule="evenodd" fill="#84C052" d="M64.051,33.27c0.404-0.498,2.033-2.248,7.129-1.195
				c4.201,0.873,7.439,3.759,8.691,7.293c0.912,2.569,0.64,4.9,0.328,5.68c-0.025,0.063-0.118,0.273-0.118,0.273
				c-0.005,0,0.518-3.218-0.352-5.646c-1.271-3.569-4.567-6.485-8.849-7.318C66.757,31.553,64.836,32.689,64.051,33.27L64.051,33.27
				z"/>
			<path fill-rule="evenodd" clip-rule="evenodd" fill="#84C052" d="M70.159,33.089c4.307,0.76,7.854,3.603,9.147,7.152
				c0.838,2.311,0.644,5.085,0.644,5.085c-0.011-0.005-0.044-2.73-0.824-4.816c-1.36-3.652-5.012-6.592-9.532-7.25
				c-1.238-0.18-2.242-0.209-3.062-0.151c-0.916,0.068-2.447,0.2-2.438,0.18C64.295,32.875,68.22,32.748,70.159,33.089
				L70.159,33.089z"/>
			<path fill-rule="evenodd" clip-rule="evenodd" fill="#84C052" d="M64.061,33.479c0,0,0.342,0.146,1.17,0.126
				c2.258-0.058,6.987,0.99,9.732,2.847c3.749,2.54,4.28,6.841,4.421,7.381c0.142,0.541,0.4,1.458,0.405,1.409
				c0-0.049-0.151-0.087-0.565-1.335c-0.415-1.249-0.526-4.52-4.438-7.26c-2.358-1.658-5.348-2.408-7.254-2.725
				C65.694,33.615,64.68,33.947,64.061,33.479L64.061,33.479z"/>
		</g>
	</g>
	<g>
		<path fill-rule="evenodd" clip-rule="evenodd" fill="#81C241" d="M35.394,61.697c-0.356-0.677-0.288-3.603-0.658-3.729
			c-0.375-0.131-0.677,0.094-0.649,0.215c0.025,0.127,0.571,1.75,0.435,1.75c-0.132,0.005-0.609-1.428-0.951-2.705
			c-0.342-1.278-1.107,0.337-1.068,0.506c0.034,0.177,2.16,4.428,2.16,4.428L35.394,61.697L35.394,61.697z"/>
		<g>
			<path fill-rule="evenodd" clip-rule="evenodd" fill="#B91F6A" d="M35.896,61.361c-2.506,0.522-4.115,3.008-3.588,5.553
				c0.478,2.326,2.574,3.896,4.846,3.744c1.355-0.092,1.575,1.663,2.063,1.482c0.497-0.186-0.761-1.545,0.351-2.364
				c1.429-1.053,2.198-2.891,1.813-4.759C40.858,62.473,38.401,60.84,35.896,61.361L35.896,61.361z"/>
			<path fill-rule="evenodd" clip-rule="evenodd" fill="#F27B8C" d="M36.081,62.15c-0.595,0.127-1.121,0.41-1.54,0.801
				c0.287-0.171,0.604-0.293,0.95-0.366c1.799-0.375,3.574,0.834,3.959,2.706c0.01,0.039,0.015,0.083,0.024,0.126
				c0.01,0.044,0.021,0.094,0.03,0.138c0.17,0.828,0.073,1.633-0.215,2.287c0.668-0.786,0.98-1.878,0.751-2.984
				C39.654,62.984,37.885,61.775,36.081,62.15L36.081,62.15z"/>
		</g>
	</g>
	<g>
		<g>
			<g>
				<path fill-rule="evenodd" clip-rule="evenodd" fill="#6B2776" d="M33.448,48.559c0.409,0.541,0.288,1.312-0.273,1.711
					c-0.561,0.405-1.346,0.287-1.755-0.254c-0.41-0.545-0.283-1.311,0.278-1.71C32.258,47.9,33.043,48.017,33.448,48.559
					L33.448,48.559z"/>
				<path fill-rule="evenodd" clip-rule="evenodd" fill="#AE86BC" d="M32.039,48.354c0.19,0.024,0.327,0.195,0.302,0.385
					c-0.029,0.185-0.205,0.317-0.4,0.292c-0.19-0.024-0.327-0.195-0.297-0.385C31.668,48.461,31.849,48.329,32.039,48.354
					L32.039,48.354z"/>
			</g>
			<g>
				<path fill-rule="evenodd" clip-rule="evenodd" fill="#6B2776" d="M28.978,46.311c0.409,0.546,0.288,1.311-0.273,1.711
					c-0.561,0.404-1.351,0.287-1.755-0.254c-0.41-0.542-0.288-1.311,0.272-1.711C27.783,45.653,28.572,45.77,28.978,46.311
					L28.978,46.311z"/>
				<path fill-rule="evenodd" clip-rule="evenodd" fill="#AE86BC" d="M27.568,46.106c0.19,0.025,0.327,0.195,0.298,0.386
					c-0.025,0.185-0.205,0.316-0.395,0.292c-0.195-0.025-0.327-0.195-0.303-0.381C27.198,46.213,27.374,46.082,27.568,46.106
					L27.568,46.106z"/>
			</g>
			<g>
				<path fill-rule="evenodd" clip-rule="evenodd" fill="#6B2776" d="M31.098,47.301c0.404,0.541,0.283,1.312-0.278,1.711
					c-0.561,0.404-1.346,0.287-1.755-0.254c-0.409-0.546-0.288-1.311,0.278-1.711C29.899,46.643,30.688,46.759,31.098,47.301
					L31.098,47.301z"/>
				<path fill-rule="evenodd" clip-rule="evenodd" fill="#AE86BC" d="M29.685,47.096c0.19,0.024,0.327,0.195,0.302,0.385
					c-0.029,0.185-0.205,0.317-0.399,0.293c-0.19-0.025-0.327-0.195-0.302-0.386C29.313,47.203,29.489,47.071,29.685,47.096
					L29.685,47.096z"/>
			</g>
			<g>
				<path fill-rule="evenodd" clip-rule="evenodd" fill="#6B2776" d="M33.399,46.086c0.41,0.546,0.283,1.312-0.277,1.711
					c-0.561,0.405-1.346,0.288-1.755-0.253c-0.405-0.541-0.283-1.307,0.278-1.711C32.205,45.433,32.99,45.545,33.399,46.086
					L33.399,46.086z"/>
				<path fill-rule="evenodd" clip-rule="evenodd" fill="#AE86BC" d="M31.986,45.882c0.194,0.024,0.332,0.195,0.302,0.385
					c-0.029,0.19-0.205,0.317-0.399,0.297c-0.19-0.024-0.327-0.2-0.297-0.385C31.615,45.989,31.795,45.857,31.986,45.882
					L31.986,45.882z"/>
			</g>
			<g>
				<path fill-rule="evenodd" clip-rule="evenodd" fill="#6B2776" d="M31.352,49.899c0.41,0.545,0.283,1.312-0.278,1.711
					c-0.561,0.404-1.345,0.288-1.755-0.253c-0.405-0.547-0.283-1.313,0.278-1.717C30.157,49.241,30.942,49.358,31.352,49.899
					L31.352,49.899z"/>
				<path fill-rule="evenodd" clip-rule="evenodd" fill="#AE86BC" d="M29.938,49.694c0.195,0.025,0.332,0.195,0.303,0.386
					c-0.024,0.185-0.205,0.322-0.395,0.293c-0.195-0.025-0.327-0.195-0.303-0.387C29.572,49.802,29.748,49.67,29.938,49.694
					L29.938,49.694z"/>
			</g>
			<g>
				<path fill-rule="evenodd" clip-rule="evenodd" fill="#6B2776" d="M29.119,48.841c0.409,0.542,0.287,1.313-0.273,1.712
					S27.5,50.84,27.09,50.294c-0.409-0.541-0.283-1.307,0.273-1.711C27.929,48.183,28.714,48.3,29.119,48.841L29.119,48.841z"/>
				<path fill-rule="evenodd" clip-rule="evenodd" fill="#AE86BC" d="M27.71,48.637c0.19,0.024,0.327,0.195,0.297,0.38
					c-0.024,0.19-0.2,0.322-0.395,0.297c-0.19-0.024-0.327-0.195-0.297-0.385C27.339,48.744,27.52,48.612,27.71,48.637L27.71,48.637
					z"/>
			</g>
			<g>
				<path fill-rule="evenodd" clip-rule="evenodd" fill="#6B2776" d="M29.099,51.323c0.41,0.541,0.288,1.311-0.273,1.71
					c-0.561,0.401-1.346,0.289-1.755-0.252c-0.41-0.547-0.283-1.312,0.278-1.717C27.91,50.665,28.695,50.781,29.099,51.323
					L29.099,51.323z"/>
				<path fill-rule="evenodd" clip-rule="evenodd" fill="#AE86BC" d="M27.69,51.118c0.195,0.024,0.327,0.195,0.302,0.385
					c-0.029,0.187-0.204,0.317-0.399,0.293c-0.19-0.024-0.327-0.195-0.297-0.385C27.319,51.226,27.5,51.095,27.69,51.118
					L27.69,51.118z"/>
			</g>
			<g>
				<path fill-rule="evenodd" clip-rule="evenodd" fill="#6B2776" d="M26.852,52.731c0.41,0.541,0.288,1.313-0.278,1.712
					c-0.556,0.399-1.346,0.287-1.75-0.254c-0.41-0.547-0.288-1.311,0.272-1.711C25.657,52.074,26.447,52.19,26.852,52.731
					L26.852,52.731z"/>
				<path fill-rule="evenodd" clip-rule="evenodd" fill="#AE86BC" d="M25.442,52.527c0.19,0.023,0.322,0.194,0.297,0.385
					c-0.024,0.186-0.205,0.316-0.395,0.292c-0.194-0.023-0.326-0.194-0.302-0.385C25.072,52.634,25.248,52.503,25.442,52.527
					L25.442,52.527z"/>
			</g>
			<g>
				<path fill-rule="evenodd" clip-rule="evenodd" fill="#6B2776" d="M29.085,54.048c0.409,0.547,0.287,1.313-0.278,1.712
					c-0.561,0.405-1.346,0.287-1.751-0.254c-0.409-0.541-0.287-1.311,0.273-1.711S28.675,53.507,29.085,54.048L29.085,54.048z"/>
				<path fill-rule="evenodd" clip-rule="evenodd" fill="#AE86BC" d="M27.676,53.844c0.19,0.023,0.327,0.194,0.297,0.385
					c-0.024,0.186-0.205,0.322-0.395,0.292c-0.195-0.023-0.327-0.194-0.302-0.379C27.305,53.95,27.48,53.819,27.676,53.844
					L27.676,53.844z"/>
			</g>
			<g>
				<path fill-rule="evenodd" clip-rule="evenodd" fill="#6B2776" d="M26.866,55.213c0.41,0.542,0.288,1.312-0.273,1.712
					c-0.561,0.4-1.345,0.288-1.755-0.254c-0.41-0.546-0.288-1.311,0.272-1.712C25.677,54.556,26.461,54.672,26.866,55.213
					L26.866,55.213z"/>
				<path fill-rule="evenodd" clip-rule="evenodd" fill="#AE86BC" d="M25.457,55.009c0.19,0.024,0.327,0.195,0.297,0.385
					c-0.024,0.186-0.2,0.316-0.395,0.293c-0.189-0.024-0.327-0.195-0.297-0.385C25.087,55.115,25.268,54.984,25.457,55.009
					L25.457,55.009z"/>
			</g>
			<g>
				<path fill-rule="evenodd" clip-rule="evenodd" fill="#6B2776" d="M31.254,55.063c0.356,0.479,0.249,1.141-0.238,1.487
					c-0.488,0.35-1.17,0.253-1.526-0.22c-0.351-0.473-0.244-1.136,0.244-1.487S30.898,54.595,31.254,55.063L31.254,55.063z"/>
				<path fill-rule="evenodd" clip-rule="evenodd" fill="#AE86BC" d="M30.03,54.887c0.166,0.02,0.283,0.17,0.259,0.332
					c-0.02,0.166-0.176,0.277-0.346,0.258c-0.166-0.024-0.283-0.171-0.258-0.337C29.704,54.979,29.86,54.867,30.03,54.887
					L30.03,54.887z"/>
			</g>
			<g>
				<path fill-rule="evenodd" clip-rule="evenodd" fill="#6B2776" d="M33.18,53.867c0.356,0.47,0.249,1.136-0.238,1.482
					c-0.488,0.352-1.17,0.254-1.521-0.219c-0.355-0.474-0.249-1.141,0.239-1.488C32.146,53.298,32.829,53.395,33.18,53.867
					L33.18,53.867z"/>
				<path fill-rule="evenodd" clip-rule="evenodd" fill="#AE86BC" d="M31.956,53.687c0.166,0.021,0.283,0.172,0.264,0.332
					c-0.025,0.166-0.181,0.278-0.346,0.259c-0.17-0.02-0.288-0.171-0.263-0.336C31.634,53.78,31.791,53.663,31.956,53.687
					L31.956,53.687z"/>
			</g>
			<g>
				<path fill-rule="evenodd" clip-rule="evenodd" fill="#6B2776" d="M31.283,52.562c0.41,0.541,0.288,1.306-0.273,1.711
					c-0.561,0.399-1.351,0.287-1.755-0.254c-0.41-0.545-0.288-1.312,0.272-1.711C30.089,51.902,30.874,52.015,31.283,52.562
					L31.283,52.562z"/>
				<path fill-rule="evenodd" clip-rule="evenodd" fill="#AE86BC" d="M29.875,52.355c0.189,0.025,0.326,0.195,0.297,0.387
					c-0.025,0.185-0.206,0.316-0.395,0.291c-0.195-0.023-0.327-0.193-0.303-0.385C29.504,52.464,29.68,52.332,29.875,52.355
					L29.875,52.355z"/>
			</g>
			<g>
				<path fill-rule="evenodd" clip-rule="evenodd" fill="#6B2776" d="M33.448,51.309c0.409,0.541,0.288,1.311-0.273,1.712
					c-0.561,0.399-1.351,0.287-1.755-0.254c-0.41-0.547-0.288-1.312,0.273-1.717C32.254,50.65,33.039,50.767,33.448,51.309
					L33.448,51.309z"/>
				<path fill-rule="evenodd" clip-rule="evenodd" fill="#AE86BC" d="M32.035,51.104c0.195,0.024,0.331,0.195,0.302,0.38
					c-0.024,0.19-0.205,0.322-0.395,0.298c-0.195-0.024-0.327-0.195-0.302-0.385C31.668,51.211,31.844,51.079,32.035,51.104
					L32.035,51.104z"/>
			</g>
			<g>
				<path fill-rule="evenodd" clip-rule="evenodd" fill="#6B2776" d="M35.252,50.153c0.341,0.453,0.239,1.096-0.234,1.433
					c-0.468,0.337-1.126,0.239-1.467-0.214c-0.342-0.454-0.239-1.097,0.229-1.434C34.252,49.602,34.911,49.699,35.252,50.153
					L35.252,50.153z"/>
				<path fill-rule="evenodd" clip-rule="evenodd" fill="#AE86BC" d="M34.067,49.982c0.161,0.019,0.278,0.166,0.254,0.322
					c-0.025,0.154-0.171,0.267-0.332,0.248c-0.161-0.025-0.273-0.165-0.253-0.327C33.76,50.069,33.906,49.958,34.067,49.982
					L34.067,49.982z"/>
			</g>
			<g>
				<path fill-rule="evenodd" clip-rule="evenodd" fill="#6B2776" d="M29.577,56.311c0.341,0.453,0.239,1.097-0.234,1.433
					c-0.468,0.337-1.126,0.244-1.467-0.214c-0.341-0.453-0.239-1.098,0.229-1.434C28.578,55.76,29.236,55.857,29.577,56.311
					L29.577,56.311z"/>
				<path fill-rule="evenodd" clip-rule="evenodd" fill="#AE86BC" d="M28.397,56.14c0.161,0.02,0.272,0.165,0.249,0.322
					c-0.025,0.156-0.17,0.269-0.332,0.248c-0.161-0.024-0.273-0.166-0.254-0.326C28.085,56.228,28.231,56.115,28.397,56.14
					L28.397,56.14z"/>
			</g>
			<g>
				<path fill-rule="evenodd" clip-rule="evenodd" fill="#6B2776" d="M27.7,57.242c0.288,0.379,0.201,0.917-0.194,1.198
					c-0.39,0.278-0.941,0.201-1.229-0.18c-0.287-0.38-0.2-0.917,0.195-1.199C26.866,56.783,27.412,56.861,27.7,57.242L27.7,57.242z"
					/>
				<path fill-rule="evenodd" clip-rule="evenodd" fill="#AE86BC" d="M26.71,57.101c0.137,0.015,0.229,0.136,0.21,0.269
					c-0.02,0.131-0.142,0.219-0.278,0.204c-0.137-0.02-0.229-0.136-0.21-0.269C26.452,57.174,26.574,57.08,26.71,57.101
					L26.71,57.101z"/>
			</g>
			<g>
				<path fill-rule="evenodd" clip-rule="evenodd" fill="#6B2776" d="M35.686,47.583c0.41,0.546,0.288,1.312-0.272,1.711
					c-0.561,0.404-1.351,0.292-1.76-0.253c-0.405-0.542-0.283-1.307,0.278-1.711C34.492,46.93,35.277,47.042,35.686,47.583
					L35.686,47.583z"/>
				<path fill-rule="evenodd" clip-rule="evenodd" fill="#AE86BC" d="M34.277,47.379c0.19,0.024,0.322,0.194,0.297,0.385
					s-0.205,0.322-0.395,0.297c-0.195-0.024-0.327-0.195-0.302-0.385C33.901,47.486,34.082,47.354,34.277,47.379L34.277,47.379z"/>
			</g>
		</g>
		<g>
			<g>
				<path fill-rule="evenodd" clip-rule="evenodd" fill="#7EA43F" d="M29.202,44.054c0.146-0.151,0.473-0.395,0.619-0.546
					c0.166-0.176,0.097-0.269,0.024-0.195c-0.073,0.077-0.073,0.18-0.843,0.829C29.002,44.142,28.918,44.609,29.202,44.054z"/>
				<g>
					<g>
						<path fill-rule="evenodd" clip-rule="evenodd" fill="#5A873C" d="M28.349,45.74c-0.029,0.181-0.049,0.561-0.2,0.668
							c-0.146,0.107-0.146,0.107-0.146,0.107s0.083-0.214-0.083-0.214c-0.166,0-0.615,0.22-0.892,0.097
							c-0.278-0.117-0.273-0.083-0.39-0.039c-0.117,0.043-0.307,0.17-0.307,0.17s0.439-0.37,0.341-0.541
							c-0.098-0.17-0.078-0.556,0.087-0.717c0.156-0.166,0.034-0.229-0.053-0.249c-0.083-0.02-0.264,0.034-0.264,0.034
							s0.229-0.258,0.439-0.307c0.209-0.044,0.404,0.097,0.57,0.063c0.166-0.03,0.341-0.21,0.069-0.2
							c-0.273,0.01-0.678,0.141-0.83-0.015c-0.146-0.161-0.327-0.341-0.526-0.336c0.063-0.137,0.507-0.332,0.507-0.332
							s0.244-0.185,0.17-0.263c-0.073-0.073,0.214-0.17,0.214-0.17s-0.332-0.049-0.283-0.068s0.429-0.225,0.688-0.239
							c0.264-0.015,0.531,0.132,0.62,0.327c0.083,0.195,0.141,0.644,0.346,0.482c0.205-0.156-0.356-0.512-0.38-0.706
							c-0.029-0.195-0.035-0.317-0.035-0.317s0.312,0.322,0.464,0.254c0.151-0.069,0.365-0.093,0.365-0.093l0.156,0.204
							c0,0,0.225-0.073,0.21-0.2c0.146,0.049,0.38,0.527,0.18,0.678c-0.2,0.146-0.448,0.429-0.297,0.477
							c0.146,0.044,0.531-0.209,0.79-0.243c0.259-0.034,0.429,0.332,0.429,0.332s-0.146-0.074-0.19,0.024
							c-0.039,0.098,0.443,0.615,0.322,0.824c-0.122,0.205-0.122,0.443-0.122,0.443s-0.234-0.122-0.219-0.229
							c0.015-0.107-0.287-0.117-0.327-0.185c-0.034-0.063-0.024-0.512-0.209-0.346c-0.18,0.156,0.18,0.502,0.297,0.717
							c0.112,0.215-0.097,0.453-0.131,0.542c-0.034,0.087-0.034,0.238-0.034,0.238s-0.2-0.122-0.18-0.219
							c0.019-0.098,0.024-0.137,0.024-0.137s-0.02,0.176-0.225,0.375c-0.205,0.2-0.424,0.2-0.424,0.2l-0.151,0.283
							c0,0-0.273-0.204-0.225-0.492c0.044-0.283-0.146-0.229-0.146-0.229s0.029-0.117,0.097-0.225
							C28.587,45.779,28.378,45.56,28.349,45.74L28.349,45.74z"/>
						<path fill-rule="evenodd" clip-rule="evenodd" fill="#84A152" d="M28.899,44.302c0,0-0.288,0.049-0.766-0.122
							c-0.434-0.156-0.926,0.073-1.453,0.063c0.502-0.024,0.853-0.253,1.375-0.151c0.229,0.049,0.634,0.17,0.78,0.112
							c0.146-0.054,0.097-0.025,0.097-0.025s-0.015-0.385-0.156-0.561c-0.146-0.17-0.468-0.215-0.468-0.215s0.288,0.025,0.444,0.112
							c0.151,0.083,0.283,0.551,0.297,0.609c0.01,0.054-0.132,0.181,0.073,0.166c0.283,0.102,0.142,0.273,0.644,0.361
							c0.308,0.053,0.454,0.385,0.434,0.39c0,0-0.17-0.332-0.414-0.341c-0.361-0.02-0.678-0.346-0.639-0.336
							c0,0-0.015,0.234-0.054,0.482c-0.068,0.444-0.297,0.785-0.049,1.268c-0.2-0.297-0.195-0.644-0.083-0.99
							c0.102-0.303,0.029-0.761,0.029-0.761c-0.234,0.312-0.371,0.38-0.605,0.585c0.112,0.463-0.312,0.766-0.283,0.736
							c0.17-0.205,0.302-0.434,0.195-0.692c0,0-0.054,0.024-0.468,0.259c-0.332,0.194-0.712,0.541-0.843,0.896
							c0.093-0.458,0.532-0.76,0.917-1.014c0,0-0.146,0-0.365-0.063c-0.259-0.005-0.664,0.195-0.664,0.195s0.439-0.249,0.668-0.229
							c0.229,0.014,0.346,0.146,0.546,0c0.249-0.186,0.571-0.322,0.722-0.59C28.86,44.395,28.856,44.356,28.899,44.302
							L28.899,44.302z"/>
					</g>
					<path fill-rule="evenodd" clip-rule="evenodd" fill="#84A152" d="M27.642,45.297c0,0,0.034,0.434-0.214,0.673
						C27.427,45.97,27.642,45.531,27.642,45.297z"/>
					<path fill-rule="evenodd" clip-rule="evenodd" fill="#84A152" d="M28.081,44.19c0,0-0.288-0.38-0.741-0.39
						C27.339,43.8,27.837,43.937,28.081,44.19z"/>
				</g>
			</g>
			<path fill-rule="evenodd" clip-rule="evenodd" fill="#597534" d="M31.234,46.555c-0.122-1.107-0.911-3.365-2.945-5.446l-0.18,0.2
				C29.752,42.703,30.44,44.366,31.234,46.555L31.234,46.555z"/>
			<g>
				<path fill-rule="evenodd" clip-rule="evenodd" fill="#7EA43F" d="M31.547,43.171c-0.288-0.083-1.385-0.2-1.682-0.238
					c-0.337-0.049-0.351-0.225-0.205-0.205c0.152,0.024,0.59,0.176,1.946,0.312C31.605,43.04,32.415,43.424,31.547,43.171z"/>
				<g>
					<g>
						<path fill-rule="evenodd" clip-rule="evenodd" fill="#5A873C" d="M33.984,44.239c0.205,0.181,0.585,0.595,0.839,0.58
							c0.253-0.019,0.253-0.019,0.253-0.019s-0.292-0.166-0.117-0.322c0.171-0.156,0.844-0.326,1.019-0.727
							c0.176-0.399,0.205-0.351,0.365-0.414c0.161-0.058,0.478-0.092,0.478-0.092s-0.799-0.01-0.858-0.297
							c-0.059-0.283-0.449-0.712-0.765-0.747c-0.322-0.039-0.254-0.234-0.181-0.332c0.068-0.106,0.307-0.204,0.307-0.204
							s-0.482-0.093-0.746,0.053c-0.258,0.146-0.327,0.487-0.531,0.609c-0.2,0.117-0.551,0.078-0.259-0.166
							c0.293-0.249,0.839-0.473,0.843-0.8c0.005-0.321,0.02-0.697,0.229-0.877c-0.194-0.102-0.839,0.087-0.839,0.087
							s-0.423,0.02-0.419-0.136c0.005-0.156-0.38,0.005-0.38,0.005s0.292-0.371,0.224-0.346s-0.653,0.146-0.936,0.375
							c-0.283,0.225-0.429,0.653-0.332,0.956c0.098,0.303,0.458,0.868,0.093,0.883c-0.365,0.009-0.117-0.932-0.268-1.18
							c-0.156-0.249-0.268-0.395-0.268-0.395s-0.02,0.668-0.239,0.732c-0.219,0.068-0.468,0.234-0.468,0.234l0.034,0.385
							c0,0-0.303,0.131-0.41-0.034c-0.103,0.19,0.107,0.97,0.453,0.951c0.346-0.019,0.868,0.073,0.756,0.264
							c-0.112,0.195-0.746,0.263-1.048,0.468c-0.297,0.209-0.131,0.79-0.131,0.79s0.083-0.229,0.219-0.156
							c0.131,0.073,0.117,1.122,0.439,1.248c0.321,0.127,0.546,0.4,0.546,0.4s0.131-0.356,0.015-0.463
							c-0.117-0.112,0.185-0.41,0.161-0.522c-0.029-0.112-0.453-0.614-0.112-0.6c0.341,0.009,0.292,0.75,0.375,1.102
							c0.078,0.352,0.526,0.439,0.639,0.502c0.117,0.063,0.259,0.244,0.259,0.244s0.097-0.327-0.02-0.424
							c-0.107-0.098-0.152-0.127-0.152-0.127s0.19,0.176,0.585,0.215s0.629-0.166,0.629-0.166l0.419,0.185
							c0,0,0.092-0.497-0.225-0.78c-0.316-0.283-0.068-0.404-0.068-0.404s-0.136-0.103-0.308-0.161
							C33.78,44.502,33.785,44.059,33.984,44.239L33.984,44.239z"/>
						<path fill-rule="evenodd" clip-rule="evenodd" fill="#84A152" d="M32.063,43.098c0,0,0.341-0.209,0.683-0.863
							c0.302-0.584,1.024-0.78,1.565-1.292c-0.541,0.443-1.126,0.512-1.565,1.126c-0.195,0.269-0.497,0.785-0.702,0.858
							c-0.205,0.073-0.127,0.063-0.127,0.063s-0.351-0.463-0.366-0.794c-0.015-0.332,0.283-0.683,0.283-0.683
							s-0.277,0.298-0.355,0.542c-0.078,0.239,0.225,0.902,0.268,0.976c0.044,0.077,0.307,0.087,0.078,0.268
							c-0.2,0.385,0.107,0.444-0.327,1.019c-0.268,0.351-0.117,0.868-0.088,0.858c0,0-0.131-0.542,0.112-0.785
							c0.355-0.361,0.38-1.034,0.346-0.99c0,0,0.234,0.258,0.507,0.507c0.488,0.448,1.043,0.628,1.243,1.414
							c-0.073-0.532-0.399-0.927-0.843-1.214c-0.39-0.253-0.741-0.849-0.741-0.849c0.531,0.142,0.731,0.088,1.17,0.103
							c0.317,0.644,1.043,0.59,0.99,0.58c-0.375-0.073-0.727-0.214-0.858-0.609c0,0,0.083-0.024,0.731-0.136
							c0.526-0.093,1.243-0.054,1.716,0.229c-0.526-0.434-1.268-0.366-1.901-0.297c0,0,0.146-0.146,0.321-0.419
							c0.258-0.249,0.863-0.399,0.863-0.399s-0.688,0.126-0.907,0.361c-0.225,0.234-0.22,0.492-0.566,0.512
							c-0.429,0.024-0.888,0.17-1.302,0C32.195,43.167,32.161,43.118,32.063,43.098L32.063,43.098z"/>
					</g>
					<path fill-rule="evenodd" clip-rule="evenodd" fill="#84A152" d="M34.301,43.059c0,0,0.371,0.532,0.858,0.581
						C35.159,43.64,34.521,43.332,34.301,43.059z"/>
					<path fill-rule="evenodd" clip-rule="evenodd" fill="#84A152" d="M32.81,42.196c0,0-0.063-0.703,0.399-1.141
						C33.209,41.056,32.824,41.674,32.81,42.196z"/>
				</g>
			</g>
		</g>
	</g>
	<g>
		<g>
			<g>
				<path fill-rule="evenodd" clip-rule="evenodd" fill="#6B2776" d="M76.084,67.44c0.53,0.576,0.473,1.473-0.123,1.999
					c-0.604,0.527-1.516,0.482-2.047-0.098s-0.478-1.473,0.122-1.999S75.552,66.86,76.084,67.44L76.084,67.44z"/>
				<path fill-rule="evenodd" clip-rule="evenodd" fill="#AE86BC" d="M74.437,67.363c0.223,0,0.399,0.186,0.389,0.404
					c-0.01,0.225-0.199,0.395-0.424,0.385c-0.225-0.005-0.399-0.189-0.391-0.408C74.021,67.523,74.216,67.354,74.437,67.363
					L74.437,67.363z"/>
			</g>
			<g>
				<path fill-rule="evenodd" clip-rule="evenodd" fill="#6B2776" d="M70.687,65.359c0.531,0.575,0.478,1.472-0.122,1.998
					c-0.604,0.526-1.521,0.484-2.052-0.098c-0.527-0.58-0.474-1.471,0.126-1.998C69.238,64.739,70.155,64.779,70.687,65.359
					L70.687,65.359z"/>
				<path fill-rule="evenodd" clip-rule="evenodd" fill="#AE86BC" d="M69.039,65.28c0.224,0.006,0.399,0.191,0.39,0.405
					c-0.01,0.22-0.2,0.396-0.424,0.385c-0.225-0.004-0.4-0.185-0.391-0.408C68.624,65.446,68.814,65.271,69.039,65.28L69.039,65.28z
					"/>
			</g>
			<g>
				<path fill-rule="evenodd" clip-rule="evenodd" fill="#6B2776" d="M73.232,66.256c0.53,0.58,0.477,1.478-0.123,2
					c-0.599,0.526-1.516,0.482-2.052-0.094c-0.526-0.58-0.473-1.477,0.126-2.003C71.783,65.638,72.7,65.681,73.232,66.256
					L73.232,66.256z"/>
				<path fill-rule="evenodd" clip-rule="evenodd" fill="#AE86BC" d="M71.584,66.179c0.224,0.01,0.399,0.189,0.389,0.409
					c-0.009,0.219-0.198,0.391-0.423,0.385c-0.22-0.01-0.4-0.195-0.386-0.409C71.169,66.345,71.359,66.174,71.584,66.179
					L71.584,66.179z"/>
			</g>
			<g>
				<path fill-rule="evenodd" clip-rule="evenodd" fill="#6B2776" d="M75.747,64.604c0.526,0.575,0.474,1.473-0.127,1.999
					c-0.6,0.526-1.516,0.482-2.047-0.098c-0.532-0.574-0.479-1.473,0.127-1.994C74.299,63.979,75.215,64.023,75.747,64.604
					L75.747,64.604z"/>
				<path fill-rule="evenodd" clip-rule="evenodd" fill="#AE86BC" d="M74.1,64.525c0.225,0.006,0.399,0.19,0.39,0.409
					c-0.015,0.219-0.204,0.391-0.429,0.387c-0.219-0.011-0.396-0.191-0.385-0.411C73.686,64.691,73.875,64.517,74.1,64.525
					L74.1,64.525z"/>
			</g>
			<g>
				<path fill-rule="evenodd" clip-rule="evenodd" fill="#6B2776" d="M73.821,69.215c0.532,0.58,0.474,1.474-0.127,2
					c-0.6,0.526-1.516,0.482-2.048-0.093c-0.531-0.58-0.473-1.478,0.122-2.005C72.374,68.597,73.289,68.641,73.821,69.215
					L73.821,69.215z"/>
				<path fill-rule="evenodd" clip-rule="evenodd" fill="#AE86BC" d="M72.174,69.144c0.225,0,0.394,0.184,0.39,0.403
					c-0.011,0.219-0.2,0.39-0.425,0.386c-0.223-0.005-0.399-0.19-0.389-0.41C71.759,69.304,71.949,69.128,72.174,69.144
					L72.174,69.144z"/>
			</g>
			<g>
				<path fill-rule="evenodd" clip-rule="evenodd" fill="#6B2776" d="M71.135,68.25c0.532,0.58,0.474,1.478-0.127,2
					c-0.595,0.526-1.511,0.482-2.047-0.094c-0.526-0.58-0.474-1.477,0.127-2.004C69.688,67.632,70.604,67.67,71.135,68.25
					L71.135,68.25z"/>
				<path fill-rule="evenodd" clip-rule="evenodd" fill="#AE86BC" d="M69.487,68.173c0.224,0.01,0.399,0.189,0.391,0.409
					c-0.011,0.219-0.195,0.39-0.425,0.385c-0.225-0.01-0.395-0.189-0.391-0.409C69.073,68.339,69.263,68.162,69.487,68.173
					L69.487,68.173z"/>
			</g>
			<g>
				<path fill-rule="evenodd" clip-rule="evenodd" fill="#6B2776" d="M71.393,71.107c0.532,0.58,0.479,1.472-0.127,1.998
					c-0.595,0.526-1.515,0.484-2.042-0.098c-0.531-0.574-0.478-1.471,0.122-1.998C69.945,70.483,70.862,70.527,71.393,71.107
					L71.393,71.107z"/>
				<path fill-rule="evenodd" clip-rule="evenodd" fill="#AE86BC" d="M69.745,71.029c0.225,0.01,0.399,0.19,0.391,0.41
					c-0.01,0.219-0.199,0.39-0.425,0.385c-0.224-0.006-0.399-0.19-0.39-0.409C69.331,71.194,69.521,71.024,69.745,71.029
					L69.745,71.029z"/>
			</g>
			<g>
				<path fill-rule="evenodd" clip-rule="evenodd" fill="#6B2776" d="M68.961,72.984c0.536,0.58,0.478,1.473-0.122,1.999
					s-1.517,0.482-2.048-0.098s-0.473-1.473,0.127-1.999S68.435,72.404,68.961,72.984L68.961,72.984z"/>
				<path fill-rule="evenodd" clip-rule="evenodd" fill="#AE86BC" d="M67.317,72.906c0.225,0.004,0.396,0.19,0.385,0.409
					c-0.005,0.215-0.194,0.391-0.419,0.381c-0.225-0.005-0.399-0.189-0.39-0.405C66.903,73.072,67.093,72.897,67.317,72.906
					L67.317,72.906z"/>
			</g>
			<g>
				<path fill-rule="evenodd" clip-rule="evenodd" fill="#6B2776" d="M71.682,74.247c0.53,0.58,0.478,1.473-0.127,1.999
					c-0.6,0.526-1.512,0.482-2.048-0.098c-0.526-0.58-0.474-1.473,0.127-1.999C70.233,73.623,71.149,73.667,71.682,74.247
					L71.682,74.247z"/>
				<path fill-rule="evenodd" clip-rule="evenodd" fill="#AE86BC" d="M70.032,74.17c0.225,0.004,0.401,0.184,0.391,0.408
					c-0.01,0.22-0.199,0.391-0.424,0.381c-0.225-0.005-0.399-0.19-0.39-0.404C69.619,74.33,69.81,74.159,70.032,74.17L70.032,74.17z
					"/>
			</g>
			<g>
				<path fill-rule="evenodd" clip-rule="evenodd" fill="#6B2776" d="M69.263,75.836c0.532,0.576,0.478,1.473-0.121,1.999
					c-0.601,0.521-1.517,0.482-2.049-0.097c-0.536-0.575-0.478-1.474,0.122-2C67.81,75.212,68.731,75.256,69.263,75.836
					L69.263,75.836z"/>
				<path fill-rule="evenodd" clip-rule="evenodd" fill="#AE86BC" d="M67.615,75.759c0.225,0.005,0.399,0.189,0.39,0.404
					c-0.01,0.22-0.199,0.391-0.424,0.391c-0.225-0.011-0.399-0.195-0.391-0.41C67.205,75.924,67.391,75.753,67.615,75.759
					L67.615,75.759z"/>
			</g>
			<g>
				<path fill-rule="evenodd" clip-rule="evenodd" fill="#6B2776" d="M74.289,75.168c0.464,0.508,0.414,1.283-0.106,1.736
					c-0.521,0.458-1.316,0.419-1.78-0.083c-0.459-0.503-0.409-1.278,0.108-1.736C73.031,74.632,73.831,74.667,74.289,75.168
					L74.289,75.168z"/>
				<path fill-rule="evenodd" clip-rule="evenodd" fill="#AE86BC" d="M72.86,75.1c0.195,0.011,0.347,0.166,0.337,0.356
					c-0.005,0.19-0.171,0.341-0.37,0.336c-0.189-0.01-0.342-0.166-0.331-0.355C72.5,75.247,72.665,75.096,72.86,75.1L72.86,75.1z"/>
			</g>
			<g>
				<path fill-rule="evenodd" clip-rule="evenodd" fill="#6B2776" d="M76.371,73.575c0.463,0.501,0.414,1.276-0.106,1.734
					c-0.522,0.454-1.316,0.42-1.78-0.087c-0.463-0.503-0.409-1.277,0.106-1.736C75.113,73.033,75.913,73.067,76.371,73.575
					L76.371,73.575z"/>
				<path fill-rule="evenodd" clip-rule="evenodd" fill="#AE86BC" d="M74.942,73.507c0.195,0.004,0.347,0.16,0.337,0.35
					c-0.011,0.195-0.176,0.343-0.366,0.337c-0.195-0.005-0.346-0.166-0.341-0.355C74.582,73.646,74.748,73.496,74.942,73.507
					L74.942,73.507z"/>
			</g>
			<g>
				<path fill-rule="evenodd" clip-rule="evenodd" fill="#6B2776" d="M74.041,72.282c0.531,0.58,0.478,1.477-0.122,2.004
					c-0.6,0.522-1.517,0.482-2.048-0.098s-0.479-1.472,0.122-1.998C72.598,71.664,73.51,71.706,74.041,72.282L74.041,72.282z"/>
				<path fill-rule="evenodd" clip-rule="evenodd" fill="#AE86BC" d="M72.398,72.209c0.219,0.005,0.394,0.189,0.385,0.41
					c-0.01,0.219-0.201,0.389-0.424,0.38c-0.225-0.004-0.396-0.185-0.391-0.405C71.983,72.375,72.168,72.199,72.398,72.209
					L72.398,72.209z"/>
			</g>
			<g>
				<path fill-rule="evenodd" clip-rule="evenodd" fill="#6B2776" d="M76.392,70.6c0.53,0.58,0.477,1.479-0.127,2
					c-0.595,0.526-1.512,0.482-2.044-0.098c-0.531-0.575-0.477-1.468,0.122-1.994C74.942,69.981,75.859,70.02,76.392,70.6
					L76.392,70.6z"/>
				<path fill-rule="evenodd" clip-rule="evenodd" fill="#AE86BC" d="M74.742,70.522c0.225,0.005,0.401,0.189,0.391,0.409
					c-0.01,0.22-0.199,0.39-0.424,0.386c-0.225-0.011-0.396-0.191-0.385-0.41C74.328,70.688,74.519,70.517,74.742,70.522
					L74.742,70.522z"/>
			</g>
			<g>
				<path fill-rule="evenodd" clip-rule="evenodd" fill="#6B2776" d="M78.331,69.069c0.448,0.488,0.4,1.233-0.103,1.672
					c-0.502,0.444-1.268,0.405-1.716-0.077c-0.443-0.488-0.396-1.233,0.107-1.674C77.122,68.547,77.893,68.587,78.331,69.069
					L78.331,69.069z"/>
				<path fill-rule="evenodd" clip-rule="evenodd" fill="#AE86BC" d="M76.957,69.006c0.185,0.005,0.331,0.156,0.32,0.342
					c-0.004,0.185-0.166,0.326-0.35,0.322c-0.191-0.006-0.332-0.162-0.328-0.343C76.605,69.144,76.766,69.001,76.957,69.006
					L76.957,69.006z"/>
			</g>
			<g>
				<path fill-rule="evenodd" clip-rule="evenodd" fill="#6B2776" d="M72.505,76.792c0.443,0.482,0.396,1.233-0.106,1.673
					c-0.503,0.443-1.269,0.403-1.712-0.079c-0.448-0.487-0.4-1.233,0.103-1.672C71.291,76.271,72.056,76.31,72.505,76.792
					L72.505,76.792z"/>
				<path fill-rule="evenodd" clip-rule="evenodd" fill="#AE86BC" d="M71.126,76.729c0.185,0.006,0.331,0.156,0.32,0.341
					c-0.004,0.181-0.165,0.328-0.35,0.322c-0.191-0.005-0.337-0.156-0.332-0.341C70.774,76.865,70.935,76.724,71.126,76.729
					L71.126,76.729z"/>
			</g>
			<g>
				<path fill-rule="evenodd" clip-rule="evenodd" fill="#6B2776" d="M70.448,78.074c0.37,0.405,0.331,1.028-0.088,1.399
					c-0.42,0.365-1.063,0.336-1.439-0.068c-0.37-0.404-0.331-1.028,0.093-1.398C69.434,77.635,70.072,77.67,70.448,78.074
					L70.448,78.074z"/>
				<path fill-rule="evenodd" clip-rule="evenodd" fill="#AE86BC" d="M69.292,78.021c0.156,0.004,0.283,0.131,0.273,0.281
					c-0.005,0.157-0.137,0.278-0.297,0.273c-0.157-0.004-0.278-0.137-0.27-0.288C68.999,78.138,69.136,78.016,69.292,78.021
					L69.292,78.021z"/>
			</g>
			<g>
				<path fill-rule="evenodd" clip-rule="evenodd" fill="#6B2776" d="M78.546,66.066c0.526,0.58,0.477,1.477-0.127,1.998
					c-0.601,0.526-1.512,0.482-2.042-0.098c-0.537-0.574-0.479-1.467,0.121-1.994C77.097,65.446,78.014,65.486,78.546,66.066
					L78.546,66.066z"/>
				<path fill-rule="evenodd" clip-rule="evenodd" fill="#AE86BC" d="M76.897,65.987c0.225,0.011,0.4,0.191,0.391,0.411
					c-0.011,0.219-0.2,0.39-0.425,0.385c-0.224-0.006-0.399-0.19-0.389-0.409C76.483,66.159,76.674,65.983,76.897,65.987
					L76.897,65.987z"/>
			</g>
		</g>
		<g>
			<g>
				<path fill-rule="evenodd" clip-rule="evenodd" fill="#7EA43F" d="M70.687,62.736c0.15-0.195,0.502-0.507,0.653-0.702
					c0.171-0.219,0.078-0.321,0.005-0.225c-0.073,0.098-0.063,0.22-0.878,1.048C70.467,62.857,70.423,63.404,70.687,62.736z"/>
				<g>
					<g>
						<path fill-rule="evenodd" clip-rule="evenodd" fill="#5A873C" d="M69.896,64.774c-0.01,0.21,0.005,0.648-0.151,0.79
							c-0.16,0.136-0.16,0.136-0.16,0.136s0.072-0.254-0.117-0.233c-0.19,0.02-0.683,0.322-1.019,0.214
							c-0.332-0.107-0.322-0.068-0.454-0.004c-0.126,0.063-0.331,0.229-0.331,0.229s0.463-0.474,0.331-0.658
							c-0.132-0.181-0.151-0.629,0.02-0.834c0.166-0.204,0.015-0.269-0.088-0.283c-0.098-0.009-0.297,0.073-0.297,0.073
							s0.229-0.326,0.468-0.404c0.239-0.072,0.473,0.063,0.663,0.011c0.186-0.055,0.37-0.283,0.054-0.239
							c-0.313,0.044-0.766,0.243-0.951,0.073c-0.189-0.166-0.414-0.352-0.644-0.322c0.054-0.171,0.546-0.443,0.546-0.443
							s0.254-0.239,0.166-0.317c-0.092-0.078,0.225-0.219,0.225-0.219s-0.385-0.02-0.331-0.05c0.053-0.029,0.468-0.307,0.765-0.355
							s0.624,0.098,0.746,0.312c0.122,0.216,0.239,0.722,0.453,0.512c0.22-0.204-0.463-0.55-0.521-0.774
							c-0.055-0.214-0.069-0.355-0.069-0.355s0.395,0.337,0.561,0.243c0.166-0.098,0.41-0.151,0.41-0.151l0.199,0.22
							c0,0,0.254-0.107,0.225-0.259c0.171,0.045,0.492,0.571,0.278,0.761c-0.21,0.195-0.468,0.547-0.287,0.58
							c0.18,0.039,0.589-0.297,0.882-0.365c0.292-0.063,0.531,0.336,0.531,0.336s-0.18-0.072-0.22,0.044
							c-0.028,0.118,0.581,0.659,0.464,0.911c-0.112,0.254-0.089,0.527-0.089,0.527s-0.277-0.112-0.277-0.234
							c0.01-0.127-0.341-0.102-0.395-0.181c-0.05-0.072-0.089-0.584-0.278-0.379c-0.195,0.21,0.264,0.565,0.42,0.799
							c0.155,0.229-0.059,0.532-0.094,0.639c-0.028,0.098-0.01,0.272-0.01,0.272s-0.238-0.116-0.233-0.229
							c0.01-0.121,0.015-0.161,0.015-0.161s-0.005,0.206-0.215,0.454c-0.209,0.253-0.468,0.282-0.468,0.282l-0.137,0.337
							c0,0-0.341-0.201-0.322-0.532c0.025-0.335-0.189-0.253-0.189-0.253s0.021-0.138,0.083-0.269
							C70.174,64.789,69.911,64.559,69.896,64.774L69.896,64.774z"/>
						<path fill-rule="evenodd" clip-rule="evenodd" fill="#84A152" d="M70.369,63.059c0,0-0.326,0.087-0.896-0.06
							c-0.517-0.127-1.053,0.19-1.663,0.239c0.576-0.082,0.956-0.39,1.565-0.327c0.268,0.029,0.746,0.118,0.907,0.04
							c0.16-0.079,0.111-0.034,0.111-0.034s-0.063-0.449-0.243-0.63c-0.186-0.185-0.561-0.193-0.561-0.193s0.332-0.011,0.521,0.071
							c0.185,0.083,0.391,0.605,0.405,0.669c0.019,0.063-0.127,0.225,0.106,0.186c0.337,0.083,0.19,0.297,0.78,0.346
							c0.361,0.024,0.569,0.385,0.546,0.395c0,0-0.234-0.36-0.518-0.346c-0.418,0.02-0.817-0.317-0.77-0.312
							c0,0,0.009,0.267-0.006,0.56c-0.033,0.518-0.252,0.938,0.083,1.464c-0.263-0.322-0.297-0.718-0.204-1.132
							c0.083-0.355-0.054-0.873-0.054-0.873c-0.233,0.385-0.38,0.479-0.634,0.736c0.185,0.518-0.269,0.917-0.243,0.882
							c0.176-0.258,0.307-0.536,0.15-0.817c0,0-0.058,0.033-0.507,0.35c-0.361,0.26-0.756,0.698-0.873,1.127
							c0.06-0.541,0.532-0.937,0.946-1.269c0,0-0.171,0.011-0.435-0.033c-0.297,0.024-0.735,0.297-0.735,0.297
							s0.478-0.336,0.741-0.341c0.264-0.006,0.414,0.132,0.624-0.059c0.268-0.244,0.624-0.434,0.766-0.761
							C70.33,63.171,70.321,63.121,70.369,63.059L70.369,63.059z"/>
					</g>
					<path fill-rule="evenodd" clip-rule="evenodd" fill="#84A152" d="M69.033,64.34c0,0,0.089,0.493-0.17,0.801
						C68.863,65.141,69.059,64.608,69.033,64.34z"/>
					<path fill-rule="evenodd" clip-rule="evenodd" fill="#84A152" d="M69.409,63.02c0,0-0.365-0.405-0.893-0.366
						C68.517,62.653,69.102,62.751,69.409,63.02z"/>
				</g>
			</g>
			<path fill-rule="evenodd" clip-rule="evenodd" fill="#597534" d="M73.31,65.378c-0.269-1.257-1.429-3.758-4.003-5.928
				l-0.185,0.254C71.169,61.117,72.149,62.951,73.31,65.378L73.31,65.378z"/>
			<g>
				<path fill-rule="evenodd" clip-rule="evenodd" fill="#7EA43F" d="M73.285,61.458c-0.342-0.063-1.614-0.077-1.96-0.086
					c-0.395-0.016-0.434-0.221-0.258-0.21c0.171,0.004,0.697,0.136,2.271,0.136C73.339,61.298,74.313,61.649,73.285,61.458z"/>
				<g>
					<g>
						<path fill-rule="evenodd" clip-rule="evenodd" fill="#5A873C" d="M76.211,62.41c0.253,0.185,0.735,0.619,1.027,0.569
							c0.293-0.048,0.293-0.048,0.293-0.048s-0.355-0.161-0.175-0.355c0.181-0.201,0.936-0.47,1.092-0.952
							c0.16-0.482,0.195-0.429,0.376-0.516c0.18-0.088,0.535-0.162,0.535-0.162s-0.921,0.079-1.023-0.248
							c-0.098-0.317-0.59-0.766-0.961-0.771c-0.37-0.009-0.316-0.238-0.249-0.36c0.068-0.127,0.332-0.269,0.332-0.269
							s-0.565-0.054-0.848,0.142c-0.283,0.2-0.322,0.604-0.541,0.766c-0.219,0.155-0.63,0.151-0.316-0.166
							c0.312-0.316,0.911-0.639,0.876-1.014c-0.029-0.37-0.053-0.805,0.166-1.033c-0.233-0.098-0.955,0.199-0.955,0.199
							s-0.482,0.063-0.498-0.112c-0.009-0.181-0.438,0.044-0.438,0.044s0.296-0.458,0.225-0.42
							c-0.079,0.035-0.737,0.239-1.035,0.532c-0.307,0.293-0.418,0.805-0.277,1.142c0.146,0.335,0.624,0.95,0.205,1.003
							c-0.415,0.054-0.239-1.053-0.439-1.325c-0.204-0.269-0.35-0.425-0.35-0.425s0.053,0.771-0.195,0.872
							c-0.245,0.098-0.512,0.318-0.512,0.318l0.082,0.438c0,0-0.331,0.186-0.478,0.005c-0.098,0.234,0.239,1.102,0.633,1.043
							c0.391-0.063,1.005-0.015,0.898,0.225c-0.108,0.233-0.83,0.381-1.15,0.653c-0.322,0.268-0.064,0.921-0.064,0.921
							s0.068-0.272,0.233-0.204c0.162,0.073,0.26,1.277,0.65,1.384c0.379,0.112,0.666,0.399,0.666,0.399s0.112-0.418-0.033-0.535
							c-0.15-0.112,0.17-0.488,0.127-0.615c-0.044-0.125-0.595-0.657-0.2-0.682c0.396-0.02,0.424,0.833,0.556,1.229
							c0.137,0.399,0.653,0.443,0.795,0.507c0.141,0.063,0.321,0.248,0.321,0.248s0.079-0.385-0.063-0.486
							c-0.142-0.098-0.19-0.127-0.19-0.127s0.234,0.181,0.692,0.185c0.463-0.004,0.702-0.268,0.702-0.268l0.506,0.166
							c0,0,0.054-0.58-0.346-0.869c-0.395-0.292-0.122-0.458-0.122-0.458s-0.171-0.102-0.37-0.151
							C76.001,62.736,75.961,62.225,76.211,62.41L76.211,62.41z"/>
						<path fill-rule="evenodd" clip-rule="evenodd" fill="#84A152" d="M73.869,61.316c0,0,0.376-0.281,0.688-1.071
							c0.282-0.707,1.098-1.015,1.657-1.663c-0.57,0.575-1.243,0.717-1.677,1.474c-0.19,0.325-0.482,0.955-0.707,1.067
							c-0.225,0.102-0.137,0.087-0.137,0.087s-0.458-0.492-0.512-0.877c-0.054-0.381,0.249-0.819,0.249-0.819
							s-0.288,0.376-0.352,0.663c-0.063,0.293,0.36,1.015,0.419,1.098c0.06,0.082,0.361,0.067,0.122,0.292
							c-0.185,0.468,0.171,0.507-0.264,1.214c-0.267,0.435-0.033,1.015,0,0.994c0,0-0.214-0.604,0.035-0.917
							c0.375-0.453,0.322-1.228,0.293-1.175c0,0,0.292,0.269,0.639,0.532c0.609,0.453,1.271,0.599,1.589,1.486
							c-0.146-0.609-0.565-1.023-1.112-1.306c-0.473-0.245-0.944-0.898-0.944-0.898c0.628,0.108,0.853,0.025,1.358-0.009
							c0.44,0.702,1.269,0.561,1.205,0.556c-0.438-0.044-0.862-0.166-1.058-0.604c0,0,0.092-0.04,0.823-0.239
							c0.595-0.165,1.425-0.2,1.999,0.068c-0.647-0.438-1.496-0.278-2.218-0.127c0,0,0.15-0.181,0.321-0.521
							c0.273-0.313,0.95-0.55,0.95-0.55s-0.778,0.219-1.003,0.516c-0.23,0.293-0.195,0.591-0.591,0.653
							c-0.497,0.073-1.009,0.293-1.497,0.147C74.036,61.381,73.987,61.322,73.869,61.316L73.869,61.316z"/>
					</g>
					<path fill-rule="evenodd" clip-rule="evenodd" fill="#84A152" d="M76.445,61.021c0,0,0.482,0.565,1.053,0.565
						C77.498,61.586,76.727,61.304,76.445,61.021z"/>
					<path fill-rule="evenodd" clip-rule="evenodd" fill="#84A152" d="M74.626,60.191c0,0-0.147-0.799,0.337-1.355
						C74.963,58.836,74.587,59.592,74.626,60.191z"/>
				</g>
			</g>
		</g>
	</g>
	<g>
		<path fill="#65863B" d="M45.305,33.864c1.375-6.216,3.365-8.459,4.397-13.256c1.405-6.509,0.4-9.858,8.504-8.839
			c-2.887,5.851-10.269,12.944-12.901,22.709V33.864z"/>
		<path fill="#65863B" d="M37.626,10.204c6.674,4.232,7.44,14.631,7.44,14.631s-8.995,4.992-15.67,0.765
			c-6.669-4.222-8.498-16.064-8.498-16.064S30.952,5.986,37.626,10.204z"/>
	</g>
	<g>
		<ellipse fill="#F69220" cx="25.969" cy="67.558" rx="3.954" ry="3.579"/>
		<path fill="#871721" d="M24.575,65.564c0.098,0.2,0.458,0.229,0.814,0.059c0.356-0.166,0.566-0.474,0.468-0.674
			c-0.093-0.199-0.458-0.229-0.814-0.059C24.692,65.062,24.478,65.359,24.575,65.564z"/>
	</g>
	<path fill="#8BC541" d="M50.351,42.625l20.169,2.077c0.639-4.899-3.462-9.375-9.15-10.004C55.68,34.074,50.99,37.73,50.351,42.625z
		"/>
	<path fill="#EE4037" d="M51.561,42.664l17.42,1.917c0.531-4.071-2.936-7.801-7.747-8.333
		C56.421,35.722,52.092,38.593,51.561,42.664z"/>
	<path fill="#871721" d="M61.164,37.828c0.035-0.249,0.201-0.439,0.376-0.42c0.181,0.02,0.293,0.239,0.264,0.493
		c-0.039,0.254-0.381,0.424-0.381,0.424S61.136,38.081,61.164,37.828z"/>
	<path fill="#871721" d="M62.876,38.189c0.127-0.229,0.356-0.361,0.517-0.293c0.161,0.063,0.186,0.302,0.059,0.536
		c-0.122,0.229-0.512,0.292-0.512,0.292S62.75,38.418,62.876,38.189z"/>
	<path fill="#871721" d="M62.145,39.642c0.122-0.229,0.356-0.361,0.512-0.297c0.161,0.068,0.19,0.312,0.063,0.536
		c-0.127,0.229-0.517,0.297-0.517,0.297S62.018,39.871,62.145,39.642z"/>
	<path fill="#871721" d="M64.036,38.778c0.22-0.175,0.493-0.224,0.614-0.107c0.117,0.112,0.039,0.341-0.175,0.512
		c-0.215,0.176-0.604,0.107-0.604,0.107S63.822,38.949,64.036,38.778z"/>
	<path fill="#871721" d="M65.109,39.89c0.239-0.146,0.517-0.166,0.619-0.04c0.106,0.123-0.006,0.347-0.244,0.493
		c-0.239,0.142-0.619,0.04-0.619,0.04S64.87,40.041,65.109,39.89z"/>
	<path fill="#871721" d="M63.217,40.173c0.239-0.142,0.513-0.161,0.62-0.039c0.103,0.122-0.01,0.346-0.249,0.493
		s-0.614,0.039-0.614,0.039S62.974,40.324,63.217,40.173z"/>
	<path fill="#871721" d="M66.309,41.948c0.278-0.088,0.551-0.04,0.609,0.102c0.063,0.146-0.112,0.332-0.386,0.414
		c-0.277,0.083-0.614-0.102-0.614-0.102S66.03,42.035,66.309,41.948z"/>
	<path fill="#871721" d="M65.874,40.855c0.254-0.122,0.532-0.112,0.619,0.024c0.088,0.131-0.048,0.336-0.307,0.463
		c-0.258,0.117-0.624-0.024-0.624-0.024S65.616,40.978,65.874,40.855z"/>
	<path fill="#871721" d="M64.056,40.992c0.254-0.127,0.537-0.117,0.62,0.019c0.087,0.132-0.049,0.342-0.308,0.463
		s-0.624-0.024-0.624-0.024S63.797,41.114,64.056,40.992z"/>
	<path fill="#871721" d="M59.707,38.066c-0.107-0.238-0.063-0.478,0.103-0.531c0.165-0.053,0.386,0.098,0.492,0.336
		c0.107,0.239-0.103,0.526-0.103,0.526S59.814,38.3,59.707,38.066z"/>
	<path fill="#871721" d="M59.907,39.578c-0.107-0.239-0.063-0.478,0.102-0.531c0.166-0.054,0.386,0.098,0.493,0.336
		c0.107,0.239-0.103,0.527-0.103,0.527S60.015,39.812,59.907,39.578z"/>
	<path fill="#871721" d="M58.327,38.501c-0.185-0.205-0.215-0.439-0.078-0.532c0.142-0.092,0.4-0.004,0.581,0.2
		c0.18,0.205,0.077,0.537,0.077,0.537S58.508,38.706,58.327,38.501z"/>
	<path fill="#871721" d="M58.635,39.943c-0.181-0.204-0.215-0.443-0.078-0.536c0.142-0.093,0.399,0,0.58,0.2
		c0.18,0.205,0.078,0.536,0.078,0.536S58.815,40.144,58.635,39.943z"/>
	<path fill="#871721" d="M57.002,39.374c-0.191-0.195-0.239-0.434-0.104-0.532c0.137-0.092,0.4-0.015,0.59,0.18
		c0.19,0.195,0.104,0.531,0.104,0.531S57.196,39.568,57.002,39.374z"/>
	<path fill="#871721" d="M57.66,40.65c-0.191-0.195-0.239-0.434-0.104-0.526c0.132-0.102,0.395-0.02,0.59,0.176
		c0.19,0.195,0.103,0.531,0.103,0.531S57.85,40.846,57.66,40.65z"/>
	<path fill="#871721" d="M56.24,40.363c-0.264-0.112-0.414-0.322-0.341-0.454c0.077-0.137,0.355-0.151,0.624-0.039
		c0.264,0.117,0.341,0.453,0.341,0.453S56.509,40.475,56.24,40.363z"/>
	<path fill="#871721" d="M55.777,41.417c-0.292-0.059-0.492-0.225-0.458-0.375c0.039-0.146,0.302-0.22,0.595-0.161
		c0.287,0.059,0.453,0.375,0.453,0.375S56.065,41.475,55.777,41.417z"/>
	<path fill="#871721" d="M61.019,39.344c0.029-0.249,0.2-0.439,0.375-0.42c0.176,0.02,0.293,0.239,0.259,0.493
		c-0.034,0.254-0.376,0.424-0.376,0.424S60.984,39.598,61.019,39.344z"/>
	<g>
		<path fill="#8BC541" d="M43.185,86.192l-17.562-9.348c-2.725,4.252-0.931,9.863,4.002,12.535
			C34.564,92.057,40.454,90.443,43.185,86.192z"/>
		<path fill="#EE4037" d="M42.131,85.681l-15.119-8.187c-2.267,3.53-0.722,8.229,3.452,10.491
			C34.643,90.248,39.864,89.214,42.131,85.681z"/>
		<path fill="#871721" d="M31.215,86.563c-0.136,0.214-0.375,0.331-0.527,0.248c-0.156-0.082-0.161-0.331-0.019-0.546
			c0.141-0.22,0.526-0.249,0.526-0.249S31.357,86.343,31.215,86.563z"/>
		<path fill="#871721" d="M29.812,85.602c-0.215,0.166-0.483,0.2-0.605,0.079c-0.117-0.123-0.034-0.347,0.18-0.512
			c0.215-0.162,0.6-0.079,0.6-0.079S30.026,85.441,29.812,85.602z"/>
		<path fill="#871721" d="M31.118,84.544c-0.214,0.161-0.488,0.195-0.605,0.078c-0.112-0.118-0.034-0.352,0.181-0.512
			c0.214-0.166,0.6-0.078,0.6-0.078S31.332,84.379,31.118,84.544z"/>
		<path fill="#871721" d="M29.002,84.637c-0.273,0.077-0.541,0.02-0.604-0.133c-0.059-0.146,0.112-0.326,0.38-0.403
			c0.273-0.079,0.605,0.127,0.605,0.127S29.275,84.559,29.002,84.637z"/>
		<path fill="#871721" d="M28.51,83.217c-0.284,0.05-0.547-0.038-0.585-0.189c-0.039-0.15,0.156-0.312,0.439-0.36
			c0.278-0.044,0.584,0.194,0.584,0.194S28.792,83.169,28.51,83.217z"/>
		<path fill="#871721" d="M30.367,83.657c-0.283,0.048-0.542-0.039-0.585-0.191c-0.039-0.151,0.156-0.312,0.439-0.355
			c0.283-0.048,0.585,0.189,0.585,0.189S30.655,83.613,30.367,83.657z"/>
		<path fill="#871721" d="M28.314,80.897c-0.292-0.029-0.522-0.171-0.517-0.322c0.005-0.156,0.244-0.264,0.537-0.239
			c0.292,0.025,0.517,0.322,0.517,0.322S28.602,80.917,28.314,80.897z"/>
		<path fill="#871721" d="M28.231,82.053c-0.288,0.02-0.537-0.093-0.561-0.254c-0.02-0.15,0.195-0.287,0.487-0.302
			c0.288-0.02,0.561,0.249,0.561,0.249S28.519,82.038,28.231,82.053z"/>
		<path fill="#871721" d="M29.958,82.604c-0.288,0.02-0.541-0.098-0.561-0.248c-0.024-0.156,0.195-0.298,0.483-0.313
			c0.293-0.016,0.561,0.248,0.561,0.248S30.245,82.589,29.958,82.604z"/>
		<path fill="#871721" d="M32.659,86.885c-0.005,0.258-0.152,0.458-0.327,0.447c-0.176-0.015-0.308-0.233-0.303-0.491
			c0.005-0.254,0.322-0.444,0.322-0.444S32.659,86.625,32.659,86.885z"/>
		<path fill="#871721" d="M33.136,85.427c-0.005,0.258-0.151,0.458-0.327,0.448c-0.171-0.01-0.307-0.234-0.303-0.487
			c0.005-0.259,0.327-0.443,0.327-0.443S33.141,85.169,33.136,85.427z"/>
		<path fill="#871721" d="M34.111,86.997c0.078,0.252,0.005,0.482-0.161,0.516c-0.17,0.035-0.365-0.146-0.443-0.399
			c-0.079-0.254,0.161-0.518,0.161-0.518S34.033,86.743,34.111,86.997z"/>
		<path fill="#871721" d="M34.462,85.563c0.073,0.254,0,0.488-0.166,0.518c-0.166,0.033-0.366-0.147-0.444-0.399
			c-0.073-0.249,0.166-0.518,0.166-0.518S34.379,85.309,34.462,85.563z"/>
		<path fill="#871721" d="M35.706,86.689c0.092,0.248,0.029,0.482-0.137,0.521c-0.166,0.038-0.37-0.131-0.463-0.38
			c-0.087-0.254,0.137-0.526,0.137-0.526S35.613,86.44,35.706,86.689z"/>
		<path fill="#871721" d="M35.662,85.275c0.092,0.249,0.029,0.482-0.132,0.521c-0.17,0.038-0.375-0.131-0.463-0.38
			c-0.093-0.254,0.136-0.526,0.136-0.526S35.574,85.021,35.662,85.275z"/>
		<path fill="#871721" d="M36.832,86.06c0.195,0.205,0.244,0.449,0.117,0.542c-0.127,0.098-0.39,0.009-0.585-0.19
			c-0.194-0.204-0.117-0.541-0.117-0.541S36.641,85.855,36.832,86.06z"/>
		<path fill="#871721" d="M37.724,85.271c0.239,0.161,0.351,0.385,0.254,0.508c-0.103,0.121-0.375,0.092-0.609-0.068
			c-0.244-0.162-0.258-0.508-0.258-0.508S37.485,85.109,37.724,85.271z"/>
		<path fill="#871721" d="M32.02,85.231c-0.142,0.215-0.38,0.326-0.532,0.243c-0.151-0.083-0.16-0.326-0.019-0.54
			c0.142-0.221,0.526-0.254,0.526-0.254S32.161,85.007,32.02,85.231z"/>
	</g>
	<g>
		<path fill="#EA2227" d="M62.827,81.258c0.98-0.674,1.395-1.589-0.526-2.974c-2.097-1.522-2.677-0.624-2.965,0.531
			c-0.312,1.257-0.502,2.354,0.464,3.028C60.823,82.56,61.652,82.058,62.827,81.258z"/>
		<path fill="#6DBF70" d="M61.838,76.972c0.424,0.605,0.546,1.147,0.546,1.147c0.024,0.019,0.127,0.092-0.941-0.62
			c-0.424-0.288-0.818-0.595-0.507-0.877C61.238,76.348,61.555,76.568,61.838,76.972z"/>
		<path fill="#6DBF70" d="M63.573,78.19c-0.741-0.198-1.302-0.127-1.302-0.127c-0.029-0.015-0.137-0.092,0.956,0.688
			c0.434,0.308,0.877,0.58,1.023,0.181C64.392,78.548,64.061,78.317,63.573,78.19z"/>
		<path fill="#6DBF70" d="M63.607,77.957c-0.624,0.195-1.224,0.127-1.224,0.127c-0.02,0.015-0.083,0.088,0.551-0.692
			c0.249-0.308,0.531-0.58,0.917-0.181C64.217,77.592,64.021,77.826,63.607,77.957z"/>
		<path fill="#6DBF70" d="M62.062,76.895c0.045,0.657,0.332,1.199,0.332,1.199c-0.01,0.025-0.054,0.111,0.434-0.771
			c0.19-0.352,0.337-0.716-0.171-0.932C62.174,76.188,62.028,76.46,62.062,76.895z"/>
		<path fill="#871721" d="M61.491,79.024c-0.043,0.064-0.215,0.19-0.278,0.147c-0.063-0.05,0-0.249,0.04-0.308
			c0.043-0.063,0.132-0.073,0.195-0.029C61.512,78.883,61.53,78.966,61.491,79.024z"/>
		<path fill="#871721" d="M62.018,79.386c-0.038,0.054-0.189,0.16-0.253,0.112c-0.068-0.044-0.02-0.225,0.015-0.278
			c0.034-0.048,0.117-0.059,0.186-0.009C62.028,79.255,62.052,79.332,62.018,79.386z"/>
		<path fill="#871721" d="M61.809,80.112c-0.044,0.058-0.21,0.185-0.278,0.141c-0.063-0.043,0-0.248,0.039-0.306
			c0.044-0.059,0.127-0.074,0.195-0.025C61.828,79.966,61.848,80.049,61.809,80.112z"/>
		<path fill="#871721" d="M60.321,80.629c-0.039,0.059-0.209,0.186-0.272,0.142c-0.069-0.044-0.006-0.249,0.038-0.308
			c0.039-0.063,0.127-0.072,0.19-0.029C60.341,80.482,60.365,80.571,60.321,80.629z"/>
		<path fill="#871721" d="M60.994,78.699c-0.044,0.057-0.21,0.184-0.278,0.14c-0.063-0.043,0-0.248,0.044-0.306
			c0.039-0.059,0.127-0.073,0.19-0.029C61.019,78.548,61.033,78.635,60.994,78.699z"/>
		<path fill="#871721" d="M60.745,79.371c-0.044,0.059-0.209,0.186-0.277,0.142c-0.059-0.05,0-0.249,0.044-0.308
			c0.039-0.063,0.127-0.073,0.189-0.029C60.77,79.22,60.79,79.309,60.745,79.371z"/>
		<path fill="#871721" d="M61.258,79.746c-0.039,0.06-0.205,0.187-0.273,0.143c-0.063-0.045-0.005-0.249,0.039-0.313
			c0.044-0.054,0.127-0.068,0.195-0.019C61.282,79.601,61.302,79.688,61.258,79.746z"/>
		<path fill="#871721" d="M60.248,79.034c-0.044,0.064-0.205,0.191-0.273,0.147c-0.063-0.05-0.004-0.249,0.04-0.308
			c0.043-0.063,0.126-0.073,0.189-0.024C60.272,78.894,60.293,78.977,60.248,79.034z"/>
		<path fill="#871721" d="M60.604,80.166c-0.043,0.063-0.209,0.189-0.272,0.146c-0.068-0.048-0.005-0.248,0.039-0.307
			c0.039-0.063,0.127-0.072,0.19-0.03C60.624,80.02,60.644,80.107,60.604,80.166z"/>
		<path fill="#871721" d="M61.115,80.546c-0.038,0.059-0.209,0.19-0.272,0.142c-0.063-0.044-0.004-0.249,0.039-0.308
			c0.039-0.063,0.127-0.072,0.195-0.029C61.141,80.4,61.16,80.482,61.115,80.546z"/>
		<path fill="#871721" d="M60.106,79.839c-0.038,0.059-0.21,0.186-0.272,0.142c-0.068-0.044-0.005-0.249,0.039-0.308
			c0.038-0.063,0.127-0.072,0.19-0.029C60.132,79.688,60.15,79.776,60.106,79.839z"/>
	</g>
	<path fill="none" d="M45.042,61.932c0.912,0.259,1.912-0.287,2.233-1.225c0.439-1.287-0.205-1.924-1.068-2.174
		c-0.912-0.264-1.911,0.283-2.228,1.224C43.657,60.694,44.135,61.668,45.042,61.932z"/>
	<path fill="#8BC541" d="M80.944,53.492c-0.19,0.99-1.423,1.517-1.423,1.517s-1.059-0.893-0.863-1.887
		c0.185-0.989,1.545-1.702,1.545-1.702S81.129,52.498,80.944,53.492z"/>
	<g>
		<path fill="#7C8C38" d="M45.286,87.421c-0.985-0.444-1.185-1.678-1.185-1.678s1.224-0.683,2.208-0.239
			c0.985,0.443,1.351,1.843,1.351,1.843S46.271,87.864,45.286,87.421z"/>
		<path fill="#ADA736" d="M47.977,87.162c-0.166-1.321,0.76-1.839,1.414-2.038c0.848-0.269,1.676-0.15,2.306-0.575
			c1.17-0.794,0.94-1.307,1.867-2.013c1.472-1.122,5.124-1.147,6.191,0.35c1.199,1.668,1.687,3.253,0.604,5.744
			c-0.823,1.906-4.241,2.568-6.216,1.447c-0.829-0.462-0.81-0.761-2.033-1.086c-0.838-0.225-1.639-0.127-2.306-0.151
			C49.205,88.825,48.137,88.4,47.977,87.162z"/>
		<path fill="#D1C852" d="M56.445,85.475c1.126,0.117,2.111-0.414,2.204-1.185c0.088-0.766-0.751-1.477-1.877-1.589
			c-1.121-0.112-2.106,0.419-2.199,1.185S55.319,85.363,56.445,85.475z"/>
	</g>
	<path fill="#7C8C38" d="M21.25,70.176c-2.384-0.375-5.173-2.861-5.212-5.197c2.448-0.574,4.476,1.517,5.217,3.423
		c0.219,0.556,0.278,1.16,0.268,1.745c-0.249-0.038-0.506-0.063-0.692-0.16"/>
	<path fill="#7C8C38" d="M51.263,75.661c-1.438-0.225-3.115-1.726-3.139-3.13c1.472-0.347,2.695,0.911,3.144,2.062
		c0.133,0.332,0.171,0.698,0.16,1.048c-0.15-0.023-0.301-0.038-0.418-0.098"/>
	<path fill="#7C8C38" d="M76.653,54.214c1.727,0.352,3.082,1.526,2.922,3.295c-1.849,0.372-2.683-0.482-3.073-1.949
		c-0.11-0.424-0.106-0.888-0.053-1.331c0.186,0.038,0.371,0.063,0.497,0.142"/>
	<g>
		<path fill="#77A841" d="M72.047,56.208c-0.181-1.521,0.063-3.51,2.209-2.93c0.565,0.15,1.696,0.385,1.516,1.111
			c-0.185,0.746-1.282,0.823-1.936,0.862c-0.849,0.05-1.56,0.025-1.78,0.902c-0.019,0.094,0,0.005,0,0.005"/>
	</g>
	<g>
		<path fill="#7C8C38" d="M24.701,62.298c1.151-1.639,3.023-3.35,4.739-1.269c0.863,1.044,1.341,1.634,0.531,2.213
			c-0.839,0.605-1.994-0.125-2.667-0.569c-0.882-0.575-1.569-1.126-2.549-0.419c-0.103,0.073-0.005,0.005-0.005,0.005"/>
	</g>
	<g>
		<path fill="#7C8C38" d="M21.328,76.572c-0.229-1.94,0.048-4.354,2.808-3.734c1.384,0.308,2.165,0.492,1.936,1.409
			c-0.239,0.95-1.634,1.053-2.462,1.103c-1.083,0.068-1.989,0.033-2.267,1.149c-0.029,0.117,0,0.011,0,0.011"/>
	</g>
	<g>
		<path fill="#77A841" d="M50.668,55.959c-0.229-1.94,0.049-4.353,2.809-3.734c1.385,0.312,2.164,0.492,1.931,1.414
			c-0.234,0.95-1.628,1.054-2.462,1.098c-1.078,0.068-1.989,0.033-2.263,1.154c-0.029,0.112-0.005,0.006,0,0.006"/>
	</g>
	<g>
		<path fill="#77A841" d="M64.538,47.793c-0.189-1.556,0.034-3.497,2.253-2.994c1.112,0.249,1.735,0.39,1.55,1.131
			c-0.189,0.765-1.311,0.844-1.979,0.882c-0.863,0.054-1.595,0.029-1.813,0.927c-0.025,0.092-0.005,0.005,0,0.005"/>
	</g>
	<g>
		<path fill="#7C8C38" d="M63.788,51.035c1.853,0.751,4.339,1.17,4.655-1.521c0.161-1.35,0.239-2.106-0.75-2.155
			c-1.024-0.049-1.6,1.195-1.926,1.94c-0.425,0.965-0.703,1.804-1.907,1.74c-0.121-0.004-0.004,0.006-0.004,0.006"/>
	</g>
	<path fill="#F69220" d="M45.451,78.699c0,2.154,2.106,3.904,4.709,3.904c2.599,0,4.709-1.75,4.709-3.904
		c0-2.15-2.11-3.901-4.709-3.901C47.558,74.798,45.451,76.549,45.451,78.699z"/>
	<path fill="#871721" d="M48.498,76.528c0.112,0.219,0.552,0.249,0.971,0.064c0.424-0.181,0.673-0.512,0.561-0.731
		c-0.117-0.221-0.551-0.25-0.975-0.064C48.635,75.978,48.387,76.304,48.498,76.528z"/>
	<g>
		<path fill="#EA2227" d="M70.754,41.094c0.352,1.306,1.044,2.15,3.336,0.834c2.501-1.439,1.75-2.433,0.595-3.257
			c-1.263-0.892-2.39-1.59-3.516-0.917C69.975,38.466,70.34,39.529,70.754,41.094z"/>
		<path fill="#6DBF70" d="M75.718,42.06c-0.838,0.151-1.482,0.024-1.482,0.024c-0.029,0.02-0.15,0.093,1.059-0.667
			c0.482-0.303,0.975-0.566,1.166-0.118C76.64,41.733,76.269,41.957,75.718,42.06z"/>
		<path fill="#6DBF70" d="M73.689,43.264c0.508-0.663,0.649-1.268,0.649-1.268c0.029-0.02,0.154-0.093-1.132,0.658
			c-0.513,0.302-0.989,0.628-0.604,0.96C72.963,43.932,73.349,43.702,73.689,43.264z"/>
		<path fill="#6DBF70" d="M73.929,43.41c0.029-0.726,0.351-1.307,0.351-1.307c-0.015-0.024-0.073-0.126,0.536,0.873
			c0.239,0.4,0.425,0.814-0.165,1.019C74.085,44.19,73.909,43.888,73.929,43.41z"/>
		<path fill="#6DBF70" d="M75.708,42.318c-0.741-0.253-1.452-0.209-1.452-0.209c-0.021-0.02-0.098-0.107,0.678,0.79
			c0.312,0.355,0.653,0.672,1.092,0.253C76.439,42.752,76.2,42.489,75.708,42.318z"/>
		<path fill="#871721" d="M73.593,40.763c-0.05-0.068-0.123-0.303-0.05-0.341c0.078-0.049,0.278,0.107,0.326,0.176
			c0.05,0.073,0.029,0.166-0.048,0.21C73.744,40.851,73.641,40.831,73.593,40.763z"/>
		<path fill="#871721" d="M72.987,41.133c-0.039-0.058-0.098-0.263-0.019-0.312c0.072-0.043,0.253,0.088,0.297,0.146
			c0.044,0.063,0.015,0.146-0.063,0.19C73.129,41.207,73.031,41.192,72.987,41.133z"/>
		<path fill="#871721" d="M72.276,40.592c-0.05-0.073-0.123-0.303-0.05-0.346c0.078-0.049,0.273,0.107,0.322,0.175
			c0.054,0.073,0.029,0.166-0.049,0.214C72.428,40.68,72.324,40.661,72.276,40.592z"/>
		<path fill="#871721" d="M72.301,38.842c-0.05-0.068-0.127-0.297-0.05-0.346c0.073-0.043,0.274,0.112,0.322,0.18
			c0.05,0.074,0.029,0.166-0.048,0.21C72.451,38.935,72.349,38.915,72.301,38.842z"/>
		<path fill="#871721" d="M74.152,40.407c-0.048-0.068-0.121-0.297-0.044-0.341c0.074-0.049,0.274,0.111,0.322,0.18
			c0.048,0.068,0.029,0.161-0.048,0.209C74.304,40.5,74.206,40.48,74.152,40.407z"/>
		<path fill="#871721" d="M73.514,39.851c-0.048-0.073-0.121-0.302-0.048-0.346c0.077-0.043,0.272,0.112,0.326,0.181
			c0.05,0.073,0.024,0.166-0.048,0.209C73.665,39.939,73.563,39.919,73.514,39.851z"/>
		<path fill="#871721" d="M72.896,40.202c-0.05-0.073-0.127-0.302-0.05-0.346c0.079-0.044,0.278,0.107,0.327,0.181
			c0.049,0.068,0.029,0.166-0.049,0.209C73.046,40.29,72.943,40.271,72.896,40.202z"/>
		<path fill="#871721" d="M74.075,39.495c-0.05-0.068-0.121-0.297-0.05-0.346c0.079-0.044,0.273,0.112,0.328,0.185
			c0.048,0.068,0.023,0.161-0.05,0.205C74.227,39.583,74.123,39.568,74.075,39.495z"/>
		<path fill="#871721" d="M72.69,39.339c-0.049-0.068-0.123-0.302-0.044-0.346c0.073-0.043,0.272,0.112,0.322,0.18
			c0.048,0.074,0.028,0.166-0.05,0.21C72.842,39.427,72.744,39.412,72.69,39.339z"/>
		<path fill="#871721" d="M72.07,39.69c-0.048-0.074-0.121-0.303-0.048-0.346c0.077-0.044,0.278,0.112,0.326,0.18
			c0.05,0.073,0.025,0.166-0.048,0.209C72.227,39.778,72.124,39.758,72.07,39.69z"/>
		<path fill="#871721" d="M73.251,38.988c-0.049-0.073-0.122-0.302-0.049-0.346c0.078-0.044,0.278,0.107,0.326,0.18
			c0.05,0.068,0.03,0.166-0.048,0.21C73.401,39.076,73.3,39.056,73.251,38.988z"/>
	</g>
	<path fill="#8BC541" d="M28.987,73.418c0.249,0.98-0.664,1.911-0.664,1.911s-1.351-0.443-1.599-1.429
		c-0.249-0.979,0.698-2.124,0.698-2.124S28.739,72.438,28.987,73.418z"/>
	<path fill="#77A841" d="M46.973,89.104c-1.346,1.163-4.271,1.578-5.836,0.526c0.741-1.635,3.057-1.805,4.667-1.342
		c0.463,0.132,0.896,0.375,1.277,0.653c-0.141,0.117-0.272,0.254-0.424,0.313"/>
	<path fill="#D62027" d="M71.486,52.634c-0.248-0.151-0.6-0.667-0.785-0.965c-0.063-0.098-0.137-0.453-0.249-0.585
		c-0.106-0.132-0.574-0.391-0.926-0.902c-0.215-0.316-0.244-0.39-0.317-0.6c-0.112-0.341,0.356-1.058,0.522-1.331
		c0.155-0.269,1.848-2.847,3.52-3.559c2.115-0.908,3.022,1.56,3.667,2.413c0.374,0.493,2.71,2.355,1.14,3.755
		c-1.252,1.11-2.847,1.501-4.319,1.925C72.363,53.175,71.623,52.722,71.486,52.634z"/>
	<path fill="#7C8C38" d="M76.64,46.759c0.906-0.346,1.351-0.312,2.048-0.584c0.94-0.366,1.291-0.742,1.809,0.214
		c-0.98,0.156-2.477-0.073-3.935,0.419L76.64,46.759z"/>
	<path fill="#EF4C57" d="M72.485,45.897c-0.829,0.516-1.164,1.389-0.75,1.955c0.414,0.566,1.423,0.604,2.252,0.093
		c0.828-0.517,1.165-1.389,0.751-1.955C74.324,45.428,73.314,45.385,72.485,45.897z"/>
	<path fill="#7C8C38" d="M77.941,46.993c1.403-0.043,3.306,1.078,3.622,2.399c-1.321,0.584-2.734-0.385-3.398-1.389
		c-0.19-0.292-0.307-0.629-0.37-0.965c0.146,0,0.292-0.015,0.41,0.019"/>
	<path fill="#7C8C38" d="M57.26,75.782c0.912,1.189,0.565,2.994,0.565,2.994s-1.833-0.127-2.745-1.312
		c-0.916-1.194-0.564-2.993-0.564-2.993S56.344,74.599,57.26,75.782z"/>
	<path fill="#7C8C38" d="M54.086,31.524c2.043-0.098,3.788,1.697,3.788,1.697s-1.564,1.95-3.612,2.047
		c-2.043,0.098-3.789-1.697-3.789-1.697S52.043,31.622,54.086,31.524z"/>
	<path fill="#7C8C38" d="M37.388,34.878c2.018-0.356,3.978,1.199,3.978,1.199s-1.307,2.141-3.325,2.497
		c-2.013,0.356-3.973-1.2-3.973-1.2S35.374,35.239,37.388,34.878z"/>
	<path fill="#77A841" d="M60.644,31.446c1.053,0.711,1.253,2.252,1.253,2.252s-1.502,0.39-2.555-0.322
		c-1.054-0.711-1.253-2.247-1.253-2.247S59.59,30.739,60.644,31.446z"/>
	<g>
		<g>
			<path fill="#D4C828" d="M62.247,84.895c0.365-1.364,0.951-2.092,2.072-2.755c1.023-0.604,2.413-0.687,3.457-0.959
				c0.682-0.181,1.843-0.552,2.208-0.079c0.361,0.479-0.029,1.229-0.039,1.551c-0.034,0.907,0.015,1.824-0.36,2.931
				c-0.303,0.896-0.932,1.423-1.531,1.886c-1.023,0.79-2.354,1.053-3.578,1.15c-0.503,0.04-1.892,0.639-2.59-0.199
				c-0.365-0.435,0.083-1.355,0.181-1.81L62.247,84.895z"/>
		</g>
		<g>
			<path fill="#B8AF36" d="M67.488,87.27c-1.033,0.78-2.028,0.565-2.009,0.044c0.005-0.518,0.355-0.843,1.063-1.366
				c0.692-0.501,1.458-0.999,1.78-1.71c0.375-0.684,0.434-1.337,0.448-1.331c-0.024,0,0.352,0.55,0.337,1.516
				C69.156,85.436,68.409,86.646,67.488,87.27z"/>
		</g>
	</g>
</g>
</svg>
