<?xml version="1.0" encoding="utf-8"?>
<!-- Generator: Adobe Illustrator 16.0.0, SVG Export Plug-In . SVG Version: 6.00 Build 0)  -->
<!DOCTYPE svg PUBLIC "-//W3C//DTD SVG 1.1//EN" "http://www.w3.org/Graphics/SVG/1.1/DTD/svg11.dtd">
<svg version="1.1" id="Layer_1" xmlns="http://www.w3.org/2000/svg" xmlns:xlink="http://www.w3.org/1999/xlink" x="0px" y="0px"
	 width="100px" height="100px" viewBox="0 0 100 100" enable-background="new 0 0 100 100" xml:space="preserve">
<g>
	<g>
		<g>
			<path fill="#231010" d="M64.745,48.176c-1.104-2.492-2.656-3.349-3.706-3.662c0,0-0.587-0.037-0.017-0.208
				c0.597-0.182,0.964-0.555,1.212-0.857c0.817-0.974,1.056-1.931,0.88-3.082c-0.336-2.139-2.581-4.082-4.695-4.551
				c-1.951-0.435-4.269,0.302-5.011,0.783c0,0,0.204-0.521,0.235-0.94c0.156-2.113-1.8-5.87-5.481-6.027
				c-3.619-0.154-7.414,2.175-6.577,5.635c1.643-1.411,2.896-0.232,3.052,1.019c0.067,0.546,0.157,1.489-1.957,1.803
				c-0.827,0.12-1.985-0.484-3.594-0.543c-1.669-0.062-2.873,0.702-3.639,1.369c-1.371,1.195-1.827,2.066-1.789,4.238
				c0.027,1.582,1.022,2.819,2.241,3.477l-0.015,0.426c-1.892,0.865-2.751,2.217-2.752,3.566c-0.003,1.69,1.378,3.468,4.14,4.268
				c0.315,0.094,0.634,0.135,0.953,0.135c0.169,0,0.341-0.014,0.512-0.035c0.437-0.62,1.147-1.053,1.971-1.212
				c0.203-0.04,0.409-0.06,0.613-0.06c0.637,0,1.227,0.189,1.699,0.519c0.488-0.6,1.23-0.98,2.048-1.056
				c0.095-0.013,0.196-0.015,0.291-0.018c0.717,0.003,1.377,0.247,1.878,0.655c0.54-0.529,1.29-0.826,2.083-0.826h0.002l0,0
				c0.79,0.003,1.545,0.3,2.083,0.831c0.5-0.402,1.158-0.646,1.869-0.646c0.102,0,0.202,0.003,0.303,0.017
				c0.786,0.073,1.5,0.428,1.987,0.993c0.459-0.299,1.025-0.47,1.627-0.47c0.204,0,0.411,0.02,0.613,0.06
				c0.873,0.17,1.623,0.648,2.049,1.328c0.19,0.303,0.305,0.634,0.339,0.966c1.055-0.044,2.164-0.447,2.892-0.982
				c1.248-0.918,2.181-2.601,2.178-4.49C65.264,49.816,65.106,48.996,64.745,48.176z M51.978,45.95
				c-0.518,0-0.935-0.419-0.935-0.938s0.417-0.938,0.935-0.938c0.516,0,0.936,0.42,0.936,0.938S52.493,45.95,51.978,45.95z
				 M55.569,48.058c-0.389,0-0.703-0.316-0.703-0.702c0-0.39,0.314-0.706,0.703-0.706c0.39,0,0.703,0.316,0.703,0.706
				C56.272,47.742,55.959,48.058,55.569,48.058z M55.103,42.983c-0.689,0-1.249-0.56-1.249-1.249c0-0.692,0.56-1.251,1.249-1.251
				c0.688,0,1.248,0.56,1.248,1.251C56.351,42.423,55.79,42.983,55.103,42.983z"/>
		</g>
		<g>
			<path fill="#CA5728" d="M43.032,57.87c-0.096-0.589-0.196-1.182-0.292-1.784c-0.025-0.139-0.032-0.278-0.028-0.422
				c-0.247-0.429-0.779-0.711-1.39-0.711c-0.124,0-0.25,0.008-0.379,0.034c-0.919,0.179-1.544,0.872-1.374,1.509
				c0.888,3.408,2.222,6.768,2.488,10.248c0.052,0.654,0.583,1.195,1.248,1.195c0.395,0,0.745-0.193,0.957-0.49
				c-0.073-0.213-0.118-0.437-0.128-0.672C44.028,63.892,43.545,60.967,43.032,57.87z"/>
		</g>
		<g>
			<path fill="#CA5728" d="M46.74,56.285l-0.025-0.574c-0.012-0.2,0.005-0.402,0.05-0.599c-0.269-0.422-0.795-0.713-1.405-0.713
				c-0.056,0-0.118,0.002-0.179,0.008c-0.929,0.087-1.586,0.793-1.462,1.515c0.622,3.847,1.28,7.32,1.412,10.819
				c0.022,0.657,0.557,1.198,1.221,1.198c0.364,0,0.688-0.166,0.907-0.417c-0.095-0.241-0.151-0.502-0.151-0.775
				C47.073,63.429,46.919,60.117,46.74,56.285z"/>
		</g>
		<g>
			<path fill="#CA5728" d="M49.324,54.226h-0.002c-0.935,0-1.66,0.672-1.615,1.437c0.188,4.048,0.358,7.571,0.392,11.077
				c0.005,0.662,0.543,1.2,1.207,1.2c0.364,0,0.688-0.166,0.91-0.417c-0.095-0.252-0.143-0.521-0.14-0.799
				c0.051-3.312,0.286-6.569,0.56-10.344l0.057-0.755c0.014-0.198,0.053-0.381,0.117-0.563
				C50.562,54.58,49.999,54.229,49.324,54.226z"/>
		</g>
		<g>
			<path fill="#CA5728" d="M54.301,57.926c0.13-0.677,0.267-1.379,0.393-2.085c0.033-0.174,0.089-0.339,0.159-0.492
				c-0.195-0.479-0.722-0.866-1.391-0.931c-0.063-0.005-0.123-0.008-0.186-0.008c-0.851,0-1.55,0.571-1.596,1.282
				c-0.29,4.022-0.563,7.541-0.615,11.047c-0.009,0.662,0.531,1.2,1.192,1.2c0.363,0,0.688-0.166,0.918-0.42
				c-0.098-0.26-0.143-0.537-0.129-0.823C53.176,63.787,53.722,60.94,54.301,57.926z"/>
		</g>
		<g>
			<path fill="#CA5728" d="M57.571,54.987c-0.127-0.026-0.252-0.034-0.378-0.034c-0.765,0-1.408,0.445-1.521,1.063
				c-0.697,3.776-1.481,7.231-1.635,10.725c-0.027,0.657,0.51,1.198,1.173,1.198l0,0c0.663,0,1.195-0.541,1.246-1.195
				c0.266-3.48,1.604-6.84,2.488-10.248C59.116,55.859,58.492,55.166,57.571,54.987z"/>
		</g>
	</g>
	<g>
		<g>
			<path fill="#231010" d="M92.457,63.285c-1.216-1.644-3.883-1.883-5.348-0.427c-0.719,0.719-1.188,1.525-0.951,2.572
				c0.241,1.069,1.478,1.84,2.53,1.411c0.723-0.3,0.974-0.848,0.415-1.467c-0.017-0.022-0.197,0.134-0.171,0.166
				c0.134,0.197,0.467,0.739,0.156,0.912c-0.288,0.156-0.686,0.075-0.971-0.029c-0.561-0.203-0.985-0.693-1.228-1.223
				c-0.232-0.504-0.206-1.082-0.044-1.604c0.213-0.669,0.817-0.776,1.539-0.859c2.045-0.238,3.713,1.265,4.018,3.227
				c0.124,0.782-0.006,2.005-0.629,2.577c-0.901,0.831-2.561,0.917-3.707,0.853c-3.125-0.179-6.188-1.945-8.577-3.856
				c-1.351-1.079-2.509-2.261-4.082-3.035c-0.442-0.219-0.906-0.399-1.382-0.54c0.014-0.283,0.003-0.568-0.04-0.852
				c-0.408-2.967-3.438-4.378-6.152-4.28c-2.139,0.081-3.992,0.93-5.537,2.38c-1.277,1.201-2.855,2.944-2.59,4.846
				c0-0.005,0.098-0.059,0.098-0.089c0.033-1.722,1.125-3.265,2.318-4.423c1.147-1.114,2.511-1.67,4.087-1.87
				c2.86-0.372,6.015,0.889,6.808,3.882c0.017,0.059,0.027,0.118,0.043,0.177c-0.507-0.089-1.025-0.132-1.543-0.124
				c-0.408,0.009-0.823,0.063-1.224,0.157c-0.143-0.664-0.579-1.215-1.38-1.333c-2.139-0.308-4.081,1.702-3.614,3.811
				c0.549,2.475,3.757,3.236,5.78,2.172c1.36-0.716,2.407-2.001,2.791-3.463c1.473,0.594,2.825,1.573,3.939,2.615
				c2.212,2.077,5.078,3.734,8.039,4.414c2.396,0.549,4.927,0.151,6.543-1.811C93.557,66.764,93.531,64.737,92.457,63.285z
				 M69.283,64.082c-0.122,0.028-0.246,0.005-0.363-0.033c-0.264-0.094-0.493-0.326-0.577-0.586
				c-0.036-0.112-0.017-0.234,0.012-0.348c0.017-0.059,0.05-0.103,0.066-0.125c0.312-0.207,0.676-0.331,1.037-0.426
				C69.574,63.063,69.499,63.631,69.283,64.082z M72.464,64.955c-0.617,0.943-1.954,1.147-2.992,1.036
				c-1.319-0.143-2.539-0.879-3.105-2.094c-0.235-0.51-0.303-1.078-0.229-1.632c0.033-0.265,0.124-0.508,0.252-0.737
				c0.099-0.181,0.717-0.224,0.901-0.251c0.807-0.118,1.609,0.117,2.001,0.851c-0.14,0.07-0.275,0.14-0.41,0.224
				c-0.529,0.33-1.227,0.921-1.347,1.57c-0.096,0.516,0.45,0.944,0.921,0.95c0.609,0.002,1.248-0.779,1.521-1.241
				c0.219-0.364,0.343-0.797,0.364-1.229c0.955-0.107,1.899,0.014,2.809,0.294C73.133,63.493,72.894,64.297,72.464,64.955z"/>
		</g>
		<g>
			<path fill="#231010" d="M36.1,59.211c-1.542-1.45-3.395-2.299-5.539-2.38c-2.711-0.098-5.74,1.313-6.151,4.28
				c-0.039,0.283-0.05,0.568-0.039,0.852c-0.475,0.141-0.937,0.321-1.381,0.54c-1.573,0.774-2.734,1.956-4.083,3.035
				c-2.387,1.911-5.453,3.678-8.573,3.856c-1.15,0.064-2.805-0.021-3.71-0.853C6,67.97,5.871,66.747,5.993,65.965
				c0.308-1.962,1.974-3.465,4.016-3.227c0.724,0.083,1.332,0.19,1.543,0.859c0.164,0.521,0.188,1.1-0.045,1.604
				c-0.242,0.529-0.666,1.02-1.227,1.223c-0.286,0.104-0.681,0.186-0.968,0.029c-0.313-0.173,0.021-0.715,0.158-0.912
				c0.02-0.032-0.154-0.188-0.172-0.166c-0.563,0.619-0.308,1.167,0.415,1.467c1.051,0.429,2.288-0.342,2.529-1.411
				c0.236-1.047-0.231-1.854-0.952-2.572c-1.466-1.456-4.131-1.217-5.348,0.427c-1.075,1.452-1.098,3.479,0.065,4.887
				c1.618,1.962,4.147,2.359,6.542,1.811c2.963-0.68,5.83-2.337,8.042-4.414c1.111-1.042,2.466-2.021,3.937-2.615
				c0.383,1.462,1.429,2.747,2.792,3.463c2.024,1.064,5.231,0.303,5.779-2.172c0.467-2.108-1.475-4.118-3.611-3.811
				c-0.802,0.118-1.242,0.669-1.381,1.333c-0.401-0.095-0.815-0.148-1.227-0.157c-0.515-0.008-1.032,0.035-1.54,0.124
				c0.013-0.059,0.027-0.118,0.042-0.177c0.793-2.993,3.947-4.254,6.81-3.882c1.576,0.2,2.936,0.756,4.084,1.87
				c1.191,1.158,2.287,2.701,2.321,4.423c0,0.03,0.096,0.084,0.095,0.089C38.958,62.155,37.379,60.412,36.1,59.211z M29.975,62.99
				c0.02,0.022,0.052,0.066,0.067,0.125c0.029,0.113,0.049,0.235,0.013,0.348c-0.085,0.26-0.316,0.492-0.578,0.586
				c-0.116,0.038-0.241,0.062-0.364,0.033c-0.214-0.451-0.289-1.019-0.171-1.518C29.303,62.659,29.666,62.783,29.975,62.99z
				 M28.056,62.402c0.021,0.432,0.147,0.864,0.363,1.229c0.275,0.462,0.916,1.243,1.523,1.241c0.473-0.006,1.018-0.435,0.922-0.95
				c-0.122-0.649-0.819-1.24-1.348-1.57c-0.131-0.084-0.27-0.153-0.41-0.224c0.392-0.733,1.195-0.969,2.002-0.851
				c0.186,0.027,0.803,0.07,0.901,0.251c0.125,0.229,0.218,0.473,0.253,0.737c0.073,0.554,0.004,1.122-0.231,1.632
				c-0.564,1.215-1.788,1.951-3.103,2.094c-1.04,0.111-2.378-0.093-2.997-1.036c-0.43-0.658-0.667-1.459-0.684-2.259
				C26.157,62.416,27.102,62.295,28.056,62.402z"/>
		</g>
	</g>
</g>
</svg>
