<?xml version="1.0" encoding="utf-8"?>
<!-- Generator: Adobe Illustrator 18.1.0, SVG Export Plug-In . SVG Version: 6.00 Build 0)  -->
<svg version="1.0" id="Layer_1" xmlns="http://www.w3.org/2000/svg" xmlns:xlink="http://www.w3.org/1999/xlink" x="0px" y="0px"
	 viewBox="0 0 150 150" enable-background="new 0 0 150 150" xml:space="preserve">
<g>
	<polygon fill="#BDD438" points="105.7,63.9 105.8,60.1 102.8,57.8 106.5,56.8 107.7,53.3 109.8,56.4 113.6,56.5 111.2,59.4 
		112.3,63.1 108.8,61.7 	"/>
	<polygon fill="#BDD438" points="17.9,101.6 18,97.8 15,95.5 18.7,94.5 19.9,91 22,94.1 25.8,94.2 23.4,97.2 24.5,100.8 21,99.4 	
		"/>
	<polygon fill="#BDD438" points="59.5,136.8 59.6,134.3 57.6,132.7 60,132.1 60.8,129.7 62.2,131.8 64.8,131.8 63.2,133.8 
		63.9,136.2 61.6,135.3 	"/>
	<polygon fill="#BDD438" points="129,63.5 129.1,61 127.1,59.5 129.6,58.8 130.4,56.5 131.8,58.6 134.3,58.6 132.7,60.6 133.5,63 
		131.1,62.1 	"/>
	<polygon fill="#BDD438" points="124.3,86.5 124.4,84 122.4,82.4 124.9,81.8 125.7,79.4 127.1,81.5 129.6,81.5 128,83.5 128.8,85.9 
		126.4,85 	"/>
	<polygon fill="#BDD438" points="43.5,88.8 43.6,86.3 41.6,84.8 44,84.1 44.8,81.7 46.2,83.8 48.7,83.9 47.2,85.8 47.9,88.3 
		45.5,87.4 	"/>
	<polygon fill="#BDD438" points="122.3,41.8 122.4,39.3 120.4,37.8 122.9,37.1 123.7,34.7 125.1,36.8 127.6,36.9 126,38.8 
		126.8,41.3 124.4,40.4 	"/>
	<polygon fill="#BDD438" points="89.1,17.7 89.3,15.2 87.3,13.6 89.7,13 90.5,10.6 91.9,12.7 94.4,12.7 92.9,14.7 93.6,17.1 
		91.2,16.2 	"/>
	<polygon fill="#BDD438" points="42.1,116.2 42.3,112.5 39.3,110.2 42.9,109.2 44.2,105.6 46.2,108.8 50,108.9 47.6,111.8 
		48.7,115.4 45.2,114.1 	"/>
	<polygon fill="#BDD438" points="125.7,89.4 124.4,85.3 120.3,84.1 123.7,81.6 123.6,77.3 127.1,79.8 131.1,78.4 129.8,82.4 
		132.4,85.8 128.1,85.8 	"/>
	<path fill-rule="evenodd" clip-rule="evenodd" fill="#3BB44A" d="M71.9,96.7c3.3,5.1,11.7,13.3,16.6,12.9
		c-6.6,1.7-15.8-9.2-17.3-12.8c3.9,13.8,10.2,16.9,20.9,13.8c0,0-3.6-4.3-3.9-5.3C85.3,96,76.2,95.9,71.9,96.7z"/>
	<path fill-rule="evenodd" clip-rule="evenodd" fill="#3BB44A" d="M95.1,108c4.4,2.3,13.5,4.6,16.8,2.3c-3.9,3.8-14.7-0.1-17.2-2
		c8.2,8,13.9,7.7,20.1,1.3c0,0-4.2-1.5-4.8-2.1C104.1,102.1,97.7,105.8,95.1,108z"/>
	<path fill-rule="evenodd" clip-rule="evenodd" fill="#3BB44A" d="M80.6,37.5c-4.2-0.6-11.8-3.5-13-6.7c0.8,4.6,10.4,7.3,13.1,7.1
		c-9.8,1.6-13.6-1.5-14.8-9.1c0,0,3.7,1,4.5,0.9C77.2,28.9,79.8,34.6,80.6,37.5z"/>
	<path fill-rule="evenodd" clip-rule="evenodd" fill="#ACB551" d="M68.2,58.4C70,63,75.4,70.7,79.3,71.2c-5.4,0.4-11-9.7-11.6-12.8
		c0.9,11.5,5.4,14.9,14.3,14.2c0,0-2.2-3.9-2.3-4.8C78.9,59.9,71.7,58.5,68.2,58.4z"/>
	<path fill-rule="evenodd" clip-rule="evenodd" fill="#3BB44A" d="M14.3,70.6c-0.3,4.9,1.3,14.2,4.6,16.3c-5.1-2-5.9-13.5-5.1-16.5
		c-4,10.8-1.5,15.8,7,18.9c0,0-0.3-4.5,0-5.3C23.3,76.5,17.4,72.1,14.3,70.6z"/>
	<path fill-rule="evenodd" clip-rule="evenodd" fill="#3BB44A" d="M106.7,99.9c3.7-0.6,10.3-3.3,11.3-6.1c-0.6,4.1-9,6.6-11.4,6.5
		c8.6,1.2,11.9-1.5,12.8-8.2c0,0-3.3,0.9-3.9,0.9C109.5,92.3,107.3,97.3,106.7,99.9z"/>
	<path fill-rule="evenodd" clip-rule="evenodd" fill="#ACB551" d="M77.9,26.3c-1.1-2.9-4.3-7.7-6.8-8c3.4-0.2,6.8,6.1,7.1,8.1
		c-0.5-7.1-3.2-9.3-8.8-8.9c0,0,1.3,2.5,1.4,3C71.2,25.3,75.7,26.3,77.9,26.3z"/>
	<path fill-rule="evenodd" clip-rule="evenodd" fill="#ACB551" d="M41.6,40.9c1.3-2.8,2.5-8.5,1-10.5c2.5,2.3,0.4,9.1-0.8,10.7
		c4.8-5.3,4.4-8.8,0.2-12.5c0,0-0.8,2.7-1.2,3.1C37.7,35.4,40.1,39.3,41.6,40.9z"/>
	<path fill-rule="evenodd" clip-rule="evenodd" fill="#3BB44A" d="M118,117.6c2-2.3,4.6-7.4,3.7-9.7c1.8,2.8-2.1,8.8-3.6,10
		c5.9-3.8,6.5-7.2,3.6-11.8c0,0-1.5,2.3-1.9,2.6C115.7,111.4,117,115.7,118,117.6z"/>
	<path fill-rule="evenodd" clip-rule="evenodd" fill="#ACB551" d="M111.5,87.3c1.8-2.3,4.3-7.5,3.3-9.7c1.8,2.7-1.7,8.7-3.2,10
		c5.7-4,6.2-7.4,3.1-11.8c0,0-1.4,2.3-1.8,2.6C109,81.2,110.4,85.4,111.5,87.3z"/>
	<path fill-rule="evenodd" clip-rule="evenodd" fill="#ACB551" d="M119.6,46.3c2.9,0.8,7.8,3.6,8.3,6c-0.1-3.3-6.5-6.1-8.4-6.3
		c7-0.1,9.3,2.4,9.4,7.8c0,0-2.5-1.1-3-1.1C121.1,52.7,119.8,48.5,119.6,46.3z"/>
	<path fill-rule="evenodd" clip-rule="evenodd" fill="#ACB551" d="M23,75.6c2.1,2,7,4.8,9.2,4.1c-2.8,1.6-8.4-2.5-9.5-4
		c3.4,5.9,6.7,6.7,11.3,4c0,0-2.2-1.6-2.4-2C29.2,73.7,25,74.7,23,75.6z"/>
	<path fill-rule="evenodd" clip-rule="evenodd" fill="#3BB44A" d="M37.6,52.6c-1.4-5.4-6.3-15-10.7-16.1c6.2,0.4,11,12.6,11.2,16.2
		c0.7-13.1-3.9-17.7-14.1-18.2c0,0,1.9,4.8,1.8,5.7C25.8,49.3,33.6,52,37.6,52.6z"/>
	<path fill-rule="evenodd" clip-rule="evenodd" fill="#3BB44A" d="M59,101.2c-1.4,6.6-1.1,19.5,3,23c-6.5-3.7-5.3-19.5-3.6-23.5
		c-7.6,13.8-5.1,21.2,5.7,27.1c0,0,0.5-6.1,1-7.2C70.1,110.9,63,103.9,59,101.2z"/>
	<path fill-rule="evenodd" clip-rule="evenodd" fill="#3BB44A" d="M75.8,46.1c2.1-3.7,6.6-5.7,10.5-3.6c2.5,1.5,4.1,4.7,2.3,7.3
		c-0.8,1.1-2.7,2.1-3.8,0.8c-0.7-0.9,0.4-1.2,0.7-1.9c0.8-1.8-1.1-3.1-2.7-3.2c-3.2,0-5,3.2-4.8,6c0.4,4.6,4.6,7.5,9,7.5
		c6.5-0.2,11-5.8,11.3-12c0.1-2.6-0.5-4.9-1.5-7.3c0-0.1-0.5-1.1-0.1-0.7c0.3,0.3,0.6,0.7,0.8,1c5.1,8,0.6,19.2-8.7,21.2
		c-4.4,0.8-8.8-0.5-11.7-4C74.5,54.1,73.8,49.9,75.8,46.1z"/>
	<path fill-rule="evenodd" clip-rule="evenodd" fill="#3BB44A" d="M30.7,71.1c3.3-0.4,6.5,2.5,9.6,4.8c3.8,2.8,13,2.5,11.5-2.7
		c0,5.3-9.3-2.4-11.2-3.1C37.9,69,33.5,69.6,30.7,71.1z"/>
	<path fill="#A8CE38" d="M47.7,67l-0.3,0.1l0.2,0.2c0,0,0,0,0,0.1c1.5,1.2,3.1,2.2,4.3,2.7c2.2,0.7,4.4,0.6,5.9-0.1
		c0.2-1.5-1-3.1-2.8-3.8C53,65.5,47.9,66.9,47.7,67z"/>
	<path fill="#A8CE38" d="M111.4,24.8l-0.3,0.1l0.2,0.2c0,0,0,0,0,0.1c1.5,1.2,3.1,2.3,4.3,2.7c2.2,0.7,4.4,0.6,5.9-0.1
		c0.2-1.5-1-3.1-2.8-3.8C116.8,23.3,111.7,24.7,111.4,24.8z"/>
	<path fill="#A8CE38" d="M91.1,126.1l-0.3-0.1l0,0.3c0,0,0,0,0,0.1c0.3,1.9,0.8,3.7,1.4,4.9c1.2,2,2.9,3.4,4.5,3.9
		c1.2-1,1.4-3,0.4-4.7C96,128.5,91.3,126.2,91.1,126.1z"/>
	<path fill="#A8CE38" d="M98.6,21.4l-0.3-0.1l0,0.3c0,0,0,0,0,0.1c0.3,1.9,0.8,3.7,1.4,4.9c1.2,2,2.9,3.4,4.5,3.9
		c1.2-1,1.4-3,0.4-4.7C103.5,23.9,98.8,21.5,98.6,21.4z"/>
	<path fill="#A8CE38" d="M64.1,97.8l-0.3-0.1l0,0.3c0,0,0,0,0,0.1c0.3,1.9,0.8,3.7,1.4,4.8c1.2,2,2.9,3.4,4.5,3.9
		c1.2-1,1.4-3,0.4-4.7C69,100.3,64.3,97.9,64.1,97.8z"/>
	<path fill="#A8CE38" d="M99.3,67.9l0.2,0l0-0.2c0,0,0,0,0,0c-0.4-1.3-0.9-2.5-1.5-3.1c-1.1-1.1-2.5-1.6-3.9-1.4
		c-0.9,1.1-0.9,2.7,0,3.6C95.1,67.7,99.1,67.9,99.3,67.9z"/>
	<path fill="#A8CE38" d="M38.6,123.5l0.2,0l0-0.2c0,0,0,0,0,0c-0.4-1.3-0.9-2.5-1.5-3.1c-1.1-1.1-2.5-1.6-3.9-1.4
		c-0.9,1.1-0.9,2.7,0,3.6C34.4,123.3,38.4,123.5,38.6,123.5z"/>
	<path fill="#A8CE38" d="M81.5,14.9l0.2,0l0-0.2c0,0,0,0,0,0c-0.4-1.3-0.9-2.5-1.5-3.1c-1.1-1.1-2.5-1.6-3.9-1.4
		c-0.9,1.1-0.9,2.7,0,3.6C77.3,14.7,81.3,14.9,81.5,14.9z"/>
	<path fill="#A8CE38" d="M62.8,67.7l-0.2-0.1l-0.1,0.2c0,0,0,0,0,0c-0.4,1.3-0.6,2.6-0.5,3.4c0.3,1.5,1.3,2.7,2.5,3.3
		c1.4-0.5,2.2-1.7,2-3C66.2,70.1,62.9,67.8,62.8,67.7z"/>
	<g>
		<g>
			<path fill-rule="evenodd" clip-rule="evenodd" fill="#E89423" d="M86.1,75c-5.6,2.8-8.5,10.6-4.7,16.4c1.8,2.7,4.8,4.4,7.7,4.7
				c3,0.4,6.1-0.9,7.8-3c3.6-4.1,1.7-9.8-1-10.9c-2.6-1.4-4.1-0.3-4,0.2c0,0.7,1.1,1.3,1.6,2.5c0.6,1.1,0.2,2.7-1.1,3.7
				c-1.1,0.9-3.3,0.3-4.5-1.3c-1.1-1.4-0.6-4.8,1.7-6.5c2.3-1.8,5.8-1.4,8.1,0.1c2.4,1.5,3.9,4,4.2,6.8c0.3,2.8-0.4,6-2.5,8.7
				c-2,2.7-5.7,5.1-10.5,5.2c9.9,0.5,15.5-7.1,15.9-13.9c0.3-3.6-1.1-7.5-4.3-10.4C97.6,74.4,92.2,72,86.1,75z"/>
		</g>
	</g>
	<g>
		<g>
			<path fill-rule="evenodd" clip-rule="evenodd" fill="#E89423" d="M28,70.2c4.1-2.6,5.7-8.8,2.3-13c-1.6-2-4-3-6.3-3
				c-2.3-0.1-4.7,1.2-5.8,2.9c-2.5,3.5-0.6,7.7,1.6,8.4c2.1,0.9,3.2-0.1,3.1-0.5c0-0.6-0.9-0.9-1.4-1.8c-0.5-0.8-0.3-2.1,0.6-2.9
				c0.8-0.8,2.5-0.5,3.6,0.7c0.9,1,0.8,3.6-0.8,5.1c-1.6,1.6-4.4,1.5-6.3,0.5c-2-1-3.4-2.8-3.8-4.9c-0.4-2.2-0.2-4.6,1.3-6.9
				c1.4-2.3,4-4.4,7.7-4.8c-7.7,0.4-11.5,6.7-11.2,12c0.1,2.8,1.4,5.7,4.1,7.7C19.2,71.5,23.6,72.9,28,70.2z"/>
		</g>
	</g>
	<g>
		<g>
			<path fill-rule="evenodd" clip-rule="evenodd" fill="#E89423" d="M82.7,137.2c4.4-2,6.9-8,4.1-12.6c-1.3-2.2-3.6-3.5-5.8-3.8
				c-2.3-0.4-4.8,0.5-6.1,2.1c-2.9,3.1-1.6,7.5,0.4,8.5c1.9,1.2,3.2,0.4,3.1-0.1c0.1-0.6-0.8-1-1.1-2c-0.4-0.9,0-2.1,1-2.8
				c0.9-0.7,2.6-0.2,3.4,1.2c0.8,1.2,0.3,3.7-1.5,5c-1.8,1.4-4.5,0.9-6.3-0.3c-1.8-1.2-2.9-3.2-3.1-5.4c-0.1-2.2,0.5-4.6,2.2-6.7
				c1.7-2.1,4.6-3.8,8.3-3.7c-7.7-0.7-12.3,5-12.8,10.3c-0.3,2.8,0.6,5.9,3,8.2C73.8,137.3,77.9,139.3,82.7,137.2z"/>
		</g>
	</g>
	<path fill="#971A32" d="M68.6,41c-0.8-0.4-1.6-0.5-2.4-0.9c0.7-0.8,0.6-1.9,0.8-2.8c0.2-0.8-0.2-1-0.3-0.9
		c-0.2,0.8-1.5,2.5-1.6,2.7c-0.5,0.6-1.3,0.7-2.1,0.6c0.2-0.5,0.4-1.5,0.3-2.1c-0.4-0.2-1.2-0.4-1.8-0.5c-0.2,0.5,0.5,1.9,0.3,2.3
		c-0.6,0.1-2.7-2.2-3.1-3.1c-1-2-1.1-0.5-1.1-0.1c0.1,1,0.6,2,1.1,2.7c-0.4,0.2-2.6,0.5-3.2,0.8c-1.9,0.9-3.9,3.4-4.5,6.2
		c-0.3,1.3-0.1,2.9,0.1,3.9c1.5,8.5,16.4,11.9,20.5,3.3C74.4,47.3,73,43.3,68.6,41z"/>
	<path fill="#971A32" d="M130.2,100c0.1-0.5,0-0.9,0.1-1.4c0.5,0.2,1.1,0,1.6-0.1c0.4,0,0.5-0.3,0.4-0.3c-0.5,0.1-1.5-0.3-1.7-0.4
		c-0.4-0.2-0.6-0.5-0.7-1c0.3,0,0.9,0,1.2-0.2c0-0.2,0-0.7,0-1c-0.3,0-0.9,0.6-1.2,0.6c-0.1-0.3,0.7-1.8,1-2.1
		c0.9-0.9,0.1-0.7-0.1-0.6c-0.5,0.2-0.9,0.7-1.2,1c-0.2-0.2-0.7-1.3-1-1.5c-0.8-0.8-2.5-1.4-4-1.2c-0.7,0.1-1.5,0.5-2,0.7
		c-4.2,2.3-3.2,10.7,1.9,11.2C128,104.1,129.8,102.7,130.2,100z"/>
	<path fill="#971A32" d="M65.5,24.9c0.1-0.5,0-1,0.1-1.4c0.6,0.2,1.1,0,1.6-0.1c0.5,0,0.5-0.3,0.4-0.3c-0.5,0.1-1.6-0.3-1.7-0.4
		c-0.4-0.2-0.6-0.5-0.7-1c0.3,0,0.9,0,1.2-0.2c0-0.2,0-0.7,0-1c-0.3,0-0.9,0.6-1.2,0.6c-0.2-0.3,0.7-1.8,1.1-2.2
		c0.9-0.9,0.1-0.7-0.2-0.6c-0.5,0.2-1,0.7-1.3,1.1c-0.2-0.2-0.8-1.3-1-1.6c-0.9-0.9-2.6-1.4-4.2-1.3c-0.8,0.1-1.6,0.5-2.1,0.8
		c-4.3,2.4-3.4,11.1,2,11.7C63.2,29.2,65.1,27.8,65.5,24.9z"/>
	<path fill="#971A32" d="M113.3,38.5c-0.4-0.4-0.8-0.7-1.2-1.1c0.6-0.3,0.8-1,1.1-1.4c0.3-0.4,0.1-0.6,0.1-0.6
		c-0.3,0.5-1.4,1.1-1.6,1.2c-0.4,0.2-0.9,0.1-1.4-0.1c0.2-0.2,0.6-0.8,0.7-1.2c-0.2-0.2-0.6-0.5-0.9-0.7c-0.2,0.2-0.1,1.2-0.4,1.4
		c-0.4-0.1-1-1.9-1.1-2.5c-0.1-1.4-0.5-0.6-0.6-0.3c-0.2,0.6-0.1,1.3,0,1.8c-0.3,0-1.7-0.3-2.1-0.3c-1.3,0.1-3.1,1.1-4.1,2.6
		c-0.5,0.7-0.7,1.7-0.9,2.3c-1.1,5.4,6.9,10.9,11.3,6.8C115.3,43.6,115.4,40.9,113.3,38.5z"/>
	<path fill="#971A32" d="M25.2,113.2c0.5,0.2,1,0.3,1.5,0.5c-0.4,0.5-0.3,1.2-0.4,1.8c-0.1,0.5,0.2,0.6,0.2,0.6
		c0.1-0.5,0.8-1.6,0.9-1.7c0.3-0.4,0.8-0.5,1.3-0.4c-0.1,0.3-0.2,1-0.1,1.4c0.2,0.1,0.8,0.2,1.1,0.3c0.1-0.3-0.4-1.2-0.3-1.5
		c0.4-0.1,1.8,1.3,2.1,1.8c0.7,1.2,0.7,0.3,0.7,0c-0.1-0.6-0.4-1.2-0.8-1.7c0.3-0.1,1.6-0.4,2-0.6c1.2-0.7,2.3-2.3,2.6-4.1
		c0.1-0.9-0.1-1.8-0.2-2.5c-1.3-5.4-10.9-6.9-13.1-1.4C21.3,109.4,22.3,111.9,25.2,113.2z"/>
	<path fill="#F38620" d="M47.5,49.7c0.2-0.7,2.4-7.5,2.8-8.6c0.7-2,1.2-3.9,1.9-6.1c1-1.3,0.8-3.2-0.6-3.8c-0.4-2.9-1.1-5.7-1.7-8.5
		c0.6-1.1-0.3-1.9,0-3.1c-0.4-0.2-0.5-0.4-0.6-0.7c-0.2,0.1,0,0.5-0.2,0.6c-0.2-0.5-0.5-1-0.7-1.5c-0.1-0.3-0.3-0.4-0.4-0.9
		c-0.3,0.5-0.1,1-0.1,1.5c-0.6-0.8-0.7-1.9-1.5-2.8c-0.2,0.3,0.1,0.5,0.1,0.7c0.1,0.5,0.1,1.1,0.1,1.6c-0.3-0.4-0.3-1.1-1.1-1.1
		c0,0.9,0.6,1.6,0.7,2.4c-0.1,0.3,0.2,0.7,0.1,0.9c-1-0.9-2.4-2.2-3.7-2.8c-0.1,0.2,0.1,0.4,0.3,0.5c0.5,1,1.2,1.9,1.8,2.9
		c-0.1,0.2,0.5,0.7,0.6,0.9c-0.5-0.5-1.3-0.5-1.8-1c0,0.9,1.4,1.3,1.5,2.1C44,22.7,43,21.9,42,21.2c-0.1,0.1,1.6,2.2,2.7,3
		c-0.1,0.2-0.7-0.1-0.7-0.1c0.6,1,2.3,1.5,2.3,2.7c0.1,0.2,0.6-0.6,0.9-0.7c0.2,0.6,0,0.5,0.4,1c0.1-0.6,0.2-0.7,0.2-1.2
		c0.6,1.1,1.4,4.7,1.8,4.9c-0.7-0.3-1.8,2.2-1.7,4.5c0,3.2-2.9,13.1-3.3,14c-0.9,2.2-1.2,4.3-1.7,6.1c-0.6,3.1,0.1,2.7,1.4,0.2
		C45,54.3,46.9,51.3,47.5,49.7z"/>
	<path fill="#F38620" d="M115.1,58.1c0.4,0.6,4.6,6.4,5.3,7.3c1.2,1.8,2.5,3.3,3.8,5.2c0.5,1.6,2.1,2.5,3.4,1.7
		c2.6,1.4,5.3,2.5,7.9,3.6c0.6,1.1,1.8,0.9,2.5,1.8c0.4-0.2,0.6-0.1,1-0.1c0-0.2-0.4-0.3-0.4-0.5c0.5,0.2,1.1,0.2,1.6,0.3
		c0.3,0.1,0.5,0,0.9,0.2c-0.2-0.5-0.8-0.7-1.2-0.9c1,0,2,0.6,3.1,0.4c-0.1-0.3-0.4-0.2-0.7-0.3c-0.5-0.2-1-0.6-1.3-0.9
		c0.5,0,1.1,0.4,1.5-0.2c-0.7-0.5-1.6-0.4-2.4-0.8c-0.1-0.3-0.6-0.3-0.8-0.4c1.3-0.3,3.2-0.6,4.4-1.3c-0.1-0.2-0.4-0.1-0.6-0.1
		c-1.1-0.1-2.3-0.1-3.4-0.3c-0.1-0.1-0.9,0-1.1,0c0.6-0.1,1.2-0.7,1.8-0.9c-0.7-0.5-1.9,0.4-2.6,0c1-0.7,2.2-1.1,3.3-1.5
		c-0.1-0.1-2.7,0-4,0.4c-0.1-0.2,0.5-0.5,0.5-0.5c-1.1-0.1-2.6,0.9-3.5,0.3c-0.2-0.1,0.1,0.9,0,1.1c-0.6-0.2-0.4-0.3-1-0.2
		c0.4,0.4,0.5,0.5,0.9,0.9c-1.2-0.2-4.7-1.6-5-1.5c0.6-0.5-0.7-2.7-2.7-4.1c-2.6-1.9-8.9-10.1-9.3-10.9c-1.2-2.1-2.8-3.5-3.9-5
		c-2.1-2.3-2.2-1.5-1,1C112.8,53.4,114.1,56.7,115.1,58.1z"/>
	<path fill="#88AB58" d="M95.7,30.6c0.1-1.2-0.1-2.7-1-3.2c0.2-0.1,0.8-0.8,1-1.3c-0.2-0.2-2.3-0.1-3.1,0.2c0.4-1,0.8-2.4,0.7-3.4
		c-0.3-0.3-1.2-0.3-1.4-0.1c0,0.6,0.4,1,0.4,1.7c0,0.4-0.2,1.1-0.4,1.5c-1.1,0.1-1.8-1.9-2-2c-0.4,0.5-0.3,1.2-0.2,1.7
		c-0.4-0.3-0.5-0.6-0.9-0.8c-0.9-0.4-1.5,0.1-2,0.8c-2.2,2.8-2.8,6.9-2.7,8c0,0.2-0.1,0.5-0.1,0.7c0,1.2,0.5,2.5,1,3.5
		c0.7,0.5,1.3,0.7,2,0.5c0.1,0.1,0,0.4,0.1,0.5c0.9,1,2.4,0.2,2.5,0c0.7-0.3,1.2-0.9,1.8-1.5c0.3-0.3,1.7-1.1,3.1-3.1
		C95.1,33.2,95.3,32.3,95.7,30.6z"/>
	<path fill="#88AB58" d="M69.6,93.5c1.3-0.9,2.7-2.2,2.4-3.6c0.2,0.1,1.5,0.2,2.1,0c0-0.3-1.8-2.4-2.7-3c1.4-0.4,3.1-1.1,4-2
		c0.1-0.5-0.7-1.5-1-1.5c-0.6,0.4-0.7,1.3-1.4,1.7c-0.5,0.3-1.3,0.7-1.8,0.7c-1-1.1,0.5-3.4,0.5-3.7c-0.8,0.1-1.4,0.7-1.9,1.1
		c0-0.6,0.2-1,0.1-1.6c-0.3-1.2-1.3-1.5-2.4-1.5c-4.6,0.1-9.3,2.7-10.3,3.6c-0.2,0.2-0.5,0.3-0.8,0.5c-1.3,1-2.1,2.5-2.7,3.8
		c0,1.1,0.4,1.9,1.1,2.4c-0.1,0.2-0.4,0.3-0.4,0.5c-0.3,1.7,1.8,2.6,2,2.6c0.9,0.4,1.9,0.4,2.9,0.6c0.5,0.1,2.5,0.9,5.6,0.7
		C66.5,94.9,67.6,94.5,69.6,93.5z"/>
	<path fill="#8AC440" d="M113.5,71.3c0.1-0.9,0.1-2.1-0.5-2.5c0.1-0.1,0.7-0.6,0.8-0.9c-0.1-0.2-1.7-0.2-2.3-0.1
		c0.4-0.8,0.7-1.7,0.7-2.5c-0.2-0.2-0.9-0.3-1-0.2c-0.1,0.4,0.3,0.8,0.2,1.3c0,0.3-0.2,0.8-0.4,1.1c-0.8,0-1.3-1.6-1.4-1.6
		c-0.3,0.4-0.3,0.9-0.3,1.3c-0.3-0.2-0.3-0.4-0.6-0.7c-0.7-0.4-1.2,0-1.6,0.4c-1.8,2-2.5,5-2.6,5.8c0,0.2-0.1,0.3-0.1,0.5
		c-0.1,0.9,0.2,1.9,0.6,2.7c0.5,0.4,1,0.6,1.4,0.5c0.1,0.1,0,0.3,0.1,0.4c0.6,0.8,1.8,0.3,1.9,0.2c0.5-0.2,0.9-0.6,1.4-1
		c0.2-0.2,1.4-0.7,2.5-2.1C112.9,73.2,113.1,72.5,113.5,71.3z"/>
	<path fill="#88AB58" d="M112,123.1c0.2-1.1,0.2-2.6-0.7-3.1c0.2-0.1,0.8-0.7,1.1-1.1c-0.2-0.2-2.2-0.2-3-0.1c0.5-1,0.9-2.2,0.9-3.2
		c-0.2-0.3-1.2-0.4-1.3-0.2c-0.1,0.5,0.3,1,0.2,1.6c0,0.4-0.2,1-0.5,1.3c-1.1,0-1.6-2-1.7-2.1c-0.4,0.5-0.3,1.1-0.4,1.6
		c-0.3-0.3-0.4-0.6-0.8-0.9c-0.8-0.4-1.5,0-2,0.6c-2.3,2.5-3.2,6.4-3.2,7.4c0,0.2-0.1,0.4-0.1,0.6c-0.1,1.2,0.3,2.4,0.7,3.4
		c0.6,0.5,1.2,0.7,1.8,0.6c0.1,0.1,0,0.3,0.1,0.5c0.8,1,2.3,0.4,2.4,0.2c0.7-0.2,1.2-0.8,1.8-1.2c0.3-0.2,1.7-0.9,3.2-2.7
		C111.1,125.5,111.5,124.7,112,123.1z"/>
	<path fill="#C8AA67" d="M49.1,95.3c-0.2,0.1-1.3,0.2-1.6,0.3c-2.7,0.6-5.7-1.5-6.3-2c-0.8-0.3-3.3-1.4-3.7-1.5
		c-0.3-0.1-2.8-0.4-3.9-1.3c-0.1-0.5-0.9-0.5-0.9-0.1c0.3,1.4,1.6,5.3,4.4,7.1c0.6,0.4,3.7,2.8,5.7,3.4c2,0.9,7.9,0.7,10.3-2.6
		c0.4-0.6,0.8-1.4,1.4-1.8C53.1,95.4,51.3,94.8,49.1,95.3z"/>
	<path fill="#C8AA67" d="M48.7,57.7c-0.1,0.1-0.4,0.9-0.5,1.1c-0.8,1.9-3.4,2.8-4,2.9c-0.5,0.3-2.3,1.3-2.5,1.5
		c-0.2,0.2-1.4,1.5-2.5,1.8c-0.3-0.2-0.7,0.3-0.5,0.5c1,0.4,3.9,1.4,6.2,0.5c0.5-0.2,3.3-1,4.5-1.9c1.5-0.8,3.8-4.5,3-7.3
		c-0.2-0.5-0.5-1.1-0.5-1.6C50.4,55.4,49.3,56.2,48.7,57.7z"/>
	<path fill="#C8AA67" d="M52.6,125.8c-0.1,0.1-0.9,0.3-1.2,0.4c-1.9,0.8-4.4-0.3-4.9-0.6c-0.6-0.1-2.6-0.6-2.9-0.6
		c-0.3,0-2.1,0.1-3-0.4c-0.1-0.4-0.7-0.2-0.7,0c0.4,1,1.9,3.7,4.2,4.6c0.5,0.2,3.1,1.6,4.6,1.7c1.6,0.4,5.9-0.6,7.2-3.2
		c0.2-0.5,0.4-1.1,0.8-1.5C55.5,125.3,54.1,125.1,52.6,125.8z"/>
</g>
</svg>
