<?xml version="1.0" encoding="utf-8"?>
<!-- Generator: Adobe Illustrator 16.0.0, SVG Export Plug-In . SVG Version: 6.00 Build 0)  -->
<!DOCTYPE svg PUBLIC "-//W3C//DTD SVG 1.1//EN" "http://www.w3.org/Graphics/SVG/1.1/DTD/svg11.dtd">
<svg version="1.1" id="Layer_1" xmlns="http://www.w3.org/2000/svg" xmlns:xlink="http://www.w3.org/1999/xlink" x="0px" y="0px"
	 width="100px" height="100px" viewBox="0 0 100 100" enable-background="new 0 0 100 100" xml:space="preserve">
<g>
	<path fill="#FFFFFF" d="M31.066,22.555l-6.897,4.966l0.415,11.034c0,0,8.551,0.551,9.928,0.275
		c1.381-0.275,5.792-1.517,5.792-1.517s0.14-6.207-0.136-7.035c-0.276-0.826-2.344-6.622-2.483-7.033"/>
	<radialGradient id="SVGID_1_" cx="52.0381" cy="-5.4189" r="113.0799" gradientUnits="userSpaceOnUse">
		<stop  offset="0" style="stop-color:#FFFFFF"/>
		<stop  offset="0.02" style="stop-color:#FCD7D8"/>
		<stop  offset="0.0454" style="stop-color:#F8ABAE"/>
		<stop  offset="0.0728" style="stop-color:#F58589"/>
		<stop  offset="0.1017" style="stop-color:#F2646A"/>
		<stop  offset="0.1328" style="stop-color:#F04A50"/>
		<stop  offset="0.1667" style="stop-color:#EE353C"/>
		<stop  offset="0.205" style="stop-color:#ED272F"/>
		<stop  offset="0.2512" style="stop-color:#EC1F26"/>
		<stop  offset="0.3273" style="stop-color:#EC1C24"/>
		<stop  offset="0.355" style="stop-color:#E31B23"/>
		<stop  offset="0.5078" style="stop-color:#B81620"/>
		<stop  offset="0.6269" style="stop-color:#9D121E"/>
		<stop  offset="0.697" style="stop-color:#93111D"/>
		<stop  offset="0.9818" style="stop-color:#6E0008"/>
	</radialGradient>
	<path fill="url(#SVGID_1_)" d="M79.766,25.055c-1.771,0.806-3.693,1.255-5.473,1.062c-7.394-0.809-14.778-1.765-22.187-2.415
		c0.185,2.69,0.316,5.69,0.188,6.075c-0.211,0.632-0.769,2.245-0.769,2.245l-16.333,0.912c0,0-2.156,0.136-3.36-0.874
		c-0.918,0.445-2.024,0.421-2.921-0.072c-1.333-0.268-2.099-1.309-2.296-2.465l-2.497,0.19c0,0-1.33,0.024-2.36,0.129
		c-3.721,5.843-6.68,14.125-6.68,21.566c0,20.83,16.884,37.713,37.713,37.713c20.828,0,37.716-16.883,37.716-37.713
		C90.507,41.153,86.408,31.854,79.766,25.055z"/>
	<circle fill="#FFFFFF" cx="52.277" cy="50.129" r="26.829"/>
	<g>
		<linearGradient id="SVGID_2_" gradientUnits="userSpaceOnUse" x1="72.5371" y1="43.3804" x2="72.5371" y2="35.7689">
			<stop  offset="0" style="stop-color:#EF5044"/>
			<stop  offset="1" style="stop-color:#DD2A28"/>
		</linearGradient>
		<path fill="url(#SVGID_2_)" d="M76.436,35.892c-2.098,0.405-3.322-0.041-4.022-0.582c-1.511,1.408-2.885,3.091-4.963,5.704
			l0.262,1.255c0,0,1.411,0.336,2.289,1.857c1.071,1.86,0.285,5.724-4.143,5.435c0.021,0.52-0.283,1.261-0.65,1.65
			c0,0,8.792,6.325,11.15,11.706c0,0,3.037-5.152,3.451-11.435C80.152,46.245,78.888,40.442,76.436,35.892z"/>
	</g>
	<path fill="#F9A622" d="M46.501,24.888l-8.34,1.823l0.473-1.343c0,0,0.793-0.792,1.027-0.792c0.239,0,2.528-0.473,2.766-0.551
		c0.238-0.079,1.66-0.711,1.898-0.711c0.234,0,1.023-0.079,1.261-0.16c0.238-0.079,0.238-0.079,0.238-0.079"/>
	<g>
		<linearGradient id="SVGID_3_" gradientUnits="userSpaceOnUse" x1="33.373" y1="47.2441" x2="33.373" y2="36.5581">
			<stop  offset="0" style="stop-color:#54B848"/>
			<stop  offset="1" style="stop-color:#388834"/>
		</linearGradient>
		<path fill="url(#SVGID_3_)" d="M33.39,63.166c-0.095-5.173,2.469-9.551,2.469-9.551s-3.571-5.061-5.928-6.996
			c-1.837-1.511-1.973-8.561-1.973-8.561s-3.782,5.292-3.782,12.057c0,12.108,7.659,22.432,18.394,26.388l-5.721-4.283
			C35.652,71.567,33.499,69.091,33.39,63.166z"/>
	</g>
	<g>
		<path fill="#FFFFFF" d="M52.521,22.606c-15.306,0-27.717,12.408-27.717,27.717c0,15.305,12.411,27.713,27.717,27.713
			s27.714-12.408,27.714-27.713C80.235,35.014,67.827,22.606,52.521,22.606z M52.521,76.587c-14.761,0-26.267-11.507-26.267-26.264
			c0-14.761,11.506-26.265,26.267-26.265c14.759,0,26.265,11.503,26.265,26.265C78.786,65.08,67.28,76.587,52.521,76.587z"/>
	</g>
	<path d="M76.521,33.81h-1.647c3.409,4.602,5.429,10.296,5.429,16.462c0,15.285-12.394,27.676-27.68,27.676
		c-15.284,0-27.675-12.392-27.675-27.676c0-5.198,1.432-10.058,3.924-14.21l-0.183-2.194c-3.204,4.667-5.082,10.315-5.082,16.404
		c0,16.027,12.99,29.019,29.015,29.019c16.027,0,29.02-12.992,29.02-29.019C81.643,44.156,79.752,38.486,76.521,33.81z"/>
	<path fill="#FFFFFF" d="M44.642,44.871c0,0-3.929-2.976-8.218-3.929c0,0,0.952-5.836-2.262-8.217c0,0-5.002-1.31-5.956-0.238
		c0,0,1.667,12.384,2.738,13.217c0,0,3.099,2.262,7.503,7.503c0,0-3.571,4.286-3.452,10.359c0.119,6.071,3.2,9.861,5.343,11.2
		c0,0,8.85,4.827,17.758,2.257l0.714-0.954c0,0,1.231-0.18,3.68-2.935l10.412-1.377c0,0,2.146-0.919,3.063-3.521
		c0.919-2.605-5.384-11.522-12.862-15.771c0,0-7.194,2.755-13.779-1.687C42.74,46.34,44.642,44.871,44.642,44.871z"/>
	<linearGradient id="SVGID_4_" gradientUnits="userSpaceOnUse" x1="43.5361" y1="48.0796" x2="33.2209" y2="37.4928">
		<stop  offset="0" style="stop-color:#FBFBFB"/>
		<stop  offset="1" style="stop-color:#BFC1C3"/>
	</linearGradient>
	<path fill="url(#SVGID_4_)" d="M33.461,42.503c0,0,5.037,1.075,11.037,8.68c0,0-2.037-3.643,0.857-6c0,0-5.551-3.877-9.098-4.136
		C36.257,41.047,34.747,41.755,33.461,42.503z"/>
	<linearGradient id="SVGID_5_" gradientUnits="userSpaceOnUse" x1="34.4067" y1="40.9395" x2="34.2825" y2="33.98">
		<stop  offset="0" style="stop-color:#FBFBFB"/>
		<stop  offset="1" style="stop-color:#BFC1C3"/>
	</linearGradient>
	<path fill="url(#SVGID_5_)" d="M32.046,32.347c0,0,3.34,4.065,0.728,9.292c0,0,1.742-1.452,3.483-0.728c0,0,1.452-4.208-1.884-7.84
		L32.046,32.347z"/>
	<linearGradient id="SVGID_6_" gradientUnits="userSpaceOnUse" x1="72.3955" y1="67.1494" x2="59.0575" y2="51.2799">
		<stop  offset="0" style="stop-color:#FBFBFB"/>
		<stop  offset="1" style="stop-color:#BFC1C3"/>
	</linearGradient>
	<path fill="url(#SVGID_6_)" d="M57.065,56.033c0,0,6.97,0.688,10.521,6.205c0,0,1.851,0.526,2.143-1.236
		c0,0,2.037,1.112,3.271,3.888c1.235,2.772,0.027,6.351,0.027,6.351s4.929-2.01,1.793-7.788
		c-3.133-5.779-12.143-12.048-12.143-12.048L57.065,56.033z"/>
	<linearGradient id="SVGID_7_" gradientUnits="userSpaceOnUse" x1="45.8506" y1="72.0508" x2="48.4353" y2="61.1679">
		<stop  offset="0" style="stop-color:#FBFBFB"/>
		<stop  offset="1" style="stop-color:#BFC1C3"/>
	</linearGradient>
	<path fill="url(#SVGID_7_)" d="M54.498,54.986c0,0-8.629,6.958-9.228,15.332c-0.425,5.962,2.259,6.612,2.259,6.612l-1.524-0.262
		c-1.714-1.544-3.676-4.333-3.432-8.905c0.425-7.947,6.248-14.057,6.248-14.057L54.498,54.986z"/>
	<linearGradient id="SVGID_8_" gradientUnits="userSpaceOnUse" x1="46.4878" y1="51.4063" x2="45.0447" y2="47.7503">
		<stop  offset="0" style="stop-color:#EE3824"/>
		<stop  offset="1" style="stop-color:#7D1416"/>
	</linearGradient>
	<path fill="url(#SVGID_8_)" d="M46.498,53.54c0,0-2.14-1.904-2.506-4.04c-0.51-2.97,0.928-4.69,0.928-4.69
		s-0.605,5.896,3.667,7.244l-1.16,1.021L46.498,53.54z"/>
	<linearGradient id="SVGID_9_" gradientUnits="userSpaceOnUse" x1="42.5542" y1="57.8867" x2="45.539" y2="55.5906">
		<stop  offset="0" style="stop-color:#EE3824"/>
		<stop  offset="1" style="stop-color:#7D1416"/>
	</linearGradient>
	<path fill="url(#SVGID_9_)" d="M41.223,58.404l1.456-2.296c0,0,3.024-1.857,4.299-1.527c0,0,0.038,1.238-1.204,2.476
		C44.536,58.295,42.424,58.55,41.223,58.404z"/>
	<path fill="#EE3824" d="M52.794,55.975c0,0,5.377,1.138,10.856-3.517l-1.241-1.86c0,0-5.275,4.653-11.789,2.896l-0.411,1.344
		C50.209,54.837,51.035,54.01,52.794,55.975z"/>
	<linearGradient id="SVGID_10_" gradientUnits="userSpaceOnUse" x1="51.959" y1="54.6914" x2="60.4532" y2="53.5387">
		<stop  offset="0" style="stop-color:#EE3824"/>
		<stop  offset="1" style="stop-color:#7D1416"/>
	</linearGradient>
	<path fill="url(#SVGID_10_)" d="M51.199,54.585c0,0,5.18,2.266,9.465-1.939l2.429-1.295l0.405,0.485c0,0-2.803,4.881-10.704,4.139
		C52.794,55.975,52.09,54.989,51.199,54.585z"/>
	<linearGradient id="SVGID_11_" gradientUnits="userSpaceOnUse" x1="51.7813" y1="61.6367" x2="51.0921" y2="56.7363">
		<stop  offset="0" style="stop-color:#EE3824"/>
		<stop  offset="1" style="stop-color:#7D1416"/>
	</linearGradient>
	<path fill="url(#SVGID_11_)" d="M50.423,54.602c0,0,2.126,0.324,3.19,2.313c1.065,1.99,0.603,5.276,0.603,5.276
		s-5.041-1.528-6.062-6.341C48.154,55.85,48.665,54.786,50.423,54.602z"/>
	<path fill="#EE3824" d="M49.454,55.119c0,0,2.725-0.178,4.762,7.071c0,0-3.571-1.404-5.122-3.852
		c-1.551-2.445-0.653-3.22-0.653-3.22H49.454z"/>
	<path fill="#EE3824" d="M41.223,58.404c0,0,2.293-3.242,5.83-4.299l-0.477-0.875C46.576,53.23,41.733,53.448,41.223,58.404z"/>
	<path fill="#EE3824" d="M44.624,45.833c0,0-0.867,2.228,0.381,4.537c0.708,1.302,2.224,2.034,2.224,2.034l-0.217,1.249
		l-1.031-0.383C45.981,53.271,42.399,48.928,44.624,45.833z"/>
	<radialGradient id="SVGID_12_" cx="54.0801" cy="70.3711" r="5.1569" gradientUnits="userSpaceOnUse">
		<stop  offset="0" style="stop-color:#F5E0CD"/>
		<stop  offset="1" style="stop-color:#E1B995"/>
	</radialGradient>
	<path fill="url(#SVGID_12_)" d="M58.501,65.928c0,0-1.551-1.048-4.602-0.327c-3.051,0.722-2.496,2.222-1.83,3.109
		c0,0-2.292-0.738-3.071,1.204c-0.776,1.942,0.904,2.014,0.904,2.014s-0.163,1.442,1.446,2.108c0,0,2.547,2.602,6.595,0.605
		C57.943,74.642,60.732,70.039,58.501,65.928z"/>
	<linearGradient id="SVGID_13_" gradientUnits="userSpaceOnUse" x1="52.6162" y1="27.5088" x2="62.8393" y2="0.7449">
		<stop  offset="0" style="stop-color:#FBFBFB"/>
		<stop  offset="1" style="stop-color:#BFC1C3"/>
	</linearGradient>
	<path fill="url(#SVGID_13_)" d="M52.539,32.98l2.758-14.125c0,0-0.69,0.918-1.608,0.575l-2.544,13.51L52.539,32.98z"/>
	<linearGradient id="SVGID_14_" gradientUnits="userSpaceOnUse" x1="67.9766" y1="33.9697" x2="72.707" y2="28.809">
		<stop  offset="0" style="stop-color:#FBFBFB"/>
		<stop  offset="1" style="stop-color:#BFC1C3"/>
	</linearGradient>
	<polygon fill="url(#SVGID_14_)" points="62.409,36.568 69.399,29.133 72.416,31.854 72.31,32.718 65.583,40.01 	"/>
	<linearGradient id="SVGID_15_" gradientUnits="userSpaceOnUse" x1="73.3721" y1="31.0176" x2="82.4022" y2="26.0725">
		<stop  offset="0" style="stop-color:#FBFBFB"/>
		<stop  offset="1" style="stop-color:#BFC1C3"/>
	</linearGradient>
	<path fill="url(#SVGID_15_)" d="M69.399,29.133c0,0,3.791,3.568,7.584,1.336c3.793-2.227,0.741-6.54,0.741-6.54s6,5.5,0.82,8.921
		c-4.164,2.751-6.235-0.133-6.235-0.133L69.399,29.133z"/>
	<linearGradient id="SVGID_16_" gradientUnits="userSpaceOnUse" x1="63.5176" y1="24.5479" x2="71.4728" y2="14.2274">
		<stop  offset="0" style="stop-color:#FBFBFB"/>
		<stop  offset="1" style="stop-color:#BFC1C3"/>
	</linearGradient>
	<path fill="url(#SVGID_16_)" d="M59.763,34.729l5.982-11.953c0,0,0.086,2.177,3.119,1.419c3.031-0.759,4.382-4.044,1.937-6.741
		c-2.442-2.694-6.824-3.708-8.678,1.265l-5.561,14.745L59.763,34.729z"/>
	<linearGradient id="SVGID_17_" gradientUnits="userSpaceOnUse" x1="51.793" y1="28.2983" x2="57.8514" y2="33.9439">
		<stop  offset="0" style="stop-color:#FBFBFB"/>
		<stop  offset="1" style="stop-color:#BFC1C3"/>
	</linearGradient>
	<path fill="url(#SVGID_17_)" d="M67.052,38.306c0,0-5.02-9.744-15.469-7.177l-0.438,1.81c0,0,7.888-1.449,14.407,7.561
		L67.052,38.306z"/>
	
		<ellipse transform="matrix(0.9355 -0.3534 0.3534 0.9355 -22.3687 19.1509)" fill="#231F20" cx="41.259" cy="70.83" rx="0.765" ry="0.919"/>
	
		<ellipse transform="matrix(0.9357 -0.3528 0.3528 0.9357 -22.3859 20.6196)" fill="#231F20" cx="45.367" cy="71.715" rx="0.765" ry="0.917"/>
	<path fill="#231F20" d="M41.825,65.207c-0.051,0.635-0.521,1.119-1.05,1.078c-0.531-0.045-0.922-0.593-0.871-1.229
		c0.051-0.635,0.521-1.119,1.051-1.078C41.484,64.019,41.873,64.57,41.825,65.207z"/>
	<path fill="#231F20" d="M46.958,66.08c-0.051,0.637-0.517,1.12-1.051,1.079c-0.527-0.041-0.918-0.592-0.871-1.229
		c0.052-0.636,0.521-1.118,1.051-1.074C46.617,64.895,47.008,65.445,46.958,66.08z"/>
	<path fill="#231F20" d="M43.297,60.41c-0.343,0.603-1.027,0.854-1.526,0.569c-0.5-0.287-0.629-1.008-0.283-1.605
		c0.34-0.602,1.027-0.854,1.527-0.568C43.516,59.091,43.641,59.812,43.297,60.41z"/>
	
		<ellipse transform="matrix(0.9859 -0.1675 0.1675 0.9859 -9.5474 8.9634)" fill="#231F20" cx="48.371" cy="61.089" rx="1.044" ry="1.254"/>
	<path d="M46.294,37.103c0,0,3.836-2.603,7.905-1.898c0,0,0,0.938-1.15,2.367C53.049,37.571,50.852,35.973,46.294,37.103z"/>
	<path d="M63.235,43.745c0,0-2.363-3.938-6.054-4.269c0,0-0.657-1.755,0.929-2.473C58.11,37.003,61.978,39.177,63.235,43.745z"/>
	<g>
		<path d="M48.845,52.092c-1.446-0.19-2.99-0.979-3.636-2.47c-0.646-1.453-0.626-3.071-0.269-4.622l0.463,0.153l0.462,0.153
			c-0.449,1.285-0.643,2.799-0.208,4.135C46.076,50.813,47.41,51.737,48.845,52.092z"/>
		<path d="M58.08,52.714l-0.596-0.096c-0.918,1.099-3.445,1.348-5.337,1.137c-0.564-0.027-1.122-0.174-1.636-0.422
			c-0.024,0.156-0.054,0.311-0.082,0.466c0,0.013-0.003,0.027-0.006,0.038c0.497,0.289,1.044,0.489,1.609,0.568
			c1.068,0.216,2.136,0.333,3.244,0.257c1.109-0.122,3.048-0.648,4.344-1.785L58.08,52.714z"/>
	</g>
	<g>
		<path d="M47.447,51.958c0.003-0.003,0.003,0.008,0.003,0.021C47.461,51.973,47.461,51.966,47.447,51.958z M63.161,51.892
			c-1.306,1.602-2.813,2.547-4.279,3.098c-1.462,0.548-2.881,0.698-3.986,0.698c-0.656,0-1.2-0.053-1.578-0.106
			c-0.19-0.023-0.336-0.051-0.436-0.068c-0.034-0.01-0.061-0.013-0.085-0.016c-0.588-0.614-1.356-1.059-2.237-1.205
			c0.058-0.214,0.071-0.428,0.037-0.626c-0.823,0.915-1.517,0.885-1.905,0.623c-0.534-0.255-0.904-0.528-1.064-0.752
			c-0.326-0.559-0.187-1.422-0.177-1.559c-0.058,0.048-0.432,0.185-0.694,0.624c-0.208,0.016-0.412,0.043-0.612,0.077
			c-0.198-0.222-0.411-0.483-0.622-0.778c-0.69-0.967-1.354-2.3-1.354-3.83c0-0.626,0.109-1.286,0.378-1.979l-0.644-0.249
			c-0.299,0.772-0.425,1.524-0.425,2.228c0.004,1.761,0.766,3.241,1.517,4.278c0.133,0.18,0.262,0.347,0.388,0.5
			c-1.021,0.296-1.932,0.824-2.649,1.592c-1.041,1.102-1.46,2.574-1.517,3.963c0.272-1.371,0.915-2.681,1.962-3.479
			c0.786-0.637,1.81-0.957,2.782-1.018c-0.316,0.177-0.582,0.388-0.877,0.591c-0.578,0.449-1.072,0.967-1.531,1.501
			c0.599-0.368,1.221-0.698,1.854-0.93c0.428-0.17,0.993-0.295,1.374-0.299c-0.269,0.987-1.007,2.018-1.979,2.646
			c-1.021,0.66-2.296,0.97-3.585,0.987c1.269,0.201,2.632,0.133,3.897-0.405c0.938-0.425,1.776-1.07,2.398-1.956
			c0.343,1.487,1.201,2.722,2.231,3.694c1.296,1.174,2.84,1.95,4.439,2.469c-0.003,0.018-0.003,0.035-0.003,0.056
			c0-0.021,0.003-0.038,0.003-0.056c0.088,0.032,0.177,0.059,0.265,0.086c-0.088-0.041-0.173-0.079-0.258-0.119
			c0.17-1.585,0.241-3.235-0.296-4.799c-0.109-0.378-0.272-0.742-0.479-1.085c0.388,0.047,0.891,0.087,1.482,0.087
			c1.167,0,2.667-0.158,4.231-0.744c1.558-0.584,3.181-1.602,4.568-3.306L63.161,51.892z M53.583,57.49
			c0.616,1.447,0.667,3.091,0.599,4.68c-1.514-0.711-2.912-1.663-3.963-2.892c-0.887-1.021-1.483-2.361-1.578-3.599
			c0.276,0.033,0.535,0,0.766-0.089c0.65,0.204,1.347,0.562,1.925,1.011c0.623,0.482,1.146,1.125,1.446,1.912
			c-0.082-0.833-0.439-1.668-0.973-2.371c-0.344-0.442-0.722-0.844-1.16-1.204c0.728,0.112,1.422,0.49,1.973,1.036l-0.041,0.178
			c0.004,0,0.096,0.021,0.255,0.051C53.154,56.578,53.417,57.013,53.583,57.49z"/>
	</g>
	<g>
		<path fill="#231F20" d="M58.927,73.85c0.01-0.024-0.731,0.711-2.129,0.996c-0.99,0.167-3.065-0.1-4.272-0.564
			c-0.521-0.205-0.687,0.109-1.248-0.045c2.081,1.47,4.459,1.746,5.921,1.157C58.654,74.754,58.93,73.805,58.927,73.85z"/>
		<path fill="#231F20" d="M55.147,73.492c0-0.011-0.755,0.122-1.881,0.18c-1.092,0.031-2.707,0.082-3.459-1.541
			c-0.055,0.987,0.734,1.942,1.592,2.136c0.837,0.256,1.574,0.154,2.133,0.015C54.658,73.975,55.147,73.481,55.147,73.492z"/>
		<path fill="#231F20" d="M51.756,69.652c0,0.014,0.146-0.538,0.65-1.011c0.51-0.367,1.445-1.051,2.51-1.102
			c-0.533-0.487-1.367-0.34-1.877-0.157c-0.534,0.175-1.007,0.571-1.211,0.963C51.413,69.183,51.78,69.683,51.756,69.652z"/>
		<path fill="#231F20" d="M51.978,68.581c0.014,0.003-0.197-0.238-0.323-0.716c-0.163-0.492,0.1-1.111,0.926-1.43
			c1.629-0.597,4.193-0.987,6.771-0.216c-2.714-1.706-5.748-1.196-7.333-0.203c-0.408,0.274-0.714,0.69-0.769,1.102
			c-0.055,0.415,0.091,0.725,0.221,0.933C51.746,68.465,51.988,68.576,51.978,68.581z"/>
		<path fill="#231F20" d="M53.195,71.893c0.021-0.036-1.17,0.208-2.789-0.081c-0.847-0.149-1.405-0.741-1.061-1.793
			c0.156-1.009,1.289-1.652,2.561-1.328c-0.616-0.368-1.415-0.498-2.102-0.188c-0.701,0.31-1.089,1.013-1.239,1.64
			c-0.173,0.612-0.027,1.445,0.521,1.854c0.514,0.404,1.055,0.459,1.497,0.49C52.365,72.464,53.192,71.856,53.195,71.893z"/>
	</g>
	<path d="M55.691,41.082c-0.017,0.014,1.078-0.15,2.599,0.313c1.538,0.428,3.282,1.734,4.7,3.7c-0.833-2.7-3.166-4.228-4.813-4.346
		C56.515,40.551,55.672,41.109,55.691,41.082z"/>
	<path d="M52.325,39.691c-0.015,0.013-0.024-0.775-0.834-1.667c-0.769-0.994-2.81-1.205-4.102-0.194
		C51.12,37.18,52.191,39.837,52.325,39.691z"/>
	<g>
		<path d="M68.279,44.925c-0.322-0.582-0.754-1.109-1.337-1.354c-1.271-0.446-2.026,0.388-2.38,0.721
			c-0.375,0.419-0.497,0.687-0.497,0.687c0,0.007,0.248-0.244,0.756-0.554c0.476-0.293,1.373-0.697,2.044-0.092
			c0.67,0.589,1.289,1.83,0.473,2.734c-0.718,0.953-2.439,1.109-3.493-0.118c0.184,0.442,0.489,0.778,0.86,1.01
			c-0.384,1.326-1.092,2.367-2.096,3.381c-1.063,1.072-2.724,1.626-4.207,1.405c1.456,0.329,3.146,0.071,4.367-0.909
			c1.174-0.925,1.997-2.197,2.527-3.608c1.058,0.323,2.337-0.014,2.891-1C68.657,46.506,68.64,45.554,68.279,44.925z"/>
	</g>
	<g>
		<path d="M43.332,39.976c-0.037,0.051-0.075,0.099-0.112,0.149c-0.993,1.429-0.425,3.497,0.632,4.527
			c-0.14,0.105-0.282,0.184-0.418,0.249c0.595,0.16,1.279,0.204,1.68,0.17c0.262-0.024,0.316-0.234,0.347-0.721
			c0.007-0.089,0.028-0.208,0.041-0.327C45.475,44.01,45.45,44,45.423,43.986c-0.18-0.088-0.326-0.194-0.442-0.313
			c-0.017,0.013-0.034,0.023-0.051,0.037c-0.847-0.673-1.558-1.806-1.252-2.925c0.33-1.211,1.64-2.061,3.007-1.742
			c-0.877-0.397-1.803-0.302-2.572,0.201c-0.51-0.146-0.928-0.888-0.718-1.611c0.17-0.824,1.126-1.426,2.044-1.228
			c-0.83-0.375-2.184,0.18-2.582,1.163c-0.201,0.449-0.259,0.816-0.198,1.391C42.719,39.371,42.971,39.742,43.332,39.976z"/>
	</g>
	<path d="M28.747,34.953c0.623,4.03,0.714,5.68,2.071,9.469c0.181,0.432,0.428,0.949,0.681,1.119
		c0.408,0.244,0.901,0.602,1.275,0.935c0.796,0.68,1.535,1.401,2.266,2.129c1.459,1.462,2.863,2.959,4.248,4.49l-0.5,0.429
		l-0.503,0.425c-1.286-1.577-2.603-3.146-3.963-4.663c-0.68-0.751-1.371-1.503-2.099-2.197c-0.377-0.363-0.697-0.629-1.153-0.942
		c-0.551-0.483-0.66-0.993-0.867-1.49C29.006,40.64,29.159,39.034,28.747,34.953z"/>
	<g>
		<path d="M43.594,43.316c-1.847-0.87-3.786-1.799-5.758-2.452c-0.204-0.055-0.792-0.17-0.888-0.194
			c0.262-1.483,0.055-2.871-0.371-4.193c-0.507-1.446-1.34-2.725-2.351-3.799c0.844,1.211,1.449,2.572,1.711,3.966
			c0.238,1.306,0.16,2.728-0.255,3.857c-0.405-0.003-0.782,0.044-1.126,0.129c-0.914,0.204-1.704,0.762-2.271,1.449
			c0.649-0.616,1.469-1.044,2.33-1.126c0.313-0.037,0.629-0.041,0.942-0.01c-1.245,0.415-2.269,1.398-2.751,2.596
			c0.932-1.792,3.228-2.602,4.938-2.003c2.438,0.857,4.261,2.286,5.928,3.71l0.667-1.034L43.594,43.316z"/>
	</g>
	<path d="M73.024,71.928c1.905-1.064,3.156-3.269,2.561-5.385c-0.493-2.078-1.813-3.863-3.197-5.482
		c-2.853-3.225-6.284-5.904-9.798-8.404l0.395-0.531l0.214-0.66c3.426,2.715,6.948,5.731,9.697,9.177
		c1.333,1.729,2.603,3.63,3.014,5.84C76.425,68.757,74.97,70.981,73.024,71.928z"/>
	<path fill="#231F20" d="M56.896,76.009c-0.023-0.014,0.8,0.269,1.419-0.377c0.258-0.273,3.251-4.567,1.058-9.387
		c-0.133-0.297-0.823-0.308-1.041-0.549c1.449,3.058,0.677,5.714,0.007,7.354C57.634,74.73,56.862,75.992,56.896,76.009z"/>
	<path fill="#231F20" d="M57.606,65.778c0.004,0.033,0.109-0.398,0.596-0.615c0.238-0.104,0.564-0.021,0.897,0.19
		c0.269,0.193,0.81,0.669,1.486,0.628c0.664-0.013,1.262-0.422,1.497-0.155c0.336,0.262,0.656,0.925,0.847,1.526
		c0.388,1.27,0.395,2.816,0.143,4.367c0.697-1.663,0.878-3.448,0.395-4.938c-0.296-0.67-0.496-1.531-1.518-1.742
		c-0.897,0.049-1.224,0.412-1.666,0.317c-0.687-0.19-1.803-0.946-2.299-0.333C57.563,65.451,57.627,65.796,57.606,65.778z"/>
	<path fill="#231F20" d="M63.246,71.255c-0.378,1.333-1.01,2.636-2.018,3.692c-0.999,0.962-2.551,1.957-4.333,1.062l0.344-0.442
		l0.344-0.441c0.734,0.578,2.289,0.224,3.272-0.595C61.893,73.703,62.694,72.522,63.246,71.255z"/>
	<path d="M41.026,75.513c-3.626-2.103-5.932-6.197-6.231-10.486c-0.375-4.269,0.874-8.521,3.067-12.228l0.463,0.316l0.962-0.021
		c-2.404,3.426-4.125,7.793-3.935,11.891C35.458,69.122,37.492,73.237,41.026,75.513z"/>
	<path fill="#231F20" d="M45.733,77.032c-2.848-2.822-3.497-7.173-3.157-11.063c0.449-3.983,2.238-7.755,5.021-10.759l0.381,0.409
		l0.384,0.408c-2.677,2.626-4.632,6.214-5.231,10.016C42.624,69.782,43.036,74.094,45.733,77.032z"/>
	<path fill="#231F20" d="M68.113,65.9c-0.562-1.552-2.144-2.527-3.728-2.329c-1.415,0.125-3.545,0.655-3.429,2.067l-0.275,0.058
		l-0.275,0.054c-0.1-1.074,0.778-1.765,1.547-2.019c0.79-0.287,1.596-0.434,2.422-0.443C66.063,63.176,67.661,64.328,68.113,65.9z"
		/>
	<path fill="#231F20" d="M65.358,63.428c0.354-0.778,1.391-0.803,2.133-0.782c0.707,0.085,1.761-0.105,1.612-0.564l0.271-0.065
		l0.271-0.062c0.096,0.681-0.564,1.019-0.955,1.035c-0.433,0.057-0.84-0.01-1.229-0.065C66.752,62.822,65.794,62.721,65.358,63.428z
		"/>
	<path fill="#231F20" d="M58.093,62.18c0.694-0.045,1.507,0.033,2.218,0.244c0.728,0.219,1.33,0.549,2.037,1.211l-0.455,0.327
		l-1.105,0.942C60.549,63.521,58.767,62.424,58.093,62.18z"/>
	<path d="M35.172,28.575c-0.02,0.089-1.193,0.66-2.88-0.201c-0.282-0.143-1.331,0.378-1.667,0.351
		c1.269,0.772,2.595,0.802,3.412,0.544C34.876,29.018,35.186,28.565,35.172,28.575z"/>
	<g>
		<path d="M35.978,30.694c0-0.772-0.272-1.534-0.32-2.302c-0.047,0.768,0.085,1.87-0.01,2.628c-0.081,0.65-0.237,1.19-0.537,1.626
			c-1.874-1.088-4.816-1.218-6.207-1.211c-0.439-0.051-0.905-0.187-1.292-0.418c-0.551-0.306-0.966-0.864-1.167-1.531
			c0.01,0.687,0.275,1.428,0.813,1.966c0.523,0.527,1.153,0.884,1.918,1.092l0.055,0.054c2.962-0.119,5.884,1.541,5.884,1.541
			l0.503-1.116h0.014C35.958,32.211,35.972,31.467,35.978,30.694z"/>
	</g>
	<path d="M43.584,44.262c0,0,0,0.643,0.319,2.292l1.208-0.401l0.684-0.684l0.201-1.286c0,0-1.126-0.36-1.81-1.166"/>
	<circle cx="52.427" cy="44.19" r="2.558"/>
	<path d="M47.352,44.269c0,0-0.579,6.173,9.935,4.149C57.287,48.418,45.906,55.454,47.352,44.269z"/>
	<path fill="#EE3824" d="M47.862,51.479l-1.105,1.52c0,0,1.177,2.1,2.697,2.12c0,0,0.952-0.719,1.166-1.626
		C50.62,53.493,49.797,51.271,47.862,51.479z"/>
	<g>
		<path fill="#FDD106" d="M11.99,24.803c0,0-1.085-2.976,2.251-2.962c2.473,0.006,2.667-4.055,5.826-2.653
			c0.932,0.418,0.595-2.105,3.646-1.401c4.416,1.017,3.912-2.704,7.769-2.445c3.164,0.21,4.041,2.303,7.136,0.496
			c1.19-0.693,3.591-0.701,7.278,0.303c1.16,0.316,5.088,1.81,4.562,3.286c-0.527,1.476-4.534,3.479-12.435,5.061
			C30.118,26.065,10.408,31.232,11.99,24.803z"/>
		<g>
			<path fill="#69BC45" d="M41.281,23.48c0,0-0.506-2.184,2.567-3.109c2.392-0.717,2.3-1.282,2.3-1.282s0.993,1.205-2.027,2.296
				C41.774,22.235,41.281,23.48,41.281,23.48z"/>
			<path fill="#118040" d="M41.093,23.524c-0.003-0.014-0.037-0.16-0.037-0.398l0,0c-0.014-0.711,0.351-2.238,2.738-2.942l0,0
				c1.095-0.327,1.653-0.622,1.918-0.83l0,0c0.268-0.204,0.241-0.258,0.241-0.258l0,0c0-0.02-0.003-0.044,0.021-0.095l0,0
				l0.132-0.262l0.188,0.228c0.017,0.017,0.201,0.238,0.201,0.605l0,0c0,0.575-0.466,1.33-2.31,1.993l0,0
				c-1.15,0.418-1.833,0.922-2.228,1.319l0,0c-0.395,0.398-0.497,0.664-0.497,0.664l0,0l-0.225,0.574L41.093,23.524L41.093,23.524z
				 M41.281,23.48l0.187-0.044L41.281,23.48L41.281,23.48z M43.903,20.555c-1.941,0.595-2.356,1.643-2.442,2.299l0,0
				c0.391-0.462,1.16-1.136,2.592-1.653l0,0c1.799-0.657,2.058-1.303,2.058-1.629l0,0c0-0.017-0.003-0.03-0.003-0.048l0,0
				C45.832,19.8,45.229,20.154,43.903,20.555L43.903,20.555z"/>
		</g>
		<path fill="#F9A622" d="M20.067,19.188c0,0-2.156-1.021-3.289,0.908c-1.132,1.929-5.908-0.704-7.251,6.347
			c-0.456,2.381,4.489,4.279,10.921,3.459c2.925-0.375,7.262-0.497,10.095-1.517c2.833-1.017,6.527-2.292,9.021-1.953
			c2.496,0.34,10.989-2.595,11.329-7.925c0,0-3.286,3.177-6.119,4.082c-2.833,0.908-3.285-1.864-7.819,1.021
			c-2.494,1.584-5.555-0.113-7.255,1.132c-1.701,1.248-2.606,1.136-4.646,0.908c-2.042-0.228-4.082,0.453-5.895,1.361
			c-1.813,0.904-3.401,0.34-4.646-0.34c-1.248-0.681-2.269-0.792-2.269-0.792s-0.68-1.701,0.116-2.833
			c0.792-1.136,2.721-0.456,4.078-1.7C17.798,20.096,16.894,19.076,20.067,19.188z"/>
		<path fill="#F7991C" d="M18.543,26.932c0,0,0.602-5.415,5.017-5.619c4.415-0.197,3.809-3.778,8.023-3.041
			c4.218,0.735,7.125-0.769,7.125-0.769s-1.204,2.306-6.322,2.105c-5.115-0.201-2.003,0.803-6.82,2.208
			c-4.816,1.405-4.514,4.116-3.412,4.415L18.543,26.932z"/>
		<path fill="#F7991C" d="M13.193,24.46c0,0-0.813-1.446,2.623-1.174c3.435,0.269,1.354-4.248,6.146-3.976
			c4.789,0.269,6.507-2.081,6.507-2.081s-1.81,2.534-6.146,3.075c-4.337,0.541-2.252,2.2-4.609,3.616
			C15.904,25.004,14.462,23.014,13.193,24.46z"/>
		<g>
			<path fill="#DC1F26" d="M13.197,26.77c0,0-1.256-3.664,2.52-3.433C19.493,23.565,15.945,29.857,13.197,26.77z"/>
			<path fill="#9D1C20" d="M13.013,26.936l0.184-0.167l0.237-0.085l-0.237,0.085L13.013,26.936l-0.034-0.037l-0.017-0.048
				c-0.004-0.017-0.214-0.623-0.218-1.357l0,0c0.004-0.524,0.105-1.126,0.51-1.612l0,0c0.405-0.49,1.092-0.809,2.129-0.809l0,0
				c0.112,0,0.228,0.003,0.347,0.013l0,0c1.269,0.051,1.901,0.875,1.874,1.762l0,0c-0.014,1.371-1.215,2.99-2.762,3.02l0,0
				c0,0-0.003,0-0.007,0l0,0C14.224,27.868,13.578,27.579,13.013,26.936L13.013,26.936z M14.843,27.368
				c0.579,0.004,1.146-0.336,1.571-0.833l0,0c0.429-0.497,0.694-1.15,0.691-1.687l0,0c-0.024-0.677-0.324-1.17-1.408-1.262l0,0
				c-0.109-0.01-0.211-0.014-0.313-0.014l0,0c-1.854,0.034-2.099,1-2.14,1.922l0,0c0,0.527,0.129,0.997,0.174,1.143l0,0
				C13.911,27.174,14.394,27.364,14.843,27.368L14.843,27.368z"/>
		</g>
		<path fill="#F7991C" d="M25.054,25.65c0,0-0.385-1.163,2.465-3.044c2.616-1.727,3.004-2.663,3.004-2.663s-0.871,3.52,1.201,4.558
			C31.724,24.501,28.85,25.463,25.054,25.65z"/>
		<g>
			<path fill="#DC1F26" d="M18.877,22.545c0,0-1.259-2.755,2.517-2.582C25.169,20.134,21.622,24.868,18.877,22.545z"/>
			<path fill="#9D1C20" d="M18.713,22.735l0.164-0.193l0.225-0.103l-0.225,0.103L18.713,22.735l-0.041-0.037l-0.024-0.051
				c-0.007-0.018-0.225-0.483-0.228-1.062l0,0c0-0.412,0.122-0.905,0.537-1.279l0,0c0.415-0.374,1.078-0.605,2.102-0.605l0,0
				c0.108,0,0.225,0.003,0.343,0.01l0,0c1.228,0.034,1.891,0.639,1.881,1.388l0,0c-0.028,1.123-1.272,2.313-2.762,2.333l0,0
				c-0.003,0-0.007,0-0.01,0l0,0C19.921,23.433,19.289,23.222,18.713,22.735L18.713,22.735z M20.523,22.933
				c0.603,0,1.177-0.263,1.595-0.633l0,0c0.422-0.367,0.67-0.84,0.667-1.2l0,0c-0.014-0.425-0.279-0.813-1.408-0.888l0,0
				c-0.109-0.006-0.214-0.006-0.316-0.006l0,0c-1.908,0.037-2.102,0.751-2.136,1.381l0,0c0,0.354,0.109,0.681,0.156,0.803l0,0
				C19.564,22.779,20.054,22.929,20.523,22.933L20.523,22.933z"/>
		</g>
		<path fill="#F7991C" d="M32.931,24.641c0,0-2.045-1.337-0.854-3.085c1.344-1.969,5.054,0.513,7.313-2.769
			c0,0-0.623,2.034-3.915,3.482c-1.687,0.745-0.656,2.402-0.656,2.402L32.931,24.641z"/>
		<g>
			<path fill="#DC1F26" d="M28.635,19.892c0,0-1.558-2.782,2.521-2.582C34.927,17.501,30.76,22.895,28.635,19.892z"/>
			<path fill="#9D1C20" d="M28.431,20.039l0.204-0.146l-0.217,0.123c-0.007-0.021-0.32-0.562-0.327-1.222l0,0
				c-0.003-0.401,0.137-0.871,0.562-1.207l0,0c0.422-0.337,1.082-0.537,2.092-0.537l0,0c0.132,0,0.275,0.003,0.422,0.01l0,0
				c1.16,0.034,1.778,0.66,1.758,1.402l0,0c-0.027,1.197-1.299,2.557-2.721,2.588l0,0c-0.004,0-0.007,0-0.01,0l0,0
				C29.563,21.049,28.921,20.735,28.431,20.039L28.431,20.039z M30.203,20.549c0.534,0,1.105-0.293,1.531-0.715l0,0
				c0.424-0.421,0.697-0.966,0.693-1.374l0,0c-0.021-0.459-0.251-0.824-1.289-0.901l0,0c-0.14-0.007-0.269-0.01-0.395-0.01l0,0
				c-1.908,0.037-2.123,0.669-2.149,1.244l0,0c-0.007,0.449,0.214,0.892,0.255,0.966l0,0C29.271,20.344,29.733,20.542,30.203,20.549
				L30.203,20.549z"/>
		</g>
		<g>
			<path fill="#DC1F26" d="M35.988,23.146c0,0-1.262-2.755,2.518-2.581C42.277,20.735,38.733,25.47,35.988,23.146z"/>
			<path fill="#9D1C20" d="M35.666,23.527l0.323-0.381l0.452-0.21l-0.452,0.21L35.666,23.527l-0.088-0.074l-0.048-0.099
				c-0.013-0.034-0.244-0.521-0.244-1.17l0,0c-0.007-0.452,0.132-1.031,0.615-1.459l0,0c0.48-0.432,1.211-0.67,2.272-0.67l0,0
				c0.113,0,0.235,0.003,0.354,0.007l0,0c1.282,0.013,2.139,0.728,2.119,1.639l0,0c-0.055,1.316-1.385,2.544-3.014,2.581l0,0
				c-0.004,0-0.01,0-0.014,0l0,0C36.968,24.283,36.278,24.052,35.666,23.527L35.666,23.527z M37.631,23.283
				c0.534,0.003,1.055-0.232,1.432-0.568l0,0c0.385-0.33,0.588-0.762,0.582-1.013l0,0c-0.02-0.262-0.091-0.544-1.169-0.636l0,0
				c-0.109-0.006-0.204-0.01-0.303-0.01l0,0c-0.922,0-1.384,0.211-1.602,0.412l0,0c-0.217,0.197-0.282,0.436-0.286,0.717l0,0
				c0,0.194,0.041,0.395,0.082,0.538l0,0c0.014,0.047,0.027,0.085,0.038,0.116l0,0C36.825,23.164,37.236,23.28,37.631,23.283
				L37.631,23.283z"/>
		</g>
		<g>
			<path fill="#DC1F26" d="M41.291,19.256c0,0-1.262-2.752,2.517-2.579C47.58,16.848,42.801,21.844,41.291,19.256z"/>
			<path fill="#9D1C20" d="M41.07,19.382l0.221-0.125l-0.228,0.105c-0.01-0.018-0.224-0.48-0.228-1.065l0,0
				c0-0.412,0.119-0.905,0.533-1.276l0,0c0.416-0.374,1.079-0.605,2.106-0.605l0,0c0.109,0,0.225,0.003,0.343,0.01l0,0
				c1.068,0.023,1.67,0.534,1.657,1.21l0,0c-0.047,1.194-1.548,2.572-2.949,2.612l0,0c-0.006,0-0.01,0-0.017,0l0,0
				C41.958,20.249,41.41,19.974,41.07,19.382L41.07,19.382z M42.525,19.749c0.524,0.004,1.16-0.31,1.643-0.751l0,0
				c0.49-0.432,0.816-0.997,0.806-1.361l0,0c-0.01-0.351-0.201-0.639-1.183-0.711l0,0c-0.113-0.006-0.214-0.01-0.316-0.01l0,0
				c-1.908,0.038-2.106,0.755-2.139,1.381l0,0c0,0.415,0.153,0.789,0.177,0.847l0,0C41.784,19.589,42.121,19.743,42.525,19.749
				L42.525,19.749z"/>
		</g>
		<g>
			<path fill="#DC1F26" d="M30.013,24.848c0,0-1.649,2.538-3.527-0.742C24.608,20.824,30.502,21.283,30.013,24.848z"/>
			<path fill="#9D1C20" d="M26.05,24.354c-0.29-0.507-0.436-0.966-0.439-1.398l0,0c-0.006-0.496,0.229-0.948,0.585-1.204l0,0
				c0.354-0.262,0.786-0.364,1.225-0.364l0,0c1.36,0,3.102,1.035,3.122,3.041l0,0c0,0.157-0.014,0.317-0.034,0.48l0,0l-0.014,0.116
				l-0.064,0.095c-0.042,0.024-0.664,1.119-1.926,1.164l0,0C27.672,26.283,26.815,25.708,26.05,24.354L26.05,24.354z M29.265,24.939
				c0.118-0.105,0.21-0.207,0.265-0.278l0,0c0.006-0.079,0.01-0.157,0.01-0.232l0,0c-0.004-1.326-1.194-2.034-2.119-2.04l0,0
				c-0.592,0.041-0.796,0.187-0.806,0.567l0,0c-0.003,0.19,0.071,0.497,0.303,0.901l0,0c0.707,1.215,1.258,1.426,1.588,1.422l0,0
				C28.774,25.287,29.05,25.129,29.265,24.939L29.265,24.939z"/>
		</g>
		<linearGradient id="SVGID_18_" gradientUnits="userSpaceOnUse" x1="21.2729" y1="24.3311" x2="41.4381" y2="19.8313">
			<stop  offset="0" style="stop-color:#FFE400"/>
			<stop  offset="1" style="stop-color:#F9A622"/>
		</linearGradient>
		<path fill="url(#SVGID_18_)" d="M13.064,21.556c0,0-4.323,1.945-2.163,5.19c1.731,2.595,6.806,1.969,9.081,0.863
			c3.786-1.836,6.921,0.541,9.299-1.082c2.377-1.622,4.19-0.136,7.785-1.728c3.82-1.694,5.082,0.973,9.082-2.49
			c0,0-6.605-0.537-9.194,1.3c-2.592,1.839-5.541-0.762-7.255,1.132s-4.204,0.381-6.688,0.813c-2.489,0.433-5.105,3.31-8.5,1.116
			c0,0-1.139-1.014-2.269-0.792C12.244,25.878,10.901,23.61,13.064,21.556z"/>
		<ellipse fill="#E97F63" cx="30.522" cy="19.521" rx="0.578" ry="0.422"/>
		<path fill="#E97F63" d="M14.911,24.528c0-0.231-0.259-0.418-0.582-0.418c-0.32,0-0.579,0.187-0.579,0.418
			c0,0.235,0.259,0.421,0.579,0.421C14.652,24.949,14.911,24.763,14.911,24.528z"/>
		<ellipse fill="#E97F63" cx="27.518" cy="23.028" rx="0.58" ry="0.422"/>
		<path fill="#E97F63" d="M20.598,22.307c0-0.231-0.258-0.422-0.578-0.422c-0.323,0-0.582,0.191-0.582,0.422
			c0,0.231,0.258,0.421,0.582,0.421C20.339,22.729,20.598,22.538,20.598,22.307z"/>
		<path fill="#E97F63" d="M21.717,21.143c0-0.146-0.163-0.264-0.364-0.264c-0.197,0-0.361,0.118-0.361,0.264
			c0,0.147,0.164,0.263,0.361,0.263C21.554,21.406,21.717,21.29,21.717,21.143z"/>
		<ellipse fill="#E97F63" cx="31.584" cy="18.273" rx="0.436" ry="0.316"/>
		<ellipse fill="#E97F63" cx="15.678" cy="25.919" rx="0.434" ry="0.316"/>
		<g>
			<path fill="#69BC45" d="M32.101,22.796c0,0-0.66-2.833,3.33-4.03c3.098-0.936,2.979-1.667,2.979-1.667s1.289,1.562-2.629,2.979
				C32.737,21.177,32.101,22.796,32.101,22.796z"/>
			<path fill="#118040" d="M31.859,22.851c-0.007-0.013-0.051-0.207-0.051-0.513l0,0c-0.018-0.918,0.452-2.901,3.551-3.813l0,0
				c2.136-0.64,2.68-1.19,2.775-1.367l0,0c0.031-0.048,0.023-0.048,0.023-0.048l0,0c0-0.024,0-0.047,0.01-0.089l0,0l0.143-0.432
				l0.292,0.35c0.014,0.024,0.255,0.316,0.259,0.79l0,0c-0.003,0.744-0.605,1.724-2.996,2.585l0,0
				c-1.49,0.537-2.378,1.197-2.888,1.71l0,0c-0.513,0.514-0.646,0.86-0.646,0.86l0,0l-0.292,0.742L31.859,22.851L31.859,22.851z
				 M32.101,22.796l0.241-0.058L32.101,22.796L32.101,22.796z M35.502,19.004c-2.52,0.773-3.057,2.129-3.167,2.983l0,0
				c0.507-0.605,1.503-1.477,3.361-2.143l0,0c2.333-0.854,2.666-1.69,2.663-2.115l0,0c0-0.021,0-0.041,0-0.062l0,0
				C37.998,18.021,37.22,18.483,35.502,19.004L35.502,19.004z"/>
		</g>
		<g>
			<path fill="#69BC45" d="M15.673,22.923c0,0,1.616-1.555,3.986,0.616c1.84,1.683,2.279,1.315,2.279,1.315s-0.527,1.47-3.014-0.564
				C16.996,22.708,15.673,22.923,15.673,22.923z"/>
			<path fill="#118040" d="M18.802,24.439c-1.487-1.217-2.579-1.333-2.956-1.333l0,0c-0.105,0-0.14,0.007-0.14,0.007l0,0
				l-0.626,0.108l0.459-0.438c0.017-0.014,0.615-0.592,1.64-0.592l0,0c0.711-0.003,1.609,0.286,2.609,1.204l0,0
				c1.265,1.163,1.846,1.307,2,1.299l0,0c0.024,0,0.037,0,0.044-0.003l0,0l0.513-0.412l-0.224,0.639
				c-0.007,0.027-0.249,0.64-1.031,0.64l0,0C20.561,25.559,19.836,25.283,18.802,24.439L18.802,24.439z M19.047,24.137
				c1,0.82,1.656,1.041,2.044,1.037l0,0c0.21,0,0.357-0.057,0.456-0.125l0,0c-0.374-0.099-0.98-0.422-2.017-1.371l0,0
				c-0.952-0.864-1.745-1.102-2.35-1.102l0,0c-0.36,0-0.66,0.085-0.885,0.18l0,0C16.897,22.854,17.87,23.17,19.047,24.137
				L19.047,24.137z M21.839,24.691L21.839,24.691L21.839,24.691L21.839,24.691L21.839,24.691z M15.806,23.063l-0.133-0.14
				L15.806,23.063L15.806,23.063z"/>
		</g>
	</g>
	<g>
		<path d="M46.501,24.062c-0.558,0.292-1.122,0.564-1.69,0.81c-1.67,0.711-3.391,1.214-5.044,1.289
			c-1.755,0.007-3.531,0.303-5.129,0.725c-3.225,0.853-6.048,1.996-8.783,2.034c-2.85,0.031-5.523,0.711-7.71,0.936
			c-2.246,0.078-4.377-0.092-6.055-0.51c-0.833-0.235-1.578-0.582-2.054-1.105c-0.49-0.514-0.612-1.204-0.558-1.799
			c0.459-2.415,1.571-3.445,1.466-3.469c0.003,0.006-0.262,0.299-0.694,0.918C9.87,24.518,9.122,25.447,9.067,27
			c-0.013,0.776,0.439,1.67,1.205,2.201c0.751,0.551,1.68,0.877,2.67,1.109c1.986,0.381,4.241,0.765,6.809,0.418
			c2.486-0.469,4.969-0.523,7.986-0.758c2.966-0.436,5.789-1.705,8.826-2.351c1.507-0.414,3.067-0.265,4.827-0.649
			c1.686-0.378,3.289-1.058,4.812-1.908c0.103-0.055,0.198-0.116,0.299-0.174V24.062z"/>
		<path d="M11.901,25.817c0.047,0.128-0.571-1.721,1.211-2.65c0.718-0.449,2.377-0.585,3.438-1.976
			c0.534-0.67,0.707-1.347,1.194-1.511c0.554-0.224,1.394-0.17,2.184-0.125c-0.834-0.374-1.667-0.813-2.698-0.527
			c-1.044,0.49-1.275,1.316-1.792,1.653c-0.47,0.405-1.013,0.667-1.558,0.881c-0.605,0.238-1.218,0.541-1.649,0.966
			c-0.939,0.861-0.956,1.997-0.755,2.521C11.666,25.616,11.911,25.82,11.901,25.817z"/>
		<path d="M49.978,17.946h0.375c-0.004-0.173-0.034-0.347-0.103-0.521c-0.183-0.458-0.625-0.724-1.027-0.829
			c-0.823-0.212-1.625-0.092-2.401,0.057c0.885-0.075,1.837-0.122,2.609,0.29C49.855,17.168,49.998,17.545,49.978,17.946z"/>
		<path d="M46.501,21.623c-0.248,0.123-0.5,0.228-0.751,0.326c-0.725,0.273-1.477,0.422-2.208,0.429
			c-0.687,0.006-1.53-0.174-2.326-0.14c-1.606-0.027-3.187,0.436-4.517,1.085c-0.667,0.32-1.286,0.667-1.857,0.86
			c-0.605,0.221-0.948,0.136-1.744,0.007c-1.374-0.225-2.922-0.075-4.126,0.571c-1.208,0.701-1.868,0.973-2.986,0.65
			c-1.17-0.255-2.357-0.263-3.429-0.051c-2.166,0.412-3.693,1.629-5.122,2.003c-1.466,0.483-2.609-0.507-3.657-0.854
			c-2.126-0.871-3.313-0.156-3.188-0.132c0.018-0.014,0.3-0.198,0.885-0.174c0.62,0.024,1.531,0.286,2.585,0.871
			c0.524,0.255,1.068,0.724,1.895,0.942c0.806,0.225,1.745,0.075,2.585-0.235c1.676-0.626,3.374-1.584,5.425-1.507
			c0.503,0.01,1.017,0.071,1.538,0.18c0.462,0.109,1.193,0.32,1.891,0.221c1.503-0.265,2.303-1.169,3.425-1.275
			c0.551-0.089,1.136-0.109,1.742-0.044c0.303,0.021,0.608,0.089,0.918,0.125c0.364,0.065,0.826,0.085,1.211-0.006
			c1.561-0.401,2.561-1.259,3.833-1.667c1.231-0.463,2.585-0.602,3.976-0.507c1.35,0.146,2.775-0.177,4.003-0.803V21.623z"/>
		<path d="M20.526,19.637c0.01,0.043,0.095-0.585,0.775-1.051c0.337-0.221,0.833-0.303,1.415-0.184
			c0.538,0.105,1.326,0.435,2.231,0.506c0.897,0.095,2.014-0.136,2.897-0.704c0.891-0.548,1.599-1.15,2.489-1.32
			c0.905-0.181,1.963-0.037,3.075,0.204c1.095,0.251,2.497,0.425,3.613-0.187c-1.432,0.327-2.613-0.249-3.786-0.677
			c-1.18-0.435-2.493-0.694-3.741-0.32c-1.242,0.395-2.011,1.187-2.752,1.52c-0.731,0.388-1.49,0.446-2.217,0.405
			c-0.694-0.027-1.425-0.255-2.126-0.173c-0.684,0.062-1.231,0.388-1.489,0.759C20.394,19.167,20.554,19.664,20.526,19.637z"/>
		<path d="M38.332,16.236c-0.021-0.082,4.272-0.84,8.755,1.224c-2.164-1.854-4.738-2.248-6.344-2.027
			C39.09,15.637,38.318,16.249,38.332,16.236z"/>
	</g>
	<path fill="#FFFFFF" d="M51.145,32.939l1.092-5.446c0,0-4.813,1.436-5.633-3.173c-0.816-4.609,1.64-8.092,6.35-5.735
		c0,0-1.533-1.537-0.203-3.891c1.329-2.357,4.425-3.867,8.193-1.537c2.149,1.333,1.64,4.404,1.64,4.404s1.636-3.584,5.734-2.047
		c4.096,1.534,4.707,5.221,3.275,7.37c0,0,4.405-1.329,7.166,2.153c2.765,3.479,1.027,7.782-2.149,8.602
		c-3.173,0.82-4.3-0.922-4.3-0.922L65.552,40.5C65.552,40.5,61.317,32.337,51.145,32.939z"/>
	<g>
		<path d="M65.242,39.626c-0.037-0.062-0.074-0.12-0.115-0.178l3.166-4.017l3.171-4.023l-3.537,3.704l-3.364,3.521
			c-1.143-1.554-2.47-2.81-3.837-3.765l2.289-3.966l2.459-4.258l-2.666,4.133l-2.473,3.829c-0.031-0.021-0.062-0.044-0.092-0.061
			l1.9-4.18l2.041-4.479l-2.473,4.258l-2.275,3.919c-1.112-0.62-2.221-1.041-3.252-1.255l1.116-3.993l1.187-4.245l-1.418,4.174
			l-1.354,3.976c-0.146-0.021-0.293-0.041-0.436-0.055c-0.837-0.105-1.571-0.118-2.211-0.084l0.69-4.429l0.755-4.867l-1.231,4.769
			l-1.197,4.633c-0.162,0.01-0.332,0.027-0.489,0.061l0.729-4.623l0.781-4.922l-1.115,4.275c-0.194,0.017-0.677,0.055-1.371-0.03
			c-0.897-0.109-2.245-0.507-2.962-1.809c-0.66-1.259-1.058-3.348-0.364-5.072c0.34-0.875,1.071-1.612,2.023-2.058
			c0.79-0.33,1.867-0.537,2.674-0.054c0.575,0.833,1.436,1.357,2.34,1.344c1.27-0.126,1.63-1.377,1.337-1.98
			c-0.235-0.673-0.895-0.847-1.125-0.636c-0.239,0.184-0.27,0.357-0.283,0.344c0.004,0.02,0.126-0.177,0.391-0.235
			c0.235-0.089,0.637,0.296,0.606,0.857c-0.007,0.517-0.623,1.079-1.279,0.731c-0.69-0.316-1.326-1.194-1.377-2.17
			c-0.1-1.888,2.336-4.483,5.026-4.197c2.688,0.116,5.898,3.282,4.184,6.646c1.333-1.541,1.204-4.03-0.044-5.578
			c-1.177-1.592-3.081-2.51-4.938-2.459c-1.908,0.021-3.456,1.187-4.385,2.357c-1.02,1.177-1.421,2.921-0.86,4.211
			c0.048,0.122,0.103,0.234,0.16,0.347c-0.857-0.592-2.181-0.596-3.133-0.241c-1.347,0.448-2.391,1.591-2.813,2.822
			c-0.738,2.503-0.055,4.772,1.208,6.167c1.388,1.371,2.99,1.275,3.813,1.122c0.619-0.125,0.992-0.292,1.159-0.377l-0.129,0.496
			l-1.27,4.979c0,0-0.496,0.296-0.479,0.279c-0.034,0.017,2.241-0.513,5.513,0.371c3.3,0.802,7.133,3.551,10.381,7.425
			c0.01,0.043,0.044-0.062,0.044-0.062l3.088-4.5l3.222-3.816l-3.574,3.486L65.242,39.626z M80.479,26.334
			c-0.591-1.282-1.414-2.398-2.432-3.095c-2.098-1.446-4.183-0.956-5.233-0.558c-0.186,0.072-0.351,0.143-0.501,0.214
			c0.8-1.309,0.714-2.996,0.208-4.122c-0.667-1.534-1.775-2.656-2.98-3.265c-2.438-1.204-4.792-0.691-5.755,0.313
			c-0.979,0.973-0.979,1.751-0.999,1.714c0,0.048,0.303-0.833,1.496-1.5c1.13-0.656,3.429-0.53,5.234,0.922
			c1.763,1.289,3.143,4.952,0.354,6.286c-1.183,0.578-3.462,1.013-3.5-0.229c-0.006-0.616,0.483-1.211,1.279-0.84
			c0.395,0.123,0.752,0.388,0.626,0.49c-0.156,0.238-0.684,0.313-1.085,0.207c0.415,0.188,1.092,0.327,1.401-0.197
			c0.047-0.653-0.649-0.901-1.075-1.119c-1.234-0.535-2.459,1.006-1.929,2.207c0.62,1.31,2.089,1.286,2.986,1.187
			c0.966-0.143,1.938-0.418,2.776-1.013c0.265-0.19,0.49-0.415,0.684-0.65c0.299-0.078,0.68-0.16,1.135-0.217
			c1.229-0.167,3.252-0.167,4.667,1.415c1.256,1.527,2.739,4.459,1.262,6.629c-0.69,1.082-1.958,1.956-3.38,2.34
			c-1.341,0.436-3.439-0.575-4.323-1.915c0.486,1.432,1.279,2.238,2.255,2.561c0.921,0.367,1.919,0.316,2.82,0.13
			c1.798-0.401,3.428-1.521,4.21-3.153C81.5,29.426,81.079,27.558,80.479,26.334z"/>
	</g>
	<radialGradient id="SVGID_19_" cx="16.8154" cy="32.0176" r="0" gradientUnits="userSpaceOnUse">
		<stop  offset="0" style="stop-color:#FFFFFF"/>
		<stop  offset="0.02" style="stop-color:#FCD7D8"/>
		<stop  offset="0.0454" style="stop-color:#F8ABAE"/>
		<stop  offset="0.0728" style="stop-color:#F58589"/>
		<stop  offset="0.1017" style="stop-color:#F2646A"/>
		<stop  offset="0.1328" style="stop-color:#F04A50"/>
		<stop  offset="0.1667" style="stop-color:#EE353C"/>
		<stop  offset="0.205" style="stop-color:#ED272F"/>
		<stop  offset="0.2512" style="stop-color:#EC1F26"/>
		<stop  offset="0.3273" style="stop-color:#EC1C24"/>
		<stop  offset="0.355" style="stop-color:#E31B23"/>
		<stop  offset="0.5078" style="stop-color:#B81620"/>
		<stop  offset="0.6269" style="stop-color:#9D121E"/>
		<stop  offset="0.697" style="stop-color:#93111D"/>
		<stop  offset="0.9818" style="stop-color:#6E0008"/>
	</radialGradient>
	<path fill="url(#SVGID_19_)" d="M16.815,32.018"/>
</g>
</svg>
