<?xml version="1.0" encoding="utf-8"?>
<!-- Generator: Adobe Illustrator 16.0.0, SVG Export Plug-In . SVG Version: 6.00 Build 0)  -->
<!DOCTYPE svg PUBLIC "-//W3C//DTD SVG 1.1//EN" "http://www.w3.org/Graphics/SVG/1.1/DTD/svg11.dtd">
<svg version="1.1" id="Layer_1" xmlns="http://www.w3.org/2000/svg" xmlns:xlink="http://www.w3.org/1999/xlink" x="0px" y="0px"
	 width="100px" height="100px" viewBox="0 0 100 100" enable-background="new 0 0 100 100" xml:space="preserve">
<g>
	<path fill="#00799A" d="M51.666,93.496c0,0,1.021-0.116,2.939-0.322c0.959-0.151,2.122-0.379,3.495-0.652
		c1.354-0.368,2.92-0.728,4.597-1.379c3.374-1.228,7.354-3.171,11.273-6.273c1.919-1.585,3.92-3.349,5.708-5.494
		c0.232-0.263,0.465-0.525,0.697-0.793c0.221-0.27,0.423-0.562,0.646-0.844c0.423-0.571,0.878-1.142,1.292-1.742
		c0.778-1.233,1.606-2.476,2.293-3.839c1.424-2.693,2.646-5.602,3.486-8.794c0.797-3.116,1.262-6.49,1.292-9.915
		c0-0.859-0.041-1.718-0.069-2.586l-0.103-1.303l-0.051-0.652l-0.09-0.596c-0.303-1.778-0.495-3.683-1.021-5.309
		c-0.252-0.844-0.414-1.697-0.717-2.535c-0.313-0.844-0.636-1.688-0.948-2.541c-0.283-0.859-0.738-1.657-1.133-2.48l-0.596-1.227
		l-0.303-0.616l-0.364-0.586c-0.475-0.782-0.96-1.565-1.435-2.354c-0.494-0.783-1.101-1.49-1.646-2.237l-0.839-1.112
		c-0.303-0.353-0.625-0.691-0.938-1.035c-0.646-0.677-1.242-1.399-1.919-2.046c-2.697-2.605-5.748-4.863-9.063-6.722
		c-0.848-0.415-1.707-0.834-2.555-1.253c-0.223-0.101-0.425-0.217-0.646-0.308l-0.667-0.248l-1.344-0.5l-1.323-0.515
		c-0.455-0.162-0.919-0.263-1.374-0.399c-0.93-0.237-1.839-0.541-2.768-0.738c-3.748-0.777-7.586-1.02-11.415-0.828
		c-7.675,0.505-15.1,3.289-21.206,7.804c-6.092,4.521-10.849,10.708-13.572,17.521c-0.283,0.783-0.702,1.818-0.929,2.616
		l-0.404,1.268l-0.344,1.313c-0.257,0.875-0.389,1.769-0.591,2.642c-0.131,0.89-0.303,1.773-0.383,2.663
		C8.54,49.433,8.443,50.316,8.423,51.2c-0.061,0.885-0.056,1.764-0.046,2.642v0.586l0.061,0.677c0.035,0.449,0.07,0.895,0.111,1.344
		c0.035,0.444,0.076,0.89,0.111,1.339c0.041,0.439,0.056,0.898,0.152,1.297c0.157,0.828,0.313,1.652,0.465,2.472
		c0.08,0.414,0.131,0.822,0.242,1.227l0.354,1.212c0.237,0.803,0.469,1.602,0.697,2.394c0.292,0.773,0.611,1.531,0.909,2.283
		c0.556,1.541,1.378,2.921,2.106,4.319c0.343,0.717,0.798,1.354,1.223,2c0.429,0.646,0.854,1.288,1.272,1.924
		c3.576,4.939,8.006,8.597,12.3,11.117c4.293,2.586,8.541,3.865,12.034,4.637c0.878,0.173,1.717,0.333,2.505,0.484
		c0.798,0.122,1.545,0.146,2.243,0.223c0.697,0.056,1.343,0.112,1.929,0.162c0.596,0.051,1.132,0,1.616,0.005
		C50.636,93.512,51.666,93.496,51.666,93.496z M51.666,93.496c0,0-1.03,0.02-2.96,0.065c-0.484,0-1.02,0.051-1.616,0.005
		c-0.586-0.044-1.232-0.095-1.929-0.151c-0.697-0.065-1.455-0.085-2.253-0.201c-0.788-0.141-1.626-0.288-2.516-0.445
		c-3.518-0.706-7.806-1.904-12.235-4.343c-4.425-2.399-9.076-5.891-13.087-10.729c-0.469-0.632-0.945-1.263-1.429-1.904
		c-0.48-0.641-0.99-1.273-1.389-1.99c-0.844-1.398-1.783-2.792-2.465-4.354c-0.369-0.768-0.763-1.535-1.121-2.323
		c-0.303-0.813-0.611-1.637-0.914-2.461l-0.465-1.247c-0.151-0.423-0.242-0.874-0.363-1.308c-0.233-0.884-0.46-1.777-0.692-2.672
		c-1.576-7.001-1.424-15.117,1.116-22.82c1.268-3.859,3.122-7.602,5.495-11.077c2.394-3.455,5.313-6.637,8.698-9.319
		c3.368-2.697,7.192-4.899,11.283-6.491c1.035-0.363,2.061-0.752,3.111-1.08c1.061-0.278,2.117-0.576,3.197-0.834
		c1.108-0.211,2.24-0.429,3.341-0.611l3.183-0.348l3.303-0.055c0.545,0.015,1.101-0.046,1.646,0.02l1.647,0.136l1.637,0.142
		l0.828,0.07l0.809,0.151l3.232,0.626c4.252,1.071,8.343,2.688,12.051,4.895c0.929,0.545,1.798,1.182,2.697,1.768
		c0.445,0.308,0.898,0.585,1.323,0.914l1.243,1.016l1.231,1.015l0.617,0.505c0.191,0.177,0.373,0.369,0.565,0.556
		c0.748,0.743,1.495,1.49,2.231,2.243c0.708,0.768,1.334,1.612,2.001,2.415c0.333,0.404,0.666,0.803,0.979,1.212l0.869,1.293
		c0.555,0.869,1.173,1.692,1.666,2.591c0.476,0.904,0.96,1.803,1.435,2.697l0.354,0.672l0.293,0.702l0.576,1.394
		c0.364,0.934,0.787,1.833,1.03,2.803c0.283,0.95,0.565,1.894,0.839,2.834c0.264,0.944,0.394,1.949,0.597,2.909
		c0.453,1.97,0.484,3.752,0.666,5.571l0.051,0.757l0.011,0.702c0,0.464,0,0.929,0.009,1.394c-0.03,0.924-0.06,1.844-0.132,2.753
		c-0.302,3.646-1.029,7.102-2.121,10.369c-1.04,3.202-2.516,6.192-4.142,8.854c-0.787,1.359-1.718,2.58-2.597,3.794
		c-0.453,0.585-0.938,1.14-1.402,1.711c-0.232,0.283-0.456,0.565-0.697,0.833c-0.243,0.263-0.495,0.521-0.728,0.778
		c-1.91,2.116-4.012,3.823-6.011,5.354c-4.111,2.939-8.122,4.817-11.525,5.985c-1.708,0.611-3.274,0.969-4.627,1.323
		c-1.374,0.271-2.547,0.484-3.506,0.627C52.687,93.391,51.666,93.496,51.666,93.496z"/>
	<path fill="#00799A" d="M46.838,83.213c0,0-0.778-0.105-2.223-0.299c-0.737-0.06-1.616-0.276-2.646-0.523
		c-0.506-0.138-1.082-0.224-1.658-0.425c-0.575-0.193-1.189-0.399-1.835-0.616c-2.55-0.955-5.622-2.345-8.672-4.683
		c-0.758-0.581-1.485-1.258-2.279-1.899c-0.772-0.667-1.459-1.46-2.232-2.216l-0.288-0.294c-0.122-0.127-0.177-0.217-0.268-0.328
		c-0.172-0.207-0.338-0.419-0.51-0.636c-0.343-0.425-0.697-0.854-1.045-1.289c-0.374-0.414-0.667-0.929-0.995-1.409
		c-0.323-0.495-0.651-0.994-0.98-1.5c-0.626-1.025-1.131-2.132-1.717-3.237c-0.248-0.576-0.464-1.167-0.697-1.758
		c-0.222-0.611-0.485-1.167-0.677-1.833c-0.182-0.607-0.363-1.219-0.545-1.834c-0.161-0.636-0.298-1.313-0.444-1.979
		c-0.172-0.673-0.218-1.345-0.334-2.026c-0.116-0.677-0.167-1.368-0.207-2.064c-0.394-5.557,0.606-11.653,3.429-17.235
		c1.41-2.783,3.238-5.434,5.456-7.809c0.53-0.611,1.151-1.146,1.732-1.717l0.223-0.212l0.111-0.106l0.055-0.05
		c-0.07,0.05,0.162-0.131,0.157-0.126l0.444-0.358l0.889-0.712c1.082-0.965,2.647-1.904,4.097-2.823
		c2.93-1.612,6.084-2.874,9.397-3.611c3.323-0.702,6.748-0.89,10.152-0.657c3.384,0.364,6.728,1.162,9.869,2.43
		c3.143,1.313,6.021,3.106,8.617,5.212c1.223,1.132,2.506,2.197,3.535,3.491l0.818,0.929l0.404,0.459
		c-0.061-0.07,0.121,0.162,0.121,0.162l0.041,0.056l0.08,0.116l0.162,0.232c0.444,0.621,0.878,1.242,1.303,1.853l0.323,0.47
		l0.313,0.551l0.616,1.09c0.385,0.732,0.85,1.445,1.122,2.188c0.313,0.732,0.615,1.464,0.929,2.191
		c0.313,0.723,0.486,1.5,0.728,2.238l0.333,1.116l0.092,0.278l0.062,0.211l0.02,0.131l0.11,0.536l0.212,1.066l0.112,0.531
		l0.07,0.581c0.101,0.778,0.232,1.56,0.273,2.313c0.039,0.752,0.09,1.5,0.109,2.243c0.042,2.969-0.353,5.86-1.039,8.566
		c-1.385,5.419-4.012,10.093-7.152,13.678c-1.556,1.834-3.283,3.318-5,4.663c-0.879,0.601-1.688,1.252-2.566,1.777
		c-0.899,0.495-1.737,1.034-2.586,1.47c-3.425,1.763-6.688,2.591-9.364,3.075c-0.677,0.101-1.323,0.192-1.919,0.283
		c-0.606,0.103-1.173,0.081-1.707,0.127c-1.062,0.061-1.96,0.12-2.688,0.05C47.615,83.248,46.838,83.213,46.838,83.213z
		 M46.838,83.213c0,0,0.777,0.025,2.242,0.081c0.728,0.061,1.626-0.01,2.688-0.081c0.524-0.045,1.101-0.031,1.696-0.141
		c0.597-0.102,1.243-0.208,1.909-0.318c2.657-0.561,5.89-1.461,9.173-3.37c0.809-0.475,1.616-1.019,2.444-1.564
		c0.828-0.557,1.616-1.264,2.455-1.915c1.565-1.369,3.132-2.976,4.465-4.839c1.354-1.854,2.606-3.894,3.556-6.161
		c0.939-2.264,1.646-4.703,2.04-7.244c0.395-2.545,0.495-5.196,0.202-7.849c-0.08-0.667-0.191-1.328-0.292-1.99
		c-0.102-0.662-0.273-1.283-0.405-1.925l-0.11-0.48l-0.151-0.52l-0.313-1.041l-0.153-0.525l-0.04-0.131
		c0.031,0.126-0.011,0-0.011,0.015l-0.02-0.061l-0.09-0.237l-0.386-0.955c-0.261-0.626-0.464-1.288-0.786-1.894
		c-0.313-0.611-0.638-1.217-0.95-1.834c-0.293-0.637-0.707-1.142-1.061-1.712l-0.546-0.828l-0.272-0.419l-0.354-0.435
		c-0.475-0.585-0.949-1.177-1.424-1.767l-0.182-0.217l-0.092-0.111l-0.04-0.055c-0.03-0.046,0.121,0.151,0.029,0.05l-0.362-0.374
		l-0.738-0.748c-0.939-1.04-2.091-1.869-3.142-2.793c-0.565-0.404-1.161-0.788-1.737-1.192c-0.293-0.188-0.565-0.414-0.879-0.576
		l-0.929-0.505l-0.93-0.515l-0.455-0.263l-0.495-0.206l-1.938-0.844c-2.657-0.97-5.425-1.642-8.254-1.925
		c-2.828-0.227-5.677-0.045-8.465,0.429l-2.051,0.49L41.16,23.84l-0.495,0.172l-1,0.343l-1.003,0.333
		c-0.343,0.106-0.646,0.278-0.97,0.409c-0.641,0.293-1.298,0.571-1.919,0.869c-1.162,0.707-2.308,1.202-3.586,2.191l-0.929,0.657
		l-0.465,0.328c-0.04,0.036,0.151-0.121,0.046-0.035l-0.046,0.041l-0.101,0.085l-0.203,0.172c-0.52,0.46-1.09,0.874-1.585,1.358
		c-2.051,1.879-3.824,4.041-5.253,6.375c-2.895,4.662-4.375,10.015-4.491,15.163c-0.02,0.646-0.035,1.282,0.016,1.92
		c0.045,0.631,0.025,1.282,0.121,1.889c0.081,0.611,0.142,1.223,0.227,1.838c0.127,0.627,0.253,1.252,0.379,1.874
		c0.288,1.137,0.672,2.323,1.016,3.449c0.475,1.087,0.874,2.198,1.384,3.213c0.273,0.499,0.546,0.994,0.813,1.485
		c0.278,0.489,0.505,0.99,0.849,1.439c0.323,0.46,0.642,0.914,0.955,1.363c0.157,0.223,0.313,0.444,0.469,0.666
		c0.076,0.097,0.167,0.238,0.228,0.305l0.257,0.303c0.707,0.782,1.339,1.602,2.056,2.303c0.733,0.677,1.43,1.363,2.146,1.975
		c2.895,2.456,5.92,3.915,8.435,4.93c0.641,0.232,1.245,0.449,1.821,0.651c0.575,0.213,1.142,0.298,1.646,0.44
		c1.03,0.257,1.909,0.479,2.636,0.55C46.06,83.103,46.838,83.213,46.838,83.213z"/>
	<path fill="#00799A" d="M38.213,47.625c-0.157,2.455-0.389,3.067-0.389,5.339c0,1.535,0.05,1.737,12.609,1.737h0.01l0,0
		c12.556,0,12.617-0.202,12.617-1.737c0-2.272-0.232-2.885-0.394-5.339c2.535-0.257,4.656-1.359,6.404-3.152
		c1.576-1.636,2.303-3.935,2.151-6.212c-0.151-2.061-1.293-4.389-2.809-5.809c-2.413-2.252-6.03-3.015-9.212-2.303
		c-2.384-3.359-5.809-4.208-8.758-4.208l0,0h-0.01c-2.949,0-6.374,0.848-8.749,4.208c-3.184-0.712-6.806,0.05-9.22,2.303
		c-1.516,1.419-2.657,3.748-2.804,5.809c-0.161,2.278,0.566,4.576,2.152,6.212C33.556,46.266,35.682,47.367,38.213,47.625z"/>
	<g>
		<path fill="#00799A" d="M72.152,61.722c0,0,0.091,0.06,0.263,0.172c0.162,0.101,0.394,0.302,0.656,0.601
			c0.253,0.309,0.505,0.733,0.667,1.288c0.142,0.556,0.191,1.228,0.061,1.939c-0.232,1.435-1.222,3.041-2.899,4.036
			c-0.828,0.5-1.798,0.837-2.808,0.995c-1.021,0.171-2.062,0.105-3.071-0.042c-0.495-0.09-1.001-0.187-1.475-0.338
			c-0.485-0.12-0.95-0.298-1.404-0.475c-0.909-0.354-1.758-0.782-2.546-1.232c-0.404-0.217-0.757-0.46-1.131-0.696
			c-0.374-0.228-0.718-0.465-1.041-0.712c-0.333-0.243-0.656-0.48-0.96-0.708c-0.303-0.237-0.586-0.474-0.858-0.692
			c-0.565-0.443-1.021-0.883-1.444-1.267c-0.435-0.379-0.788-0.728-1.07-1.011c-0.576-0.571-0.909-0.904-0.909-0.904
			c-1.455-1.439-1.465-3.787-0.031-5.242c1.445-1.459,3.799-1.47,5.253-0.03c0.233,0.236,0.435,0.495,0.596,0.773l0.052,0.079
			c0,0,0.191,0.344,0.535,0.939c0.172,0.305,0.383,0.673,0.646,1.067c0.253,0.398,0.535,0.872,0.878,1.337
			c0.172,0.238,0.345,0.486,0.526,0.743c0.191,0.243,0.394,0.495,0.596,0.753c0.202,0.268,0.424,0.52,0.646,0.771
			c0.232,0.254,0.465,0.537,0.717,0.763c0.495,0.506,1.031,0.991,1.597,1.425c0.293,0.212,0.586,0.436,0.889,0.606
			c0.303,0.202,0.606,0.354,0.93,0.516c0.637,0.277,1.303,0.52,1.959,0.591c0.657,0.086,1.323,0.051,1.95-0.122
			c1.252-0.317,2.313-1.231,2.788-2.257c0.242-0.511,0.354-1.03,0.363-1.506c-0.01-0.474-0.121-0.888-0.263-1.217
			c-0.151-0.313-0.313-0.561-0.454-0.712C72.223,61.803,72.152,61.722,72.152,61.722z"/>
		<path fill="#00799A" d="M28.728,61.722c0,0-0.065,0.081-0.197,0.232c-0.147,0.151-0.304,0.399-0.455,0.712
			c-0.147,0.329-0.258,0.743-0.263,1.217c0.01,0.476,0.122,0.995,0.364,1.506c0.475,1.025,1.525,1.939,2.783,2.257
			c0.626,0.173,1.288,0.208,1.95,0.122c0.661-0.071,1.328-0.313,1.965-0.591c0.313-0.162,0.626-0.313,0.929-0.516
			c0.303-0.171,0.596-0.395,0.884-0.606c0.571-0.434,1.106-0.919,1.601-1.425c0.253-0.226,0.48-0.509,0.712-0.763
			c0.23-0.252,0.452-0.504,0.654-0.771c0.203-0.258,0.395-0.51,0.586-0.753c0.182-0.257,0.364-0.505,0.536-0.743
			c0.343-0.465,0.616-0.938,0.879-1.337c0.262-0.395,0.465-0.763,0.637-1.067c0.343-0.596,0.545-0.939,0.545-0.939l0.04-0.064
			c1.021-1.778,3.284-2.39,5.061-1.369c1.778,1.025,2.395,3.294,1.364,5.071c-0.162,0.287-0.374,0.561-0.606,0.782
			c0,0-0.323,0.333-0.91,0.904c-0.283,0.283-0.626,0.632-1.061,1.011c-0.434,0.384-0.889,0.823-1.455,1.267
			c-0.273,0.219-0.556,0.455-0.849,0.692c-0.313,0.228-0.636,0.465-0.959,0.708c-0.323,0.247-0.677,0.484-1.051,0.712
			c-0.364,0.236-0.717,0.479-1.131,0.696c-0.789,0.45-1.637,0.879-2.544,1.232c-0.454,0.177-0.914,0.354-1.404,0.475
			c-0.47,0.151-0.975,0.248-1.475,0.338c-1.01,0.147-2.045,0.213-3.065,0.042c-1.016-0.158-1.985-0.495-2.814-0.995
			c-1.667-0.995-2.662-2.602-2.899-4.036c-0.126-0.712-0.081-1.384,0.061-1.939c0.156-0.555,0.419-0.979,0.667-1.288
			c0.262-0.299,0.494-0.5,0.661-0.601C28.642,61.781,28.728,61.722,28.728,61.722z"/>
	</g>
	<g>
		<polygon fill="#00799A" points="40.868,79.264 40.868,68.925 51.201,74.097 		"/>
		<polygon fill="#00799A" points="60.01,79.264 60.01,68.925 49.676,74.097 		"/>
	</g>
</g>
</svg>
